<?xml version="1.0" encoding="utf-8"?>
<!-- Designed by Vexels.com - 2016 All Rights Reserved - https://vexels.com/terms-and-conditions/  -->

<svg version="1.0" id="Capa_1" xmlns="http://www.w3.org/2000/svg" xmlns:xlink="http://www.w3.org/1999/xlink" x="0px" y="0px"
	 width="1200px" height="1200px" viewBox="0 0 1200 1200" enable-background="new 0 0 1200 1200" xml:space="preserve">
<g>
	<path fill="#F4793E" d="M1176.459,599.967c0,318.386-258.114,576.483-576.467,576.483c-318.369,0-576.45-258.097-576.45-576.483
		c0-318.328,258.081-576.417,576.45-576.417C918.345,23.55,1176.459,281.639,1176.459,599.967z"/>
	<path fill="#B4502F" d="M1149.94,773.159l-162.29-188.654l-35.38-15.755c-1.878,5.22-72.808,4.252-74.922,9.365l-154.006-9.365
		l-68.532-69.719l-54.826-60.354L431.978,462.61l-147.763,74.922c0,0-73.621,33.128-77.572,38.396
		c-3.951,5.276-31.624,73.199-31.624,73.199l6.975,13.495c-9.544,3.797-19.145,7.308-28.843,10.333l436.752,503.244
		c3.374,0.057,6.707,0.251,10.089,0.251C858,1176.45,1076.4,1006.908,1149.94,773.159z"/>
	<g>
		<path fill="#EFE6CC" d="M753.836,526.72l0.911,0.65l-1.008-0.633C753.803,526.737,753.819,526.72,753.836,526.72z"/>
		<path fill="#EFE6CC" d="M855.097,636.355c25.56,0,46.258,20.698,46.258,46.273c0,25.559-20.698,46.273-46.258,46.273
			c-25.543,0-46.257-20.714-46.257-46.273C808.84,657.053,829.554,636.355,855.097,636.355z"/>
		<path fill="#EFE6CC" d="M855.097,593.952c48.941,0,88.645,39.704,88.645,88.677c0,48.972-39.704,88.661-88.645,88.661
			c-48.972,0-88.693-39.689-88.693-88.661C766.404,633.656,806.124,593.952,855.097,593.952z M855.097,739.893
			c31.625,0,57.265-25.64,57.265-57.265c0-31.64-25.641-57.297-57.265-57.297c-31.64,0-57.28,25.657-57.28,57.297
			C797.816,714.253,823.457,739.893,855.097,739.893z"/>
		<path fill="#EFE6CC" d="M150.428,660.744h0.032c1.187-3.317,4.211-6.146,10.211-7.04v-28.616c0,0,0-0.065,0-0.13v-0.813h0.065
			c0.244-2.747,1.561-16.486,13.528-29.314c12.422-13.235,44.615-57.119,77.718-72.175c5.187,3.236,11.349,4.211,26.226-2.601
			c14.877-6.764,96.092-41.086,120.057-48.517c23.933-7.431,24.584-18.454,23.933-22.99c98.367-17.787,113.18-21.349,159.112-19.397
			c41.98,1.772,45.412,8.211,45.672,9.3c0.032,0,0.032,0,0.032,0c0,0.032,0,0.016,0,0.032c0.017,0.097,0.017,0.162,0.017,0.162
			l3.089,2.163c-2.325,1.707-5.61,4.13-7.495,5.642c-0.781,0.634-1.805,1.528-1.837,2.114c-0.017,0.293,0.065,1.837,3.496,5.317
			c7.869,8.032,61.785,63.069,69.313,70.272l0.341,0.341c6.552,6.293,9.268,8.894,19.43,8.894c1.105,0,2.243-0.049,3.495-0.097
			c9.707-0.52,25.136-5.414,33.916-8.471l3.968,2.552h0.016l5.155,3.61c0,0,0.146,7.756,33.379,13.349
			c111.505,0.846,138.203,8.959,164.591,13.056l0,0c1.203,0.195,2.374,0.374,3.398,0.553c1.203,0.179,2.293,0.455,3.382,0.764
			c10.471,2.878,17.608,10.552,22.291,20.486l0,0c0.602,1.252,1.17,2.537,1.675,3.838c0.016,0.048,0.032,0.13,0.065,0.179
			c0.488,1.284,0.943,2.585,1.365,3.902c0.049,0.097,0.066,0.228,0.114,0.358c0.423,1.268,0.797,2.504,1.122,3.837
			c0.048,0.211,0.081,0.44,0.162,0.65c0.309,1.204,0.585,2.439,0.846,3.691c0.081,0.341,0.162,0.715,0.195,1.041
			c0.228,1.122,0.439,2.26,0.634,3.415c0.097,0.536,0.162,1.089,0.244,1.642c0.146,0.976,0.276,1.919,0.406,2.862
			c0.082,0.976,0.179,1.951,0.293,2.91c0.032,0.553,0.113,1.122,0.146,1.658c0.114,1.528,0.228,3.073,0.276,4.601l0,0
			c0,0.017,0,0.017,0,0.017c37.331,17.056,41.445,23.966,43.363,41.006c3.009,1.658,5.008,3.723,6.276,5.95h5.382
			c2.878,0,5.187,2.309,5.187,5.187c0,2.845-2.309,5.17-5.187,5.17h-4.162c-1.333,5.089-5.154,9.154-9.007,9.154
			c-3.642,14.243-16.584,23.299-16.584,23.299l6.243,10.015c0,0-19.121,0-41.444,0c-22.357,0-26.876-11.967-30.129-28.469
			c-3.219-16.503-8.422-41.737-15.853-54.045c-7.446-12.276-34.94-39.802-75.068-39.802s-58.875,6.162-77.979,25.266
			c-19.088,19.072-26.226,54.322-29.445,70.207c-0.39,1.837-0.764,3.545-1.171,5.17c0,0.032,0,0.032,0,0.032
			c-0.178,0.667-0.341,1.269-0.504,1.886c-0.261,0.911-0.504,1.87-0.797,2.715c-0.179,0.586-0.423,1.122-0.618,1.675
			c-0.276,0.764-0.585,1.545-0.911,2.244c-0.227,0.487-0.504,0.959-0.764,1.43c-0.358,0.618-0.699,1.236-1.09,1.772
			c-0.309,0.406-0.618,0.813-0.959,1.203c-0.423,0.472-0.927,0.927-1.399,1.366c-0.374,0.326-0.764,0.602-1.154,0.894
			c-0.553,0.39-1.187,0.699-1.805,1.008c-0.423,0.196-0.862,0.455-1.334,0.602c-0.78,0.276-1.642,0.488-2.537,0.667
			c-0.439,0.097-0.829,0.227-1.317,0.292c-1.447,0.211-2.959,0.341-4.698,0.341H458.115c-1.658,0-3.154-0.178-4.471-0.488
			c-0.488-0.097-0.845-0.243-1.252-0.374c-0.829-0.26-1.626-0.504-2.292-0.877c-0.44-0.211-0.813-0.505-1.204-0.732
			c-0.569-0.407-1.138-0.797-1.626-1.269c-0.309-0.309-0.634-0.65-0.927-1.008c-0.406-0.504-0.813-1.041-1.187-1.609
			c-0.244-0.375-0.471-0.764-0.699-1.171c-0.341-0.65-0.65-1.317-0.927-2.048c-0.147-0.375-0.325-0.732-0.471-1.155
			c-0.31-0.911-0.586-1.854-0.846-2.845c-0.049-0.228-0.114-0.423-0.179-0.667c-0.309-1.252-0.602-2.536-0.878-3.886l0,0
			c-0.26-1.382-0.536-2.78-0.813-4.195c-2.277-11.317-9.073-34.974-19.43-52.761c-7.479-12.845-17.202-23.966-36.859-29.201
			c26.632,15.316,44.599,43.981,44.599,76.889c0,48.972-39.704,88.661-88.661,88.661c-48.972,0-88.677-39.689-88.677-88.661
			c0-24.698,10.113-47.021,26.404-63.085c-0.276,0.179-0.536,0.341-0.812,0.52c-17.787,11.967-30.096,37.234-35.267,53.395
			c-5.17,16.177-8.097,28.144-22.99,28.144c-55.898,0-73.394-25.364-73.394-35.672C145.257,663.053,147.55,660.744,150.428,660.744z
			 M670.492,536.28c-15.609-16.405-53.184-55.849-61.249-63.914c-1.626-1.626-2.991-3.252-4.195-4.683
			c-4.146-4.991-7.511-8.91-21.771-10.536l30.274,80.401C638.916,537.029,659.191,536.557,670.492,536.28z M605.324,537.776
			l-30.583-81.214c-2.601-0.13-5.463-0.163-8.617-0.163c-5.025,0-10.731,0.147-16.975,0.423c-49.704,2.342-52.5,6.861-88.986,13.495
			l26.942,70.548C541.329,539.971,560.059,538.752,605.324,537.776z M395.143,542.102c22.811,0,34.566-0.375,69.898-0.895
			l-25.462-66.775c-27.217,6-29.852,13.381-48.176,22.096c-53.851,25.657-54.794,34.908-54.436,36.469
			C337.18,533.939,340.627,542.102,395.143,542.102z M339.993,739.893c31.624,0,57.297-25.64,57.297-57.265
			c0-31.64-25.673-57.297-57.297-57.297s-57.281,25.657-57.281,57.297C282.711,714.253,308.369,739.893,339.993,739.893z"/>
		<path fill="#EFE6CC" d="M339.993,636.355c25.559,0,46.257,20.698,46.257,46.273c0,25.559-20.698,46.273-46.257,46.273
			c-25.543,0-46.273-20.714-46.273-46.273C293.719,657.053,314.449,636.355,339.993,636.355z"/>
	</g>
</g>
</svg>
