<svg width="1519" height="190" viewBox="0 0 1519 190" fill="none" xmlns="http://www.w3.org/2000/svg">
<g filter="url(#filter0_f_15_578)">
<path fill-rule="evenodd" clip-rule="evenodd" d="M1262 119.285C1122 129.224 940.789 138.75 760.55 138.75H757.78C565.127 138.75 371.366 127.866 228 117.228C651 193 829 201 1262 119.285Z" fill="white" fill-opacity="0.05" style="mix-blend-mode:overlay"/>
</g>
<path fill-rule="evenodd" clip-rule="evenodd" d="M0 94C0 94 381.01 135.63 757.79 135.63H760.56C1137.33 135.63 1518.34 94 1518.34 94V100.12C1518.34 100.12 1137.33 141.75 760.55 141.75H757.78C381.01 141.75 0 100.12 0 100.12V94Z" fill="url(#paint0_linear_15_578)"/>
<path opacity="0.5" fill-rule="evenodd" clip-rule="evenodd" d="M0 94.0001C0 94.0001 381.01 135.63 757.79 135.63H760.56C1137.33 135.63 1518.34 94.0001 1518.34 94.0001V0.120117C1518.34 0.120117 1137.33 41.7501 760.55 41.7501H757.78C381.01 41.7501 0 0.120117 0 0.120117V94.0001Z" fill="url(#paint1_linear_15_578)"/>
<defs>
<filter id="filter0_f_15_578" x="216" y="105.228" width="1058" height="84.1465" filterUnits="userSpaceOnUse" color-interpolation-filters="sRGB">
<feFlood flood-opacity="0" result="BackgroundImageFix"/>
<feBlend mode="normal" in="SourceGraphic" in2="BackgroundImageFix" result="shape"/>
<feGaussianBlur stdDeviation="6" result="effect1_foregroundBlur_15_578"/>
</filter>
<linearGradient id="paint0_linear_15_578" x1="0" y1="117.875" x2="1518.34" y2="117.875" gradientUnits="userSpaceOnUse">
<stop stop-color="#11112C" stop-opacity="0"/>
<stop offset="0.326673" stop-color="#1A297F"/>
<stop offset="0.515" stop-color="#6C1AB8"/>
<stop offset="0.685" stop-color="#202B8A"/>
<stop offset="1" stop-color="#202B8A" stop-opacity="0"/>
</linearGradient>
<linearGradient id="paint1_linear_15_578" x1="743" y1="136" x2="740" y2="53" gradientUnits="userSpaceOnUse">
<stop stop-color="#11112C"/>
<stop offset="1" stop-opacity="0"/>
</linearGradient>
</defs>
</svg>
