<?xml version="1.0" encoding="utf-8"?>
<!-- Generator: Adobe Illustrator 28.3.0, SVG Export Plug-In . SVG Version: 6.00 Build 0)  -->
<svg version="1.1" id="Layer_1" xmlns="http://www.w3.org/2000/svg" xmlns:xlink="http://www.w3.org/1999/xlink" x="0px" y="0px"
	 viewBox="0 0 100 100" style="enable-background:new 0 0 100 100;" xml:space="preserve">
<style type="text/css">
	.st0{clip-path:url(#SVGID_00000055708918494880374400000013674617881791634353_);}
	.st1{fill:none;}
	.st2{fill:url(#SVGID_00000134965885425978988330000008191203549317557888_);}
	.st3{fill:none;stroke:url(#SVGID_00000168800661727420187210000016392893136012965009_);stroke-width:4;stroke-opacity:0.12;}
	.st4{fill:#4285F4;}
	.st5{fill:#34A853;}
	.st6{fill:#FBBC04;}
	.st7{fill:#EA4335;}
</style>
<g>
	<defs>
		<rect id="SVGID_1_" width="100" height="100"/>
	</defs>
	<clipPath id="SVGID_00000090985265734509351490000007469195898534994607_">
		<use xlink:href="#SVGID_1_"  style="overflow:visible;"/>
	</clipPath>
	<g style="clip-path:url(#SVGID_00000090985265734509351490000007469195898534994607_);">
		<rect class="st1" width="100" height="100"/>
		
			<linearGradient id="SVGID_00000042700737993884512420000001983215546199209117_" gradientUnits="userSpaceOnUse" x1="50" y1="102" x2="50" y2="2" gradientTransform="matrix(1 0 0 -1 0 102)">
			<stop  offset="0" style="stop-color:#272C7D"/>
			<stop  offset="1" style="stop-color:#12143C"/>
		</linearGradient>
		<path style="fill:url(#SVGID_00000042700737993884512420000001983215546199209117_);" d="M30,0h40c16.6,0,30,13.4,30,30v40
			c0,16.6-13.4,30-30,30H30C13.4,100,0,86.6,0,70V30C0,13.4,13.4,0,30,0z"/>
		
			<linearGradient id="SVGID_00000132776588262182912110000002196853538174791863_" gradientUnits="userSpaceOnUse" x1="50" y1="102" x2="50" y2="2" gradientTransform="matrix(1 0 0 -1 0 102)">
			<stop  offset="0" style="stop-color:#FFFFFF"/>
			<stop  offset="1" style="stop-color:#202369"/>
		</linearGradient>
		
			<path style="fill:none;stroke:url(#SVGID_00000132776588262182912110000002196853538174791863_);stroke-width:4;stroke-opacity:0.12;" d="
			M30,2h40c15.5,0,28,12.5,28,28v40c0,15.5-12.5,28-28,28H30C14.5,98,2,85.5,2,70V30C2,14.5,14.5,2,30,2z"/>
	</g>
</g>
<g>
	<path id="path4524" class="st4" d="M69.1,30.9H38.6c-2.7,0-4.8,2.2-4.8,4.9v4.8H71c2.7,0,4.8,2.2,4.8,4.9v-7.8
		C75.8,33.9,72.8,30.9,69.1,30.9z"/>
	<path id="path4526" class="st5" d="M30.9,30.9c-3.7,0-6.7,3-6.7,6.8v16.7c0,2.7,2.2,4.9,4.8,4.9h4.8V35.7c0-2.7,2.2-4.9,4.8-4.9
		L30.9,30.9L30.9,30.9z"/>
	<path id="path4528" class="st6" d="M30.9,68.9h30.6c2.7,0,4.8-2.2,4.8-4.8v-4.9H29c-2.7,0-4.8-2.2-4.8-4.9v7.8
		C24.2,65.9,27.1,68.9,30.9,68.9z"/>
	<path id="path4530" class="st7" d="M69.1,68.9c3.7,0,6.7-3,6.7-6.8V45.4c0-2.7-2.2-4.8-4.8-4.8h-4.8v23.5c0,2.7-2.2,4.9-4.8,4.9
		h7.7V68.9z"/>
</g>
</svg>
