<svg width="278" height="55" viewBox="0 0 278 55" fill="none" xmlns="http://www.w3.org/2000/svg">
<path d="M121.28 12.8049V46.3863H126.595V25.6094L135.292 46.3863H140.607V12.8049H135.534V33.5819L126.836 12.8049H121.28Z" fill="white"/>
<path d="M143.99 12.8042V46.3856H159.935V41.0706H149.305V31.4069H157.278V26.0918H149.305V17.6361H158.727L159.694 12.321L143.99 12.8042Z" fill="white"/>
<path d="M101.469 12.8049V46.3863H106.784V35.5147L109.441 34.5483L114.032 46.3863H120.071L114.032 32.1324C117.172 29.958 118.622 27.0589 118.622 23.1934C118.622 15.704 112.34 12.8049 107.025 12.8049H101.469ZM106.784 18.12C110.408 18.12 113.307 20.0527 113.307 23.1934C113.307 26.0925 111.616 28.2669 108.233 29.7164L106.784 29.958V18.12Z" fill="white"/>
<path d="M85.7656 12.8049L79.001 46.3863H84.316L85.524 40.1049H93.0134L94.2213 46.3863H99.778L93.0134 12.8049H85.7656ZM89.3895 20.7775L92.047 34.7899H86.4904L89.3895 20.7775Z" fill="white"/>
<path d="M162.351 12.8049V46.3863H167.666V35.5147L170.323 34.5483L174.913 46.3863H180.953L174.913 32.1324C178.054 29.958 179.745 27.0589 179.745 23.1934C179.745 15.704 173.464 12.8049 168.149 12.8049H162.351ZM167.666 18.12C171.29 18.12 174.189 20.0527 174.189 23.1934C174.189 26.0925 172.497 28.2669 169.115 29.7164L167.666 29.958V18.12Z" fill="white"/>
<path d="M61.1231 46.3863H55.5665L48.5603 12.8049H54.1169L58.224 34.5483L62.3311 12.8049H67.4046L71.5116 34.5483L75.8603 12.8049H81.4169L74.4108 46.3863H68.8541L65.2302 25.1262L61.1231 46.3863Z" fill="white"/>
<path d="M211.394 12.8049V46.3863H216.709V35.5147L219.366 34.5483L223.956 46.3863H229.996L223.956 32.1324C227.097 29.958 228.547 26.8173 228.547 23.1934C228.547 15.704 222.265 12.8049 216.95 12.8049H211.394ZM216.709 18.12C220.332 18.12 223.232 20.0527 223.232 23.1934C223.232 26.0925 221.54 28.2669 218.158 29.7164L216.709 29.958V18.12Z" fill="white"/>
<path d="M190.134 12.8038V46.3853H195.449C202.213 46.3853 208.978 42.2782 208.978 35.272C208.978 30.4401 205.837 28.5074 203.663 27.541C205.113 26.3331 206.804 24.1587 206.804 21.018C206.804 16.1861 201.972 12.5623 195.69 12.5623L190.134 12.8038ZM195.449 18.1189C198.831 18.1189 201.247 19.81 201.247 22.226C201.247 24.6419 199.314 26.5746 196.898 27.0578L195.449 27.2994V18.1189ZM199.073 31.6481C201.005 31.6481 203.421 32.6145 203.421 35.272C203.421 39.3791 199.314 41.0702 196.174 41.0702H195.449V32.1313L197.865 31.6481C198.106 31.6481 198.59 31.6481 199.073 31.6481Z" fill="white"/>
<path d="M240.868 12.321C235.07 12.321 230.238 16.9113 230.238 29.4741C230.238 42.037 235.07 46.6272 240.868 46.6272C246.908 46.8688 251.498 41.7954 251.498 29.7157C251.498 17.3945 246.908 12.321 240.868 12.321ZM240.868 17.6361C243.767 17.6361 245.942 21.26 245.942 29.7157C245.942 37.9299 243.767 41.7954 240.868 41.7954C237.969 41.7954 235.795 38.1715 235.795 29.7157C235.795 21.26 238.211 17.6361 240.868 17.6361Z" fill="white"/>
<path d="M261.645 46.8688C257.779 46.8688 253.672 44.2113 252.222 38.8963L256.813 36.2387C257.537 38.6547 258.987 41.5538 261.886 41.5538C264.06 41.5538 265.51 39.8626 265.51 37.9299C265.51 31.4069 253.672 30.9237 253.672 21.0184C253.672 16.1865 257.296 12.321 262.128 12.321C266.476 12.321 269.617 15.2202 270.825 19.3272L265.993 22.2264C265.752 20.2936 264.302 17.6361 261.886 17.6361C259.953 17.6361 258.987 19.0856 258.987 20.5352C258.987 26.575 270.825 27.783 270.825 37.2051C271.067 42.5202 267.201 46.8688 261.645 46.8688Z" fill="white"/>
<path d="M274.691 40.105C272.999 40.105 271.55 41.5545 271.55 43.2457C271.55 44.9368 272.999 46.3864 274.691 46.3864C276.382 46.3864 277.831 44.9368 277.831 43.2457C278.073 41.5545 276.623 40.105 274.691 40.105Z" fill="white"/>
<path d="M31.6487 23.1931C30.4407 23.1931 29.4743 23.6763 26.092 26.0922V38.8967C31.8903 32.3736 33.5814 28.025 33.5814 25.609C33.5814 24.1595 32.8567 23.1931 31.6487 23.1931Z" fill="white"/>
<path d="M32.1319 14.7369C32.1319 12.5625 29.4743 10.6298 26.092 10.3882V22.2262C30.4407 19.5687 32.1319 17.1528 32.1319 14.7369Z" fill="white"/>
<path d="M42.5204 9.66372C42.5204 9.42212 42.5204 9.42212 42.2788 9.42212L38.1717 8.21416L37.6885 5.79823C37.6885 5.79823 37.6885 5.55664 37.4469 5.55664L33.3398 4.34867L32.8566 2.17434C32.8566 1.93274 32.8566 1.93274 32.6151 1.93274L21.7434 0C21.5018 0 21.2602 0 21.2602 0L10.3885 1.93274C10.1469 1.93274 10.1469 2.17434 10.1469 2.17434L9.66372 4.34867L5.55663 5.55664C5.55663 5.55664 5.31504 5.55664 5.31504 5.79823L4.83186 8.21416L0.724768 9.42212C0.724768 9.42212 0.483179 9.42212 0.483179 9.66372C0.241586 11.5965 0 13.2876 0 15.2204C0 31.6487 8.45574 45.9027 21.2602 54.3584C21.5018 54.3584 21.5018 54.6 21.7434 54.6C21.985 54.6 21.985 54.6 22.2265 54.3584C35.031 45.9027 43.4867 31.6487 43.4867 15.2204C43.0036 13.2876 42.762 11.3549 42.5204 9.66372ZM19.3274 46.869C16.1867 43.2451 14.0124 38.8965 12.5628 34.0646L10.3885 35.5142C9.9053 35.9973 9.42212 35.7558 8.93893 35.031C6.03982 29.9575 4.10707 21.5018 4.10707 15.4619C4.10707 15.2204 4.10707 14.9788 4.34866 14.7372C5.07344 13.7708 6.03981 13.046 6.76459 12.0796C7.00619 11.8381 7.0062 12.0796 7.0062 12.3212C7.0062 19.569 8.21415 26.3336 10.1469 30.9239C10.3885 31.1655 10.3885 31.1655 10.6301 31.1655L11.3549 30.6823C10.1469 25.3673 9.42213 18.3611 9.66372 10.1469C9.66372 9.90531 9.66372 9.66372 9.90531 9.66372C10.8717 9.18053 11.5965 8.69734 12.5628 8.21416C12.8044 8.21416 12.8044 8.21416 12.8044 8.45575C12.5628 20.2938 13.5292 28.508 15.7035 35.031C15.7035 35.2726 15.9451 35.031 15.9451 35.031C15.9451 32.615 15.9451 30.4407 15.9451 28.0248V7.48938C15.9451 7.24779 15.9451 7.24779 16.1867 7.00619C17.1531 6.7646 18.1195 6.52301 19.0858 6.52301C19.0858 6.52301 19.0858 6.52301 19.3274 6.52301C19.3274 6.52301 19.3274 6.52301 19.3274 6.7646V46.869C19.569 46.869 19.569 46.869 19.3274 46.869ZM23.1929 46.869C22.9513 46.869 22.9513 46.869 23.1929 46.869L22.9513 6.7646C22.9513 6.7646 22.9513 6.7646 22.9513 6.52301C22.9513 6.28142 22.9513 6.52301 23.1929 6.52301C30.9239 7.00619 35.7558 10.1469 35.7558 14.7372C35.7558 16.6699 35.031 18.6027 33.823 19.8106C36.2389 20.5354 37.2053 22.4681 37.2053 24.8841C36.9637 29.4743 33.823 36.9637 23.1929 46.869Z" fill="white"/>
</svg>
