<svg width="100" height="100" viewBox="0 0 100 100" fill="none" xmlns="http://www.w3.org/2000/svg">
<g clip-path="url(#clip0_89_5)">
<rect width="100" height="100" fill=""/>
<rect width="100" height="100" rx="30" fill="url(#paint0_linear_89_5)"/>
<rect x="2" y="2" width="96" height="96" rx="28" stroke="url(#paint1_linear_89_5)" stroke-opacity="0.12" stroke-width="4"/>
<path d="M50 25.1375C36.025 25.1375 24.8125 36.35 24.8125 50.325C24.8125 64.3 36.025 75.5125 50 75.5125C63.975 75.5125 75.1875 64.3 75.1875 50.325C75.1875 36.35 63.8125 25.1375 50 25.1375ZM55.3625 58.45V60.2374H49.025V40.25H50.8125V58.45H55.3625ZM63.4875 63.8124C59.9125 67.3875 55.0375 69.3374 50 69.3374C44.9625 69.3374 40.0875 67.3875 36.5125 63.8124C32.9375 60.2374 30.9875 55.3625 30.9875 50.325C30.9875 39.7625 39.6 31.15 50 31.15C50.1625 31.15 50.65 31.15 50.975 31.15V32.9375C50.8125 32.9375 50.325 32.9375 50 32.9375C45.45 32.9375 41.0625 34.725 37.8125 37.975C34.5625 41.225 32.775 45.6125 32.775 50.1625C32.775 54.7125 34.5625 59.1 37.8125 62.35C41.0625 65.6 45.45 67.3875 50 67.3875C59.1 67.3875 66.7375 60.2374 67.225 51.2999C67.225 51.2999 67.225 51.1375 67.225 50.975H55.3625V49.1875H68.2H69.0125V50C69.0125 55.3625 67.0625 60.2374 63.4875 63.8124ZM45.45 43.0125C45.45 44.475 44.15 45.775 42.6875 45.775C41.225 45.775 39.925 44.6375 39.925 43.0125C39.925 41.55 41.225 40.25 42.6875 40.25C44.15 40.25 45.45 41.55 45.45 43.0125Z" fill="white"/>
</g>
<defs>
<linearGradient id="paint0_linear_89_5" x1="50" y1="0" x2="50" y2="100" gradientUnits="userSpaceOnUse">
<stop stop-color="#272C7D"/>
<stop offset="1" stop-color="#12143C"/>
</linearGradient>
<linearGradient id="paint1_linear_89_5" x1="50" y1="0" x2="50" y2="100" gradientUnits="userSpaceOnUse">
<stop stop-color="white"/>
<stop offset="1" stop-color="#202369"/>
</linearGradient>
<clipPath id="clip0_89_5">
<rect width="100" height="100" fill="white"/>
</clipPath>
</defs>
</svg>
