<svg width="190" height="70" viewBox="0 0 190 70" fill="none" xmlns="http://www.w3.org/2000/svg">
<path fill-rule="evenodd" clip-rule="evenodd" d="M174.791 14.7245C174.997 15.0167 174.783 15.4211 174.426 15.4211H169.257C169.13 15.4211 169.011 15.3664 168.929 15.2704C163.471 8.96902 155.427 4.98208 146.447 4.98208C145.737 4.98208 145.029 5.00768 144.328 5.0589C144.086 5.07694 143.876 4.89828 143.857 4.65619L143.528 0.573803C143.508 0.32822 143.69 0.110571 143.935 0.0925301C144.766 0.0308434 145.601 0 146.447 0C158.163 0 168.518 5.81718 174.791 14.7245ZM149.027 69.0606C149.046 69.3068 148.862 69.525 148.616 69.5407C147.899 69.5885 147.177 69.61 146.447 69.61C134.606 69.61 124.146 63.6642 117.889 54.5823C117.687 54.2902 117.902 53.8886 118.257 53.8886H123.395C123.523 53.8886 123.644 53.9462 123.727 54.0446C129.176 60.5211 137.332 64.6337 146.447 64.6337C147.047 64.6337 147.644 64.6163 148.234 64.579C148.475 64.5639 148.683 64.742 148.702 64.9835L149.027 69.0606ZM112.562 28.831C112.562 28.6808 112.551 28.5313 112.541 28.3974C112.53 28.2584 112.514 28.1297 112.486 28.0011C112.466 27.9162 112.449 27.83 112.434 27.7497C112.423 27.7014 112.413 27.6595 112.396 27.6106C112.359 27.4983 112.322 27.386 112.279 27.2737V27.2685C112.273 27.2522 112.269 27.2312 112.257 27.2149C111.959 26.5084 111.473 25.9253 110.833 25.4865C110.326 25.1653 109.733 24.9465 109.056 24.8388C108.789 24.7853 108.495 24.7696 108.202 24.7696H103.789C103.613 24.7696 103.469 24.9086 103.469 25.085V32.5927C103.469 32.7528 103.618 32.9029 103.799 32.9029H108.202C108.778 32.9029 109.312 32.8174 109.787 32.6567C110.469 32.4478 111.057 32.0893 111.494 31.6185C111.558 31.5598 111.617 31.501 111.665 31.4317C111.772 31.2973 111.878 31.1582 111.97 31.0139C112.284 30.5006 112.486 29.8954 112.541 29.232C112.551 29.1092 112.562 28.9747 112.562 28.831ZM120.801 50.2078H115.417C115.236 50.2078 115.07 50.1007 114.989 49.9401C114.531 49.0834 112.951 45.1029 112.279 40.8331C112.012 39.1583 110.588 37.9164 108.895 37.9164H104.125C103.762 37.9164 103.469 38.2114 103.469 38.5693V49.8924C103.469 50.0629 103.335 50.2078 103.154 50.2078H97.7905C97.6194 50.2078 97.4757 50.0687 97.4757 49.8924V20.0662C97.4757 19.7025 97.769 19.4028 98.1373 19.4028H108.597C109.434 19.4028 110.24 19.4773 110.977 19.6379C111.532 19.745 112.065 19.8899 112.562 20.0767C113.154 20.2909 113.72 20.5638 114.237 20.8798C114.285 20.906 114.318 20.9275 114.36 20.9543C114.403 20.9758 114.44 21.0078 114.483 21.0346C115.561 21.7248 116.436 22.6233 117.098 23.6673C117.664 24.5554 118.08 25.5511 118.309 26.6155C118.373 26.8617 118.41 27.1235 118.447 27.3749C118.522 27.8516 118.554 28.3387 118.554 28.831C118.554 30.5856 118.123 32.0789 117.402 33.2986C117.381 33.3312 117.359 33.3685 117.343 33.4005C116.793 34.3159 116.068 35.0806 115.251 35.6852C115.219 35.7015 115.203 35.7283 115.177 35.744C115.177 35.744 115.193 35.7545 115.208 35.7655C115.219 35.7707 115.24 35.7707 115.262 35.7818C115.411 35.8569 115.758 35.9529 116.169 36.2206C116.954 36.7292 117.434 37.5905 117.546 38.5216C117.626 39.142 117.717 39.7623 117.828 40.3728C118.149 42.16 118.618 43.9047 119.227 45.5795C119.718 46.9489 120.4 48.4206 121.089 49.7207C121.212 49.9401 121.052 50.2078 120.801 50.2078ZM155.589 32.2086L151.963 31.693C150.714 31.5184 149.714 31.0395 149.117 30.4785C148.465 29.8709 148.208 29.0521 148.208 28.2694C148.208 26.1517 149.759 24.375 152.954 24.375C154.91 24.375 157.14 24.6235 159.031 26.2989C159.159 26.4095 159.343 26.4095 159.463 26.2902L162.823 22.9673C162.951 22.8381 162.942 22.6262 162.814 22.5064C160.234 20.1134 157.223 19.1462 153.128 19.1462C146.482 19.1462 142.424 22.9946 142.424 28.4905C142.424 31.086 143.159 33.0746 144.628 34.5469C146.005 35.8819 147.951 36.7112 150.576 37.097L154.294 37.6126C155.717 37.8338 156.406 38.137 157.012 38.6985C157.654 39.3061 157.957 40.2087 157.957 41.2952C157.957 43.7621 156.057 45.1058 152.522 45.1058C149.787 45.1058 147.243 44.4983 145.325 42.7123C145.205 42.593 145.013 42.593 144.894 42.7123L141.451 46.1644C141.322 46.2936 141.332 46.4955 141.451 46.6247C144.425 49.5153 147.896 50.4633 152.44 50.4633C158.866 50.4633 163.824 47.0938 163.824 41.1195C163.824 38.3948 163.089 36.149 161.455 34.5842C160.161 33.3778 158.388 32.5956 155.589 32.2086ZM176.983 24.7556V24.7498C177.021 24.7341 177.059 24.7282 177.103 24.7282H188.863C189.038 24.7282 189.175 24.5798 189.175 24.4157V19.6781C189.175 19.5029 189.033 19.3603 188.858 19.3603H171.095C170.921 19.3603 170.778 19.5029 170.778 19.6781V49.8516C170.778 50.0233 170.918 50.1635 171.089 50.1635H188.863C189.038 50.1635 189.175 50.0157 189.175 49.8516V45.1087C189.175 44.9359 189.036 44.7962 188.863 44.7962H177.103C177.021 44.7962 176.95 44.763 176.896 44.7188C176.825 44.6589 176.781 44.5716 176.781 44.4837V37.6761C176.781 37.5032 176.92 37.3635 177.092 37.3635H185.713C185.884 37.3635 186.023 37.2233 186.023 37.0516L186.018 32.3029C186.018 32.1272 185.876 31.9904 185.702 31.9904H185.161L178.409 31.9962H177.103C176.929 31.9962 176.781 31.8484 176.781 31.6837V25.0402C176.781 24.9086 176.869 24.7992 176.983 24.7556ZM134.254 19.6781V49.8516C134.254 50.0157 134.118 50.1635 133.942 50.1635H128.578C128.404 50.1635 128.256 50.0157 128.256 49.8516V19.6833C128.256 19.5058 128.401 19.3603 128.578 19.3603H133.937C134.112 19.3603 134.254 19.5029 134.254 19.6781ZM89.7193 19.3603H85.2185C85.1039 19.3603 85.0049 19.4203 84.9508 19.5081L76.413 33.2067C76.2931 33.4092 76.0091 33.4092 75.8776 33.2177L67.2857 19.5081C67.2316 19.4203 67.1332 19.3603 67.0232 19.3603H62.5335C62.356 19.3603 62.2111 19.5058 62.2111 19.6833V49.8516C62.2111 50.0157 62.3589 50.1635 62.5335 50.1635H67.8921C68.0667 50.1635 68.2028 50.0157 68.2028 49.8516V33.234C68.2028 32.9326 68.6073 32.8011 68.7825 33.0589L75.8619 43.5084C75.9923 43.6952 76.2547 43.6952 76.3857 43.5084L83.4715 33.0571C83.6449 32.8011 84.0441 32.9244 84.0441 33.234V49.8516C84.0441 50.0157 84.1861 50.1635 84.3607 50.1635H89.7245C89.8997 50.1635 90.0365 50.0157 90.0365 49.8516V19.6781C90.0365 19.5023 89.8945 19.3603 89.7193 19.3603ZM56.2711 44.7956H44.4284C44.2544 44.7956 44.1124 44.6531 44.1124 44.4779V19.6781C44.1124 19.5023 43.9698 19.3603 43.7953 19.3603H38.4372C38.2597 19.3603 38.1143 19.5058 38.1143 19.6839V49.8516C38.1143 50.0157 38.2621 50.1635 38.4372 50.1635H56.2711C56.4457 50.1635 56.5825 50.0157 56.5825 49.8516V45.1087C56.5825 44.9359 56.4428 44.7956 56.2711 44.7956ZM30.9347 19.3603H25.5767C25.4021 19.3603 25.2596 19.5035 25.2596 19.6781V49.8516C25.2596 50.0157 25.4074 50.1635 25.582 50.1635H30.94C31.1151 50.1635 31.2519 50.0157 31.2519 49.8516V19.6781C31.2519 19.5023 31.1099 19.3603 30.9347 19.3603ZM18.3966 19.6781V24.4157C18.3966 24.5798 18.2604 24.7282 18.0853 24.7282H6.30892C6.13667 24.7282 5.99758 24.8673 5.99758 25.0402V31.6569C5.99758 31.8211 6.14481 31.9689 6.31998 31.9689L14.9614 31.9799C15.1336 31.9799 15.2727 32.1196 15.2727 32.2924V37.0243C15.2727 37.1878 15.1365 37.3368 14.9614 37.3368H6.31998C6.14249 37.3368 5.99758 37.4817 5.99758 37.6592V49.8516C5.99758 50.0233 5.85733 50.1635 5.68624 50.1635H0.321819C0.147233 50.1635 0 50.0157 0 49.8516V19.6839C0 19.5052 0.144324 19.3603 0.321819 19.3603H18.0795C18.2552 19.3603 18.3966 19.5023 18.3966 19.6781Z" fill="white"/>
</svg>
