<svg width="100" height="100" viewBox="0 0 100 100" fill="none" xmlns="http://www.w3.org/2000/svg">
<g clip-path="url(#clip0_89_5)">
<rect width="100" height="100" fill=""/>
<rect width="100" height="100" rx="30" fill="url(#paint0_linear_89_5)"/>
<rect x="2" y="2" width="96" height="96" rx="28" stroke="url(#paint1_linear_89_5)" stroke-opacity="0.12" stroke-width="4"/>
<path d="M14 56.9935L18.96 50.3376L14.56 44.1688H16.4C17.52 44.1688 17.92 44.6558 18.32 45.1428L20.56 48.3084L22.72 45.3863C23.6 44.25 23.84 44.0876 25.12 44.0876H26.72L22.16 50.2565L30.96 62.4318H29.04C27.92 62.4318 27.52 61.9448 27.2 61.5389L20.48 52.448L17.76 56.1818C17.44 56.6688 16.88 57.0747 15.92 57.0747H14V56.9935Z" fill="white"/>
<path d="M32.56 56.9935H30.08V46.5227H27.12L28.72 44.1688H30.08V42.9513C30.08 38.5681 34.16 37.4318 36.48 38.2435L35.92 40.5974C34.24 40.2727 32.56 40.8409 32.56 43.5194V44.3311H35.84V46.685H32.56V56.9935ZM40.4 44.1688V56.9935H37.84V44.1688H40.4ZM43.44 56.9935V44.1688H46V45.4675C46 45.4675 47.28 43.9253 49.92 43.9253C53.04 43.9253 54.96 46.2792 54.96 49.4448V56.9935H53.52C52.72 56.9935 52.4 56.3441 52.4 55.8571V50.013C52.4 47.5779 51.12 46.4415 49.28 46.4415C46.96 46.4415 45.92 48.3084 45.92 48.3084V57.0746H43.44V56.9935ZM60.48 44.1688V56.9935H57.92V44.1688H60.48ZM62.56 46.5227V44.1688H65.28V40.2727L67.84 39.2175V44.3311H70.32L71.36 46.685H67.84V52.6915C67.84 54.4772 69.44 55.2889 71.28 54.8019L71.84 57.0746C71.84 57.0746 71.12 57.3182 70 57.3182C66.96 57.3182 65.28 55.3701 65.28 52.7727V46.6039L62.56 46.5227ZM72.4 44.1688H73.68C75.12 44.1688 75.44 44.6558 75.92 45.6298L78.8 51.8798L82.24 45.3052C82.72 44.5746 83.04 44.1688 84.4 44.1688H85.68L76.72 60.8896C76.08 61.9448 75.76 62.3506 74.4 62.3506H73.04L77.28 54.4772L72.4 44.1688Z" fill="white"/>
</g>
<defs>
<linearGradient id="paint0_linear_89_5" x1="50" y1="0" x2="50" y2="100" gradientUnits="userSpaceOnUse">
<stop stop-color="#272C7D"/>
<stop offset="1" stop-color="#12143C"/>
</linearGradient>
<linearGradient id="paint1_linear_89_5" x1="50" y1="0" x2="50" y2="100" gradientUnits="userSpaceOnUse">
<stop stop-color="white"/>
<stop offset="1" stop-color="#202369"/>
</linearGradient>
<clipPath id="clip0_89_5">
<rect width="100" height="100" fill="white"/>
</clipPath>
</defs>
</svg>
