<svg width="100" height="100" viewBox="0 0 100 100" fill="none" xmlns="http://www.w3.org/2000/svg">
<g clip-path="url(#clip0_89_5)">
<rect width="100" height="100" fill=""/>
<rect width="100" height="100" rx="30" fill="url(#paint0_linear_89_5)"/>
<rect x="2" y="2" width="96" height="96" rx="28" stroke="url(#paint1_linear_89_5)" stroke-opacity="0.12" stroke-width="4"/>
<path d="M59.6354 44.9857C57.8392 48.5857 56.1073 51.9928 54.4394 55.4C54.0545 56.1071 53.6697 56.8786 53.3489 57.5857C53.0282 58.2286 52.515 58.4857 51.9377 58.1643C51.2962 57.8428 51.2962 57.3286 51.6169 56.75C53.9904 52.0571 56.3639 47.3 58.7373 42.6071C58.9298 42.2214 59.2505 41.8357 59.8278 41.8357C60.341 41.8357 60.6617 42.35 60.8542 42.7357C63.2276 47.3643 65.537 51.9928 67.8463 56.6214C68.167 57.2643 68.2953 57.7786 67.5897 58.2286C67.0124 58.55 66.3709 58.2928 65.986 57.5214C64.0616 53.6643 62.1371 49.8071 60.2127 45.95C60.0203 45.6286 59.8278 45.3714 59.6354 44.9857Z" fill="white"/>
<path d="M21.5316 55.0785C22.109 53.9214 22.6222 52.9571 23.0712 51.9928C24.6107 48.8428 26.1503 45.7571 27.6898 42.6071C27.8181 42.3499 28.0106 41.9642 28.2671 41.8999C28.5879 41.8357 29.1652 41.8357 29.3577 42.0285C29.5501 42.2857 29.6784 42.8642 29.4859 43.1857C28.5879 45.1785 27.5615 47.1071 26.5993 49.0999C25.2522 51.7999 23.9051 54.4999 22.558 57.1999C22.3656 57.5857 21.9165 58.0999 21.4675 58.1642C20.826 58.3571 20.5694 57.7142 20.3128 57.1999C18.0677 52.6357 15.7584 48.0071 13.5132 43.3785C13.0642 42.4785 13.3207 41.8357 14.0905 41.7714C14.6678 41.7071 14.9886 42.0285 15.2452 42.4785C16.7847 45.6285 18.3884 48.8428 19.9921 51.9928C20.4411 52.9571 20.9543 53.9214 21.5316 55.0785Z" fill="white"/>
<path d="M31.6029 50C31.6029 47.6215 31.6029 45.1786 31.6029 42.8C31.6029 42.0929 31.7953 41.5786 32.6292 41.5786C33.399 41.5786 33.5914 42.1572 33.5914 42.8643C33.5914 47.6215 33.6556 52.4429 33.7197 57.2C33.7197 58.1 33.399 58.55 32.6934 58.55C31.8594 58.4858 31.667 57.9072 31.667 57.2C31.6029 54.7572 31.6029 52.3786 31.6029 50Z" fill="white"/>
<path d="M51.4244 48.65C50.9754 44.3429 47.8963 41.5143 43.5984 41.5143C41.9947 41.5143 40.4552 41.5143 38.8515 41.5143C37.5685 41.5143 37.1195 41.9 37.1195 43.25C37.1195 45.5 37.1195 47.6857 37.1195 49.9357C37.1195 52.3143 37.1195 54.6286 37.1195 57.0071C37.1195 58.0357 37.5685 58.4214 38.5949 58.4214C40.3269 58.4214 42.1872 58.4214 43.9192 58.3571C47.2548 58.2929 49.6924 56.4929 50.8471 53.3429C51.4244 51.8643 51.5527 50.3214 51.4244 48.65ZM47.5756 55.1429C46.6134 56.1714 45.3304 56.6214 43.9192 56.6214C42.5721 56.6214 41.1608 56.6214 39.8137 56.6214C39.1722 56.6214 39.0439 56.3643 39.0439 55.7857C39.0439 53.7929 39.0439 51.8643 39.0439 49.8714C39.0439 47.9429 39.0439 46.0143 39.0439 44.0857C39.0439 43.4429 39.2364 43.1857 39.8779 43.25C40.9684 43.3143 42.123 43.25 43.2135 43.25C47.1265 43.1214 49.051 45.8214 49.4359 48.8429C49.7566 51.2214 49.3076 53.4071 47.5756 55.1429Z" fill="white"/>
<path d="M77.3401 44.9857C75.544 48.5857 73.812 51.9928 72.1441 55.4C71.7592 56.1071 71.3744 56.8786 71.0536 57.5857C70.7329 58.2286 70.2197 58.4857 69.6424 58.1643C69.0009 57.8428 69.0009 57.3286 69.3216 56.75C71.6951 52.0571 74.0686 47.3 76.442 42.6071C76.6345 42.2214 76.9552 41.8357 77.5325 41.8357C78.0457 41.8357 78.3665 42.35 78.5589 42.7357C80.9324 47.3643 83.2417 51.9928 85.551 56.6214C85.8717 57.2643 86 57.7786 85.2944 58.2286C84.7171 58.55 84.0756 58.2928 83.6907 57.5214C81.7663 53.6643 79.8418 49.8071 77.9174 45.95C77.725 45.6286 77.5967 45.3714 77.3401 44.9857Z" fill="white"/>
</g>
<defs>
<linearGradient id="paint0_linear_89_5" x1="50" y1="0" x2="50" y2="100" gradientUnits="userSpaceOnUse">
<stop stop-color="#272C7D"/>
<stop offset="1" stop-color="#12143C"/>
</linearGradient>
<linearGradient id="paint1_linear_89_5" x1="50" y1="0" x2="50" y2="100" gradientUnits="userSpaceOnUse">
<stop stop-color="white"/>
<stop offset="1" stop-color="#202369"/>
</linearGradient>
<clipPath id="clip0_89_5">
<rect width="100" height="100" fill="white"/>
</clipPath>
</defs>
</svg>
