<svg width="100" height="100" viewBox="0 0 100 100" fill="none" xmlns="http://www.w3.org/2000/svg">
<g clip-path="url(#clip0_89_5)">
<rect width="100" height="100" fill=""/>
<rect width="100" height="100" rx="30" fill="url(#paint0_linear_89_5)"/>
<rect x="2" y="2" width="96" height="96" rx="28" stroke="url(#paint1_linear_89_5)" stroke-opacity="0.12" stroke-width="4"/>
<path fill-rule="evenodd" clip-rule="evenodd" d="M75 64.8H69.7999L62 43.1H67.0999L72.5 59.8H72.5999L77.7999 43.1H82.5999L75 64.8ZM59.7 46.7H55.5V58.3C55.5 58.8 55.4999 59.3 55.5999 59.6C55.5999 60 55.7 60.3 55.9 60.5C56 60.8 56.3 60.9 56.5 61.1C56.8 61.2 57.1999 61.3 57.7999 61.3C58.0999 61.3 58.3999 61.3 58.7999 61.3C59.0999 61.3 59.3999 61.2 59.7999 61.2V64.9C59.2999 65 58.7999 65 58.2999 65.1C57.7999 65.1 57.2999 65.2 56.7999 65.2C55.5999 65.2 54.5999 65.1 53.7999 64.9C52.9999 64.6 52.5 64.3 52 63.9C51.6 63.4 51.2999 62.9 51.0999 62.2C50.9999 61.5 50.8999 60.7 50.7999 59.8V46.7H47.2999V43.2H50.7999V36.7H55.5V43.2H59.7V46.7ZM40 61.9C38.7 63.8 37.3999 65.7 35.2999 65.7C33.1999 65.7 32.6 64.5 30.2 64.5C27.8 64.5 27.0999 65.7 25.0999 65.8C23.0999 65.9 21.5 63.8 20.2 61.9C17.6 58.1 15.4999 51.1 18.2999 46.3C19.6999 43.9 22.1 42.5 24.7 42.4C26.7 42.4 28.5999 43.7 29.7999 43.7C30.9999 43.7 33.2 42.1 35.7 42.3C36.7 42.4 39.4999 42.7 41.2999 45.4C41.1999 45.5 37.9 47.4 38 51.3C38 56 42.0999 57.5 42.0999 57.6C42.0999 57.6 41.5 59.7 40 61.9ZM31.2 36.4C32.4 35 34.3 34 36 34C36.2 35.9 35.3999 37.8 34.2999 39.1C33.1999 40.5 31.3 41.5 29.5 41.4C29.3 39.6 30.2 37.6 31.2 36.4Z" fill="white"/>
</g>
<defs>
<linearGradient id="paint0_linear_89_5" x1="50" y1="0" x2="50" y2="100" gradientUnits="userSpaceOnUse">
<stop stop-color="#272C7D"/>
<stop offset="1" stop-color="#12143C"/>
</linearGradient>
<linearGradient id="paint1_linear_89_5" x1="50" y1="0" x2="50" y2="100" gradientUnits="userSpaceOnUse">
<stop stop-color="white"/>
<stop offset="1" stop-color="#202369"/>
</linearGradient>
<clipPath id="clip0_89_5">
<rect width="100" height="100" fill="white"/>
</clipPath>
</defs>
</svg>
