<?xml version="1.0" encoding="utf-8"?>
<!-- Generator: Adobe Illustrator 28.3.0, SVG Export Plug-In . SVG Version: 6.00 Build 0)  -->
<svg version="1.1" id="Layer_1" xmlns="http://www.w3.org/2000/svg" xmlns:xlink="http://www.w3.org/1999/xlink" x="0px" y="0px"
	 viewBox="0 0 39.5 29" style="enable-background:new 0 0 39.5 29;" xml:space="preserve">
<style type="text/css">
	.st0{fill:#A292FF;}
	.st1{fill:#8377F7;}
</style>
<path id="path4524" class="st0" d="M33.6,0.6H11.5C9.6,0.6,8,2.2,8,4.1v3.5h26.9c1.9,0,3.5,1.6,3.5,3.5V5.5
	C38.4,2.8,36.2,0.6,33.6,0.6z"/>
<path id="path4526" class="st1" d="M5.9,0.6c-2.7,0-4.8,2.2-4.8,4.9v12.1c0,1.9,1.6,3.5,3.5,3.5H8V4.1c0-1.9,1.6-3.5,3.5-3.5H5.9z"
	/>
<path id="path4528" class="st0" d="M5.9,28H28c1.9,0,3.5-1.6,3.5-3.5V21H4.6c-1.9,0-3.5-1.6-3.5-3.5v5.7C1.1,25.8,3.2,28,5.9,28z"/>
<path id="path4530" class="st1" d="M33.6,28c2.7,0,4.8-2.2,4.8-4.9V11.1c0-1.9-1.6-3.5-3.5-3.5h-3.5v16.9c0,1.9-1.6,3.5-3.5,3.5
	H33.6z"/>
</svg>
