<svg width="100" height="100" viewBox="0 0 100 100" fill="none" xmlns="http://www.w3.org/2000/svg">
<g clip-path="url(#clip0_89_5)">
<rect width="100" height="100" fill=""/>
<rect width="100" height="100" rx="30" fill="url(#paint0_linear_89_5)"/>
<rect x="2" y="2" width="96" height="96" rx="28" stroke="url(#paint1_linear_89_5)" stroke-opacity="0.12" stroke-width="4"/>
<path d="M87.719 46C86.2244 42.1428 82.1679 39.7857 78.1825 40.2857C74.5529 40.7857 71.4927 43.3571 70.4963 46.9285C70.354 47.5714 70.2117 48.2143 70.0693 48.8571C70.0693 48.7143 70.0693 48.6428 70.0693 48.5C69.9982 47.7143 69.9982 46.9285 69.8558 46.2143C69.5 44.2143 68.5036 42.5714 66.7956 41.5C65.6569 40.7857 64.3759 40.4285 63.0237 40.2857C61.031 40.1428 59.2518 40.5714 57.6861 41.8571C57.3303 42.1428 56.9744 42.5 56.6898 42.8571C54.3412 39.7857 49.2883 39.2857 46.7263 42.2857C46.7263 41.7857 46.7263 41.2857 46.7263 40.7857C45.1606 40.7857 43.5949 40.7857 42.0292 40.7857C42.0292 40.9285 42.0292 41 42.0292 41.0714C42.0292 44.5 42.0292 48 42.0292 51.4285C42.0292 52.7857 41.531 53.9285 40.3212 54.5714C39.4671 55.0714 38.6131 55.1428 37.688 55C36.5493 54.7857 35.8376 54.1428 35.4106 53.1428C35.1971 52.6428 35.1259 52.0714 35.1259 51.5C35.1259 48 35.1259 44.5714 35.1259 41.0714C35.1259 41 35.1259 40.8571 35.1259 40.7857C35.0547 40.7857 34.9836 40.7857 34.8412 40.7857C31.6387 40.7143 28.4361 40.7143 25.2336 40.7143C25.0912 40.7143 25.0201 40.7857 24.8777 40.8571C24.0237 42 23.2409 43.0714 22.3869 44.2143C21.9598 44.7857 21.4617 45.4285 21.0347 46.0714C20.9635 46 20.8923 45.8571 20.8212 45.7857C19.6113 44.1428 18.4015 42.5 17.1916 40.9285C17.1204 40.7857 17.0493 40.7143 16.9069 40.7143C15.1989 40.7143 13.4909 40.7143 11.7828 40.7143C11.854 40.7857 11.854 40.8571 11.9252 40.9285C14.0602 43.7857 16.1241 46.5714 18.2591 49.3571C18.4015 49.5 18.4015 49.6428 18.2591 49.8571C16.3376 52.4285 14.4161 55 12.4945 57.5714C12.1387 58.0714 11.7828 58.5714 11.3558 59.0714C11.4982 59.0714 11.5693 59.0714 11.6405 59.0714C13.2062 59.0714 14.8431 59.0714 16.4088 59.0714C16.6223 59.0714 16.6934 59 16.8358 58.8571C17.7609 57.5714 18.7573 56.2857 19.6825 55.0714C20.1095 54.4285 20.6077 53.8571 21.1058 53.2143C21.177 53.2857 21.2482 53.3571 21.2482 53.4285C22.6004 55.2857 23.9526 57.0714 25.3047 58.9285C25.3759 59.0714 25.5182 59.1428 25.6606 59.1428C27.2974 59.1428 28.8631 59.1428 30.5 59.1428C30.5712 59.1428 30.6423 59.1428 30.7135 59.1428C28.365 56 26.0164 52.8571 23.6679 49.7143C25.9452 46.7143 28.0803 43.7143 30.3577 40.7143C30.3577 40.8571 30.3577 41 30.3577 41.0714C30.3577 44.5 30.3577 48 30.3577 51.4285C30.3577 52.1428 30.4288 52.9285 30.5712 53.6428C30.8558 55.1428 31.4963 56.5 32.635 57.5714C33.9872 58.8571 35.5529 59.4285 37.4033 59.4285C38.969 59.4285 40.3923 59 41.6022 57.9285C41.8157 57.7857 41.958 57.5714 42.1004 57.3571H42.1715C42.1715 57.8571 42.1715 58.4285 42.1715 58.9285C43.6661 58.9285 45.1606 58.9285 46.6551 58.9285C46.6551 58.7857 46.6551 58.7143 46.6551 58.6428C46.6551 55.2143 46.6551 51.7143 46.6551 48.2857C46.6551 47.2143 46.9398 46.2857 47.7226 45.5714C48.5766 44.7143 49.6442 44.5 50.7828 44.6428C51.7792 44.7857 52.562 45.2143 53.0602 46.1428C53.4161 46.7857 53.5584 47.5 53.5584 48.2143C53.5584 51.7143 53.5584 55.2143 53.5584 58.6428C53.5584 58.7143 53.5584 58.8571 53.5584 58.9285C55.1241 58.9285 56.6898 58.9285 58.2555 58.9285C58.2555 58.7857 58.2555 58.7143 58.2555 58.6428C58.2555 55.2143 58.2555 51.7857 58.2555 48.3571C58.2555 47 58.7536 45.8571 59.8923 45.1428C60.8175 44.5714 61.8139 44.5 62.8102 44.7143C63.8066 44.9285 64.4471 45.5 64.8741 46.4285C65.1588 47 65.2299 47.5714 65.2299 48.2143C65.2299 51.7143 65.2299 55.2143 65.2299 58.6428C65.2299 58.7143 65.2299 58.8571 65.2299 58.9285C66.7956 58.9285 68.3613 58.9285 69.927 58.9285C69.927 56.2143 69.927 53.5 69.927 50.8571C69.9982 51.2143 70.0693 51.5 70.1405 51.8571C70.9233 56.1428 74.4817 59.2143 78.7518 59.3571C82.3102 59.5 85.0858 58 86.9361 54.9285C88.7865 52.2143 88.9288 49.1428 87.719 46ZM83.6624 50.5714C83.5201 51.7857 83.1642 52.8571 82.3102 53.7857C80.4598 55.7857 77.2573 55.5714 75.6916 53.2857C74.9799 52.2857 74.6952 51.1428 74.6952 49.8571C74.6952 48.5714 75.0511 47.3571 75.8339 46.2857C77.6843 43.8571 81.0292 44 82.7372 46.5C83.5912 47.7857 83.8047 49.1428 83.6624 50.5714Z" fill="#05B2B6"/>
</g>
<defs>
<linearGradient id="paint0_linear_89_5" x1="50" y1="0" x2="50" y2="100" gradientUnits="userSpaceOnUse">
<stop stop-color="#272C7D"/>
<stop offset="1" stop-color="#12143C"/>
</linearGradient>
<linearGradient id="paint1_linear_89_5" x1="50" y1="0" x2="50" y2="100" gradientUnits="userSpaceOnUse">
<stop stop-color="white"/>
<stop offset="1" stop-color="#202369"/>
</linearGradient>
<clipPath id="clip0_89_5">
<rect width="100" height="100" fill="white"/>
</clipPath>
</defs>
</svg>
