<svg width="100" height="100" viewBox="0 0 100 100" fill="none" xmlns="http://www.w3.org/2000/svg">
<g clip-path="url(#clip0_89_5)">
<rect width="100" height="100" fill=""/>
<rect width="100" height="100" rx="30" fill="url(#paint0_linear_89_5)"/>
<rect x="2" y="2" width="96" height="96" rx="28" stroke="url(#paint1_linear_89_5)" stroke-opacity="0.12" stroke-width="4"/>
<path d="M86.4057 43.1428L82.3414 48.5428L78.3636 43.1428H76.4612L81.3902 49.7428L76.0288 57.1143H77.8448L82.3414 51.0285L86.8381 57.1143H88.7406L83.2927 49.7428L88.2217 43.1428H86.4057Z" fill="#92FFA3"/>
<path d="M51.7294 57.1143L46.2816 49.7428L51.2971 43.1428H49.3946L45.4168 48.5428L41.3525 43.1428H39.5365L44.4656 49.7428L39.0177 57.1143H40.9201L45.4168 51.0285L49.9135 57.1143H51.7294Z" fill="#92FFA3"/>
<path d="M62.02 50.3429C61.7605 50.0858 61.4146 49.9144 61.0687 49.7429C62.1064 49.2287 62.7982 48.1144 62.7982 46.9144C62.7982 46.0572 62.4523 43.1429 58.2151 43.1429H52.5078V49.1429H50.6053C50.3459 49.4858 49.8271 50.2572 49.5676 50.5144H52.5078V57.0287H58.2151C61.3282 57.0287 63.2306 55.4858 63.2306 52.9144C63.3171 51.8858 62.8847 51.0287 62.02 50.3429ZM54.0643 44.6001H58.2151C59.3392 44.6001 61.2417 44.8572 61.2417 46.8287C61.2417 48.2858 60.1175 49.1429 58.2151 49.1429H54.0643V44.6001ZM58.2151 55.6572H54.0643V50.6001H58.2151C59.7716 50.6001 61.6741 51.0287 61.6741 53.0001C61.6741 55.3144 59.5122 55.6572 58.2151 55.6572Z" fill="#92FFA3"/>
<path d="M70.7539 42.8C66.7761 42.8 64.0089 45.8 64.0089 50.0858C64.0089 54.3715 66.7761 57.3715 70.7539 57.3715C74.7317 57.3715 77.4989 54.3715 77.4989 50.0858C77.4125 45.8 74.7317 42.8 70.7539 42.8ZM70.7539 55.9143C67.7273 55.9143 65.6519 53.5143 65.6519 50.0858C65.6519 46.6572 67.7273 44.2572 70.7539 44.2572C73.7805 44.2572 75.8559 46.6572 75.8559 50.0858C75.8559 53.5143 73.7805 55.9143 70.7539 55.9143Z" fill="#92FFA3"/>
<path d="M23.02 42.3715C24.836 41.0858 26.7384 40.3143 27.8626 40.2286C28.5544 40.1429 29.3326 40.2286 29.8515 40.4001C27.9491 39.0286 25.6142 38.2572 23.1065 38.2572C20.5123 38.2572 18.091 39.1143 16.1021 40.5715C16.1885 40.5715 18.1774 39.2858 23.02 42.3715Z" fill="#92FFA3"/>
<path d="M34.867 50.0001C34.867 46.5715 33.3104 43.4001 30.8892 41.2572C29.765 41.2572 29.3326 41.6858 28.7273 42.0286C28.3814 42.2858 26.9978 43.4858 25.7007 44.7715C26.5654 45.7143 27.3437 46.8286 28.2949 47.9429C29.9379 49.9143 32.6186 54.4572 32.0998 57.3715C33.9158 55.4001 34.867 52.8286 34.867 50.0001Z" fill="#92FFA3"/>
<path d="M19.9069 45.2001C20.0799 45.0287 20.2528 44.8572 20.4258 44.6858C18.8692 43.2287 17.4856 41.943 17.1397 41.8572C16.6209 41.6001 15.9291 41.1715 15.4967 41.0858C12.989 43.2287 11.3459 46.4001 11.3459 50.0001C11.3459 52.743 12.2972 55.2287 13.8537 57.2001C13.3349 53.1715 17.7451 47.7715 19.9069 45.2001Z" fill="#92FFA3"/>
<path d="M23.193 47.0858C23.1065 47.0858 23.0201 47.0858 22.9336 47.1715C21.6365 48.2001 15.6697 54.2858 14.8915 56.0001C14.4591 56.8572 14.3726 57.543 14.4591 57.8858C16.621 60.2001 19.734 61.6572 23.1065 61.6572C26.5655 61.6572 29.7651 60.1144 31.9269 57.7144C31.9269 57.543 32.0134 56.2572 29.8515 53.6858C27.5167 51.0287 25.5278 49.0572 23.193 47.0858Z" fill="#92FFA3"/>
</g>
<defs>
<linearGradient id="paint0_linear_89_5" x1="50" y1="0" x2="50" y2="100" gradientUnits="userSpaceOnUse">
<stop stop-color="#272C7D"/>
<stop offset="1" stop-color="#12143C"/>
</linearGradient>
<linearGradient id="paint1_linear_89_5" x1="50" y1="0" x2="50" y2="100" gradientUnits="userSpaceOnUse">
<stop stop-color="white"/>
<stop offset="1" stop-color="#202369"/>
</linearGradient>
<clipPath id="clip0_89_5">
<rect width="100" height="100" fill="white"/>
</clipPath>
</defs>
</svg>
