<svg width="261" height="66" viewBox="0 0 261 66" fill="none" xmlns="http://www.w3.org/2000/svg">
<path fill-rule="evenodd" clip-rule="evenodd" d="M182.968 60.2123L184.532 56.6835L186.096 60.2123H182.968ZM184.932 55.7817H184.133H184.107L181.018 62.7509H181.844L182.655 60.9195H186.41L187.221 62.7509H188.046L184.958 55.7817H184.932ZM47.9664 0C72.5155 0 92.7569 18.4404 95.5927 42.2258C94.7171 40.7994 94.467 40.6976 94.0132 40.4803C93.5593 40.2631 93.3025 39.7503 92.5136 39.6122C91.7238 39.4741 90.6191 39.198 89.7906 38.4284C88.9621 37.6588 87.897 36.9878 87.2655 36.7116C86.634 36.4354 86.2593 36.1592 85.6472 35.6263C85.0359 35.0941 84.2663 34.5813 82.5495 33.7916C80.8335 33.0026 79.5309 32.5682 78.7024 32.0158C77.8739 31.4635 76.2952 30.4379 75.1315 29.6683C73.9671 28.8988 72.843 28.3658 72.4288 28.2875C72.0145 28.2083 70.0409 28.2875 69.5483 28.2875C69.0549 28.2875 68.7981 28.1098 67.8904 27.7149C66.9828 27.32 65.3257 26.6894 64.7928 26.4519C64.2606 26.2153 63.8262 26.2751 63.55 27.0641C63.2738 27.853 62.8789 28.7607 62.761 28.9577C62.6423 29.1556 62.2087 29.9251 62.0108 30.102C61.8138 30.2796 61.7347 30.5954 61.5966 31.5232C61.4585 32.4503 60.8472 37.3431 60.8472 37.3431L60.8194 37.3673L60.6297 37.5324C60.4153 37.7185 60.09 37.999 59.8806 38.1716C59.5446 38.4478 59.5059 38.6844 59.2491 39.4741L59.0504 40.0691C58.6761 41.1768 58.0115 43.1092 57.7697 43.9325C57.4734 44.9387 57.0785 46.8525 57.0987 47.4646C54.9676 47.6819 53.4486 47.8587 53.468 48.2342C53.4882 48.6089 55.1452 48.8059 59.0125 48.9642C60.9457 49.0429 64.6993 49.1612 68.5491 49.3092L70.474 49.3856C73.669 49.517 76.7312 49.6678 78.6629 49.8323C79.8221 49.9308 81.1243 50.0244 82.4506 50.1116L83.7805 50.1966C87.3247 50.4171 90.7578 50.5881 91.8232 50.6802C93.4212 50.8183 93.9736 51.262 93.9736 51.262C93.9736 51.262 87.5559 54.3959 80.7038 55.0922C73.8517 55.7877 68.4992 55.6808 65.1262 56.1093C61.754 56.5371 53.9917 57.5011 53.9917 58.5713C53.9917 59.6423 59.452 59.6954 62.3965 59.5354C65.3409 59.3746 69.891 59.1068 69.9979 59.9631C70.1049 60.8194 62.825 62.479 60.3083 62.5329C57.7925 62.5859 52.5469 62.4259 49.3347 63.7108C46.1233 64.9948 41.9479 66.7083 39.7528 65.6912C37.0593 64.4425 36.5407 63.6569 31.3481 63.7639C26.1564 63.8708 25.567 63.4431 25.4601 63.0145C25.3531 62.5859 34.0787 61.4619 37.1831 61.6766C40.2883 61.8904 41.2516 61.9974 41.4124 61.1941C41.5732 60.3917 39.7528 58.6782 33.8109 58.2505C27.869 57.8219 24.1222 56.8587 24.1222 56.8587C24.1222 56.8587 18.3402 57.5853 12.8799 55.6959C7.42045 53.8073 3.77969 53.8604 3.51278 53.4857C3.24503 53.111 8.16898 51.8219 11.1134 51.827C12.741 51.8287 14.1033 51.6838 14.169 51.262C14.2355 50.8402 12.741 50.2474 11.8628 50.1152C10.9838 49.9839 10.6983 49.6765 12.1482 49.4787C13.5981 49.2808 19.002 49.0173 22.6706 49.3684C26.3391 49.7203 31.9628 50.665 36.6198 50.5985C41.2768 50.5328 41.8267 50.1598 41.8267 49.6319C41.8267 49.1048 40.8163 48.2704 37.9821 48.0507C36.0927 47.9041 31.4599 47.9822 26.6419 48.031L25.0325 48.0459C23.1551 48.0611 21.2926 48.0677 19.5956 48.0507C18.1586 48.0362 16.4082 48.0292 14.5513 48.027L11.3933 48.0274C6.29618 48.0338 1.25849 48.0645 0.201934 48.0712L0 48.0725V47.9665C0 21.4749 21.4758 0 47.9664 0ZM63.1141 35.7695C63.2059 37.2025 62.7259 39.6595 62.5617 40.1217C62.3976 40.5848 61.9799 41.6154 61.8452 42.0036C61.7105 42.3917 61.6962 42.6452 61.7703 43.1386C61.8452 43.6311 61.5716 44.5422 61.537 45.3185C61.5123 45.8619 61.3889 46.5704 61.3171 46.9465L61.2717 47.176C61.2674 47.1968 61.2651 47.2079 61.2651 47.2079H59.9482C59.9996 47.234 60.6445 43.3625 60.8954 42.3555C61.1379 41.3813 61.9926 39.6241 62.4666 37.8955C62.6381 37.272 62.9624 36.2456 63.0747 35.8929L63.1141 35.7695ZM64.675 27.1625C64.675 27.1625 68.9758 29.0368 69.5678 29.0957C70.1597 29.1555 72.1325 29.1951 72.4878 29.2144C72.8431 29.2338 73.7701 29.9251 74.5195 30.4572C75.2697 30.9902 78.5055 33.3772 79.1168 33.5945C79.7289 33.8117 83.6349 35.6657 84.444 36.08C85.2532 36.4951 87.0483 37.6192 87.897 38.1126C88.7449 38.606 89.6526 39.6122 90.4019 40.1056C91.1522 40.5981 91.2902 40.8356 91.9613 41.0132C92.6315 41.19 92.6517 41.723 92.8488 41.782C93.0458 41.8417 93.6773 41.8215 93.855 42.512C94.0326 43.2032 95.256 44.5841 95.7688 45.6888V46.1822H95.453C95.453 46.1822 94.9425 45.5272 94.4126 44.8004L94.0619 44.3117C94.0048 44.2306 93.9488 44.1502 93.8945 44.0713C93.2437 43.1241 92.73 42.7881 92.2375 42.4134C91.7441 42.0388 91.3492 41.8215 91.3492 41.8215C91.3492 41.8215 91.0537 43.3211 91.073 43.7354C91.0932 44.1496 91.5858 45.0177 91.7837 45.4522C91.9807 45.8858 92.336 46.3994 92.336 46.3994H91.6456C91.6456 46.3994 91.3298 45.8269 90.8558 44.9394C90.3826 44.0511 90.2445 43.7354 90.1258 42.7688C90.0079 41.8022 89.9288 41.3483 89.9288 41.3483C88.5479 40.6183 88.3307 40.2234 88.0149 40.0458C87.6992 39.8681 87.3438 39.8294 87.3438 39.8294C87.3438 39.8294 87.897 40.6377 87.9955 40.9341C88.0941 41.2296 88.1336 41.782 88.1134 42.453C88.0941 43.1241 88.153 43.7556 88.4098 44.3079C88.6658 44.8603 89.3368 46.5569 89.3368 46.5569H88.3113C88.3113 46.5569 87.6395 45.4861 87.2897 44.8982L87.1864 44.7222C86.89 44.2094 86.89 44.1303 86.89 42.8083C86.89 41.4864 86.7326 40.7168 86.6138 40.2436C86.496 39.7696 86.3377 39.3755 86.3377 39.3755L83.6551 38.6455C83.6551 38.6455 84.4836 40.7564 84.6806 41.3677C84.8777 41.9798 85.2532 42.3149 85.2726 42.8673C85.2919 43.4196 85.3517 44.1101 85.8838 44.8401C86.4168 45.5701 86.9692 46.5569 86.9692 46.5569H85.7457C85.7457 46.5569 85.1345 45.3932 84.6613 44.6237C84.1872 43.8541 84.0694 43.4196 83.8125 42.2956C83.5557 41.1707 82.8459 38.9807 82.8459 38.9807L81.2083 38.4477C81.2083 38.4477 81.2672 40.1056 81.4053 40.7168C81.5434 41.3281 81.9778 42.2358 82.4713 42.8673C82.9638 43.4988 83.5953 44.5049 84.1872 45.1162C84.7791 45.7284 85.233 46.4188 85.233 46.4188L84.3851 47.1092H83.5759C83.5759 47.1092 82.8855 45.5111 82.1555 44.0115C81.4255 42.512 80.6357 40.9341 80.6357 40.9341C80.6357 40.9341 80.5178 39.7696 80.4589 39.2964C80.3991 38.8232 80.4589 38.4477 80.4589 38.4477L78.1502 37.3826C78.1502 37.3826 78.5838 40.7168 78.6629 41.3088C78.7421 41.9007 78.8995 42.1575 78.8995 42.1575L79.0064 42.2641C79.308 42.5677 80.161 43.4453 80.4193 43.913C80.7351 44.4856 82.5698 47.1092 82.5698 47.1092H80.3006C80.3006 47.1092 79.8938 46.0124 79.5519 45.141L79.3386 44.6079C79.2742 44.4511 79.2182 44.3198 79.1757 44.2288C78.8995 43.6369 78.9197 43.4196 78.4263 43.2815C77.9329 43.1435 77.9725 43.0256 77.7948 42.3351C77.6172 41.6439 77.2231 40.2234 77.2231 40.2234L77.341 37.0474L75.9602 36.4749L75.1712 35.0351L68.8773 33.2989C68.8773 33.2989 68.1271 34.897 67.9107 35.3702C67.6935 35.8434 67.5748 36.6719 67.5352 37.087C67.4965 37.5013 66.8052 38.6649 66.8052 38.6649C66.8052 38.6649 67.0814 37.2445 67.1412 36.2972C67.2001 35.35 67.1605 35.0149 67.4569 34.3438C67.7524 33.6736 68.3048 32.7264 68.3048 32.7264C68.3048 32.7264 67.7129 31.6612 66.8052 31.0095C65.8984 30.3587 65.6811 30.1617 65.405 29.3727C65.2041 28.7983 64.9093 27.8904 64.7634 27.4378L64.6857 27.1962C64.6787 27.1742 64.675 27.1625 64.675 27.1625ZM63.9353 39.5542L63.4579 42.3025L63.9353 43.4813C63.9353 43.4813 63.7568 44.0344 63.5926 44.6609C63.4276 45.2882 62.8154 47.1094 62.8154 47.1094H61.9945C62.5915 45.6898 62.7557 44.0942 62.786 43.6008C62.8154 43.1083 62.8752 42.4667 63.0546 41.9589C63.1143 41.7897 63.2321 41.4661 63.3626 41.1098L63.5622 40.5662C63.7599 40.0285 63.9353 39.5542 63.9353 39.5542ZM167.585 30.1772C169.931 30.1772 171.834 31.9378 171.834 34.1092C171.834 36.2807 169.931 38.0413 167.585 38.0413H160.805V30.1772H167.585ZM160.805 40.2238H166.425L172.105 47.9709H174.969L169.159 40.0478C172.048 39.3936 174.192 36.9838 174.192 34.1092C174.192 30.7329 171.234 27.9947 167.585 27.9947H160.805H159.971H158.44V47.9709H160.805V40.2238ZM202.483 47.9713H204.848V27.9951H202.483V47.9713ZM144.803 30.3663L149.259 40.493H140.347L144.803 30.3663ZM139.356 42.7436H150.25L152.549 47.9715H154.915L145.872 27.9953H145.846H143.76H143.735L134.692 47.9715H137.057L139.356 42.7436ZM118.999 37.0134L110.285 23.9129H107.536V47.9214H110.285V28.5531L118.903 41.332H119.096L127.714 28.5531V47.9214H130.463V23.9129H127.714L118.999 37.0134ZM206.722 59.5825L204.194 55.781H203.395V62.7476H204.194V57.1281L206.694 60.8354H206.75L209.251 57.1281V62.7476H210.049V55.781H209.251L206.722 59.5825ZM195.881 23.9133L187.35 44.6886L178.819 23.9133H175.755L186.122 48.1812H188.577L198.945 23.9133H195.881ZM251.896 27.9953L260.939 47.9715H258.575L256.274 42.7436H245.382L243.081 47.9715H240.716L249.76 27.9953H251.896ZM241.561 27.995V30.3601H234.895V47.9712H232.53V30.3601H225.931V27.995H241.561ZM250.828 30.3663L246.372 40.493H255.284L250.828 30.3663ZM167.53 56.5426H169.895C170.714 56.5426 171.378 57.1564 171.378 57.9142C171.378 58.672 170.714 59.2867 169.895 59.2867H167.53V56.5426ZM172.2 57.9142C172.2 56.7363 171.168 55.7815 169.895 55.7815H167.53H167.238H166.705V62.7506H167.53V60.0478H169.491L171.472 62.7506H172.471L170.443 59.9847C171.451 59.7565 172.2 58.9179 172.2 57.9142ZM216.725 46.2428C214.24 46.2428 212.574 45.6088 209.974 43.4213L208.595 45.0826C208.595 45.0826 211.284 48.256 216.464 48.256C221.644 48.256 223.487 45.4202 223.487 42.661C223.487 39.9026 222.091 38.1446 216.619 36.89C213.775 36.2383 211.611 35.2414 211.611 33.3301C211.611 31.4188 213.107 29.8501 216.171 29.8501C219.234 29.8501 221.537 31.982 221.537 31.982L222.861 30.2913C222.861 30.2913 220.312 27.7915 216.145 27.7915C211.244 27.7915 209.357 30.8302 209.357 33.3301C209.357 35.8299 210.76 37.849 214.869 38.7828C219.154 39.757 221.235 40.5148 221.235 42.8757C221.235 44.963 219.209 46.2428 216.725 46.2428ZM135.199 55.7814H134.829V62.7505H135.199H135.654H139.942V62.0466H135.654V59.5577H139.471V58.8538H135.654V56.4853H139.942V55.7814H135.654H135.199ZM159.341 55.7814H158.97V62.7505H159.341H159.795H164.083V62.0466H159.795V59.5577H163.612V58.8538H159.795V56.4853H164.083V55.7814H159.795H159.341ZM213.456 55.7814H213.085V62.7505H213.456H213.911H218.198V62.0466H213.911V59.5577H217.727V58.8538H213.911V56.4853H218.198V55.7814H213.911H213.456ZM147.657 61.2288L143.365 55.7811H142.54V62.7503H143.365V57.0155L147.657 62.5053L147.849 62.7503H148.483V55.7811H147.657V61.2288ZM199.616 61.2288L195.323 55.7811H194.498V62.7503H195.323V57.0155L199.725 62.6442L199.808 62.7503H200.441V55.7811H199.616V61.2288ZM225.987 61.2288L221.695 55.7811H220.87V62.7503H221.695V57.0155L226.096 62.6442L226.179 62.7503H226.812V55.7811H225.987V61.2288ZM153.299 55.7814H150.987V56.6065H153.299V62.7505H154.124V56.6065H156.516V55.7814H154.124H153.299ZM190.589 62.7507H191.414V55.7815H190.589V62.7507ZM176.717 55.7814H174.405V56.6065H176.717V62.7505H177.542V56.6065H179.934V55.7814H177.542H176.717ZM231.678 55.7814H229.366V56.6065H231.678V62.7505H232.503V56.6065H234.896V55.7814H232.503H231.678Z" fill="white"/>
</svg>
