<svg width="100" height="100" viewBox="0 0 100 100" fill="none" xmlns="http://www.w3.org/2000/svg">
<g clip-path="url(#clip0_89_5)">
<rect width="100" height="100" fill=""/>
<rect width="100" height="100" rx="30" fill="url(#paint0_linear_89_5)"/>
<rect x="2" y="2" width="96" height="96" rx="28" stroke="url(#paint1_linear_89_5)" stroke-opacity="0.12" stroke-width="4"/>
<path d="M76.322 46.0071C76.6 45.6357 76.9708 45.2642 77.2488 44.9857C78.361 43.6857 79.4732 42.3857 80.6781 41.1785C81.3269 40.4357 81.9757 39.6928 82.6244 38.95C83.3659 38.1142 84.2927 37.8357 85.3122 38.2071C86.3318 38.4857 86.9805 39.2285 87.1659 40.25C87.3513 41.0857 87.0732 41.7357 86.6098 42.3857C85.4976 43.5928 84.3854 44.8928 83.3659 46.1C82.2537 47.3071 81.1415 48.6071 80.0293 49.8142C79.9366 49.9071 79.9366 50 80.0293 50.0928C80.9561 51.2071 81.9757 52.2285 82.9025 53.3428C84.1074 54.7357 85.4049 56.1285 86.6098 57.6142C87.9074 59.1928 87.1659 61.5142 85.1269 61.8857C84.2 62.0714 83.3659 61.7928 82.7171 61.0499C81.5122 59.7499 80.4 58.45 79.2878 57.15C78.361 56.1285 77.5269 55.1071 76.6 54.0857C76.5074 53.9928 76.5074 53.9928 76.4147 53.9C76.1366 54.2714 75.7659 54.5499 75.4879 54.9214C73.7269 56.9642 71.9659 58.9142 70.2049 60.9571C69.1854 62.0714 67.6098 62.1642 66.4976 61.2357C65.3854 60.3071 65.2 58.6357 66.1269 57.5214C66.961 56.5 67.8879 55.5714 68.722 54.5499C70.0196 53.0642 71.4098 51.5785 72.7074 49.9999C72.8 49.9071 72.8 49.8142 72.7074 49.7214C71.2244 48.0499 69.7415 46.3785 68.2586 44.6142C67.5171 43.7785 66.8683 43.0357 66.1269 42.2C65.2 41.0857 65.3854 39.3214 66.4976 38.4857C67.6098 37.7428 69.0927 37.8357 70.0196 38.8571C71.1318 40.0642 72.1513 41.2714 73.2635 42.4785C74.1903 43.5928 75.2098 44.6142 76.1366 45.7285C76.1366 45.8214 76.2293 45.9142 76.322 46.0071Z" fill="#28E825"/>
<path d="M24.883 37.5571C27.0147 37.5571 29.0537 38.1143 30.9074 39.2286C31.9269 39.7857 32.2976 40.8071 32.2049 41.8286C32.0196 43.0357 31.2781 43.8714 30.1659 44.0571C29.5171 44.2428 28.8683 44.0571 28.2196 43.7786C27.5708 43.4071 26.8293 43.1286 26.0879 42.9428C23.3074 42.2928 20.3415 43.5 18.6732 46.0071C17.7464 47.4 17.283 48.9786 17.4683 50.65C17.7464 53.4357 19.2293 55.4786 21.7318 56.5928C23.9561 57.6143 26.0879 57.4286 28.2196 56.2214C29.7952 55.2928 31.7415 56.1286 32.1122 57.8928C32.3903 58.9143 31.8342 60.1214 30.9074 60.6786C29.3318 61.6071 27.6635 62.1643 25.8098 62.35C22.9366 62.6286 20.2488 61.9786 17.7464 60.4C16.1708 59.3786 14.8732 58.0786 13.8537 56.4071C12.9269 54.9214 12.3708 53.25 12.0927 51.4857C12 48.4214 12.6488 45.6357 14.3171 43.0357C15.8927 40.8071 17.8391 39.2286 20.3415 38.3C21.4537 37.9286 22.5659 37.65 23.7708 37.5571C24.1415 37.5571 24.5122 37.5571 24.883 37.5571Z" fill="#28E825"/>
<path d="M48.3317 37.5572C41.8439 37.7429 36.3756 43.1286 36.3756 50C36.3756 56.8715 42.0293 62.7215 49.2585 62.4429C55.7463 62.1643 61.122 56.8715 61.2146 50C61.2146 43.1286 55.561 37.2786 48.3317 37.5572ZM48.8878 57.15C44.9024 57.2429 41.5659 53.9929 41.5659 49.9072C41.5659 46.0072 44.8098 42.85 48.6098 42.7572C52.6878 42.7572 55.9317 46.0072 55.839 50C55.9317 53.9 52.6878 57.0572 48.8878 57.15Z" fill="#28E825"/>
</g>
<defs>
<linearGradient id="paint0_linear_89_5" x1="50" y1="0" x2="50" y2="100" gradientUnits="userSpaceOnUse">
<stop stop-color="#272C7D"/>
<stop offset="1" stop-color="#12143C"/>
</linearGradient>
<linearGradient id="paint1_linear_89_5" x1="50" y1="0" x2="50" y2="100" gradientUnits="userSpaceOnUse">
<stop stop-color="white"/>
<stop offset="1" stop-color="#202369"/>
</linearGradient>
<clipPath id="clip0_89_5">
<rect width="100" height="100" fill="white"/>
</clipPath>
</defs>
</svg>
