<svg width="351" height="48" viewBox="0 0 351 48" fill="none" xmlns="http://www.w3.org/2000/svg">
<path fill-rule="evenodd" clip-rule="evenodd" d="M173.477 22.6046C174.299 22.1936 175.121 22.6046 175.943 23.0156C177.587 23.4265 177.587 25.0705 175.943 26.3035C175.607 26.6391 175.289 26.9747 174.977 27.3034L174.977 27.3034C173.761 28.5845 172.646 29.7593 171.011 30.4134C170.6 30.8244 170.189 31.2354 169.367 31.6464C170.6 33.2904 171.422 34.9343 172.244 36.5783C173.066 37.8113 173.477 39.4552 173.888 41.0992C174.13 41.8251 173.944 42.4085 173.751 43.0172C173.616 43.4425 173.477 43.88 173.477 44.3871H173.066V43.5652C171.422 46.8531 168.545 47.2641 165.257 46.8531C163.202 46.4421 161.147 46.0311 159.503 45.2091C159.41 45.1469 159.314 45.0847 159.217 45.0217L159.216 45.0209C158.034 44.2526 156.689 43.3777 157.448 41.0992C157.118 41.3191 156.818 41.5096 156.539 41.6864L156.538 41.6871L156.538 41.6872C155.775 42.1709 155.173 42.5524 154.571 43.1542C153.749 43.9762 152.516 44.7981 151.283 45.2091C150.716 45.7766 149.952 45.9523 149.128 46.142C148.759 46.227 148.377 46.3149 147.995 46.4421C145.94 47.2641 144.296 46.4421 142.652 44.7981C141.008 46.0311 138.953 46.4421 136.898 46.4421C134.843 46.4421 132.788 44.3871 132.377 42.3322C132.377 41.9212 132.275 41.6129 132.172 41.3047C132.069 40.9965 131.966 40.6882 131.966 40.2772C131.35 40.8937 130.631 41.5102 129.912 42.1267C129.192 42.7432 128.473 43.3597 127.857 43.9761C125.802 45.6201 123.336 46.4421 120.87 45.6201C120.048 45.2091 119.637 45.2091 119.226 45.2091C116.76 45.2091 115.527 42.7432 115.527 40.6882V38.2223C114.294 39.0442 113.061 40.2772 112.239 41.0992C109.773 43.9762 106.896 45.2091 103.608 45.2091C102.375 45.2091 101.142 44.7981 100.32 44.3871C99.0871 43.5652 98.6761 42.7432 98.6761 41.5102V38.6333C96.6212 39.0442 94.9772 39.0442 93.3332 37.4003C91.2783 40.2772 88.4013 42.3322 85.1134 43.9761C82.2364 45.6201 78.9485 46.0311 75.6606 45.2091C74.4276 45.2091 73.6056 43.1542 74.0166 41.5102V39.4552L72.7836 40.6882C72.4816 40.9903 72.1795 41.317 71.8714 41.6503C70.9218 42.6774 69.9149 43.7665 68.6737 44.3871C66.2078 46.0311 63.7418 46.8531 60.8649 46.8531C60.4199 46.8531 59.8544 46.4917 59.2337 46.095C58.7079 45.759 58.1424 45.3976 57.5769 45.2091C55.933 46.0311 53.878 46.8531 51.823 46.4421C50.8275 46.1103 49.564 45.2425 48.4653 44.488L48.465 44.4878L48.4644 44.4873C48.2027 44.3076 47.9503 44.1343 47.7131 43.9761C47.3021 43.9761 47.3021 43.5652 47.3021 43.1542C47.0966 42.5377 46.9939 42.0239 46.8911 41.5102C46.7884 40.9965 46.6856 40.4827 46.4801 39.8662C46.2014 39.0301 46.3007 38.0049 46.3935 37.047V37.047C46.4376 36.5925 46.4801 36.1531 46.4801 35.7563C46.4801 35.1398 46.7884 34.6261 47.0966 34.1123C47.4049 33.5986 47.7131 33.0849 47.7131 32.4684C47.994 31.9066 47.891 31.153 47.7976 30.4697V30.4697L47.7976 30.4696C47.7543 30.1531 47.7131 29.8517 47.7131 29.5914H47.3021C44.8362 30.0024 42.3702 30.8244 40.7262 32.4684C40.3153 33.0849 39.9043 33.8041 39.4933 34.5233C39.0823 35.2426 38.6713 35.9618 38.2603 36.5783C38.0663 36.8693 37.8494 37.1832 37.6204 37.5145L37.6203 37.5148C36.8791 38.5875 36.0113 39.8433 35.3834 41.0992C34.8158 41.6667 34.6401 42.4301 34.4505 43.2542L34.4505 43.2543L34.4505 43.2544C34.3654 43.6238 34.2776 44.0055 34.1504 44.3871C34.1504 45.2091 33.3284 46.0311 32.9174 46.0311C31.6844 46.4421 30.0405 46.8531 28.3965 46.8531C27.1635 46.8531 26.7525 45.6201 27.1635 44.3871C27.9855 41.9212 29.2185 39.4552 30.4514 37.4003C30.6569 36.7838 31.0679 36.3728 31.4789 35.9618C31.8899 35.5508 32.3009 35.1398 32.5064 34.5233C33.7394 32.8794 34.9724 30.8244 35.7943 29.1804C36.2053 28.7694 36.6163 27.9475 36.6163 27.1255C37.0273 25.8925 36.2053 25.8925 35.7943 25.8925C33.8764 26.4405 33.0544 27.7191 32.2324 28.9978L32.2324 28.9978C31.8214 29.6371 31.4104 30.2764 30.8624 30.8244C29.3831 32.5996 28.1167 34.5878 26.91 36.4824C26.4405 37.2196 25.98 37.9425 25.5195 38.6333C24.809 39.5215 24.2519 40.4097 23.7157 41.2648C23.0114 42.3879 22.343 43.4538 21.4096 44.3871C20.1766 45.6201 18.5327 46.4421 16.8887 46.8531C13.6008 48.0861 10.3128 47.6751 7.43589 46.0311C6.20292 45.6201 4.55895 44.7981 3.32597 43.9761C1.682 42.7432 0.86002 40.6882 0.449028 38.6333C-0.372956 35.7563 0.0380357 32.4684 0.86002 29.5914C1.27101 27.1255 2.50399 25.0705 3.73696 23.0156C4.79726 21.2484 6.46541 19.1773 7.95734 17.325L7.95776 17.3245C8.20059 17.023 8.43876 16.7273 8.66887 16.4397C10.7238 13.5627 13.6008 11.0968 16.4777 9.04183C17.5052 8.21984 18.7382 7.39786 19.9711 6.57587C21.2041 5.75389 22.4371 4.9319 23.4646 4.10992C24.2866 3.69893 24.6976 3.69893 25.5195 3.69893C26.547 3.28794 27.5745 2.7742 28.602 2.26046C29.6295 1.74672 30.6569 1.23298 31.6844 0.821984C32.9174 0.410992 33.7394 0.410992 34.5614 0.410992C35.4424 0.410992 36.2053 0.29296 36.9135 0.183403C37.5268 0.0885237 38.0991 0 38.6713 0C41.1372 0 43.6032 2.46595 43.6032 4.9319C43.6032 7.80885 42.3702 9.86381 40.7262 11.9188C40.1098 12.5352 39.519 13.1774 38.9283 13.8195L38.9282 13.8196C37.1558 15.7461 35.3834 17.6727 32.9174 18.9056C29.6295 20.9606 25.9306 22.1936 22.2316 23.4265L22.2316 23.4265H20.9986V23.0156C21.4801 23.0156 21.8206 22.7335 22.1027 22.4998C22.3021 22.3346 22.4724 22.1936 22.6426 22.1936C25.5195 20.5496 27.9855 18.4946 30.4514 16.0287C32.1662 14.5998 33.086 12.9721 34.04 11.2839L34.0401 11.2839L34.0401 11.2838C34.458 10.5442 34.8825 9.79303 35.3834 9.04183C36.2053 7.80885 36.6163 6.16488 36.2053 4.52091C35.7943 2.87694 34.1504 2.46595 32.9174 3.28794C32.2268 3.74836 31.5039 4.20878 30.7668 4.67823L30.7666 4.67837L30.7665 4.67844C28.872 5.88513 26.8838 7.15149 25.1086 8.63083C21.4096 11.9188 17.7107 15.6177 14.8337 20.1386C14.4989 20.6744 14.164 21.1993 13.8326 21.7187L13.8324 21.719C12.1307 24.3863 10.5228 26.9064 9.49085 30.0024C8.25788 34.1123 7.84688 38.2223 10.7238 41.9212L11.1348 42.3322H11.9568C12.7788 40.6882 14.0118 39.0442 15.2447 37.4003C15.6557 36.9893 16.0667 36.1673 16.0667 35.7563C18.5327 33.7013 20.1766 31.2354 20.9986 27.9475C21.0485 27.8477 21.0984 27.742 21.1497 27.6331C21.5214 26.8445 21.9702 25.8925 23.0536 25.8925V26.7145H26.3415C28.3965 25.8925 30.4514 25.4815 32.5064 25.0705C32.9174 24.6595 33.3284 24.6595 33.3284 24.6595C34.4021 25.3753 35.1641 24.8444 36.1573 24.1525C36.3047 24.0499 36.4571 23.9437 36.6163 23.8375C38.6713 22.6046 40.7262 22.1936 42.7812 22.1936C45.2472 22.1936 46.0691 23.4265 45.2472 25.4815C45.0417 25.8924 44.9389 26.2007 44.8362 26.5089L44.8362 26.5089L44.8362 26.509L44.8361 26.509L44.8361 26.5091C44.7334 26.8173 44.6307 27.1255 44.4252 27.5365C45.2472 27.5365 45.6582 27.5365 46.0691 27.1255C46.3979 26.9611 46.7267 26.6652 47.0555 26.3693C47.5487 25.9254 48.0419 25.4815 48.5351 25.4815C49.3571 25.4815 50.1791 25.0705 51.001 24.6595C51.5045 24.4917 51.9909 24.3067 52.4671 24.1256C54.3232 23.4197 56.0254 22.7724 57.9879 23.4265C58.1581 23.4265 58.3989 23.356 58.681 23.2734C59.0799 23.1566 59.5614 23.0156 60.0429 23.0156C62.0978 22.6046 64.1528 22.1936 65.7968 23.8375C66.0023 24.043 66.105 24.2485 66.2078 24.454C66.3105 24.6595 66.4133 24.865 66.6187 25.0705C67.3802 24.6898 68.4942 24.3091 69.6342 23.9284C69.4957 24.0495 69.4957 24.2485 69.4957 24.2485C70.1807 24.1115 70.82 23.9745 71.4593 23.8375L71.4594 23.8375C72.738 23.5635 74.0166 23.2895 75.6606 23.0156C75.6606 23.2211 75.5578 23.4265 75.4551 23.632C75.3523 23.8375 75.2496 24.043 75.2496 24.2485C74.0166 26.3035 72.7836 27.9475 71.5507 29.5914C71.1162 30.1707 70.6307 30.7499 70.1302 31.3472C69.2102 32.4449 68.2393 33.6034 67.4407 34.9343C66.2078 36.9893 65.3858 39.0442 64.5638 41.0992C64.2984 41.3646 64.3758 41.8014 64.4639 42.2989C64.5122 42.5718 64.5638 42.863 64.5638 43.1542C64.9748 42.9487 65.283 42.9487 65.5913 42.9487C65.8995 42.9487 66.2078 42.9487 66.6187 42.7432C69.1609 42.1076 71.2117 40.2436 73.1511 38.4808C73.72 37.9638 74.2793 37.4554 74.8386 36.9893C76.5271 35.6385 77.1057 33.7328 77.7143 31.7281C77.8464 31.293 77.9799 30.8532 78.1265 30.4134C78.5375 30.0024 78.5375 29.1804 78.5375 28.7694C78.5375 28.5571 78.5649 28.3447 78.5915 28.1395C78.6676 27.5502 78.7362 27.0193 78.1265 26.7145L77.7155 26.3035C77.921 26.3035 78.0238 26.2007 78.1265 26.098C78.2293 25.9952 78.332 25.8925 78.5375 25.8925H81.0035C83.4694 25.4815 85.5243 25.0705 87.5792 24.6596L87.5793 24.6595C87.7496 24.6595 87.9903 24.73 88.2724 24.8127C88.6713 24.9295 89.1528 25.0705 89.6343 25.0705C89.1878 25.8518 88.7414 26.6029 88.3031 27.34C87.1277 29.3172 86.0115 31.1947 85.1134 33.2904C84.7024 34.3178 84.3942 35.2425 84.0859 36.1673C83.7777 37.092 83.4694 38.0168 83.0584 39.0442V40.2772C83.0584 41.0992 83.8804 41.5102 84.7024 41.0992C85.7299 40.4827 86.6546 39.8662 87.5793 39.2497C88.5041 38.6333 89.4288 38.0168 90.4563 37.4003C91.6893 36.9893 92.1003 35.7563 91.6893 34.5233C91.2783 32.0574 92.1003 29.5914 92.9222 27.1255C93.7442 24.2485 95.7992 22.1936 97.8541 20.5496C98.6761 19.7276 100.32 19.3166 101.553 20.1386C102.786 20.9606 103.197 22.1936 103.197 23.4265C103.197 23.632 103.094 23.8375 102.992 24.043C102.889 24.2485 102.786 24.454 102.786 24.6595C101.813 27.2545 100.072 29.5934 98.3709 31.8784C97.9167 32.4886 97.4653 33.095 97.0322 33.7013C96.6212 33.7013 96.6212 34.1123 96.6212 34.1123C95.3882 35.7563 96.2102 36.9893 98.2651 37.4003C99.0871 37.8113 99.4981 37.4003 99.9091 36.5783C100.937 34.9343 101.964 33.1875 102.992 31.4408C104.019 29.6941 105.047 27.9474 106.074 26.3035C106.896 25.4815 108.129 24.6595 108.951 24.6595C109.978 24.6595 111.006 24.5568 112.033 24.454C113.061 24.3513 114.088 24.2485 115.116 24.2485C115.286 24.2485 115.386 24.178 115.503 24.0954C115.668 23.9786 115.867 23.8375 116.349 23.8375C114.705 26.3035 113.472 28.3585 112.239 30.4134L107.307 39.0442C106.739 39.6118 106.564 40.3752 106.374 41.1992L106.374 41.1994C106.289 41.5689 106.201 41.9505 106.074 42.3322C106.074 42.7432 106.485 42.7432 106.485 42.7432C106.896 42.5377 107.204 42.3322 107.512 42.1267L107.512 42.1267L107.513 42.1266C107.821 41.9212 108.129 41.7157 108.54 41.5102L114.705 36.5783C115.527 35.7563 116.349 34.9343 116.76 33.7013C117.993 30.8244 119.637 27.9475 121.281 25.0705C121.692 24.2485 122.103 23.8375 122.514 23.4265C123.747 21.7826 124.569 20.1386 125.391 18.4946H119.637L120.87 16.0287C120.87 16.0287 121.281 15.6177 121.692 15.6177H127.035C127.446 15.6177 127.857 15.2067 128.268 14.7957C130.323 11.9188 131.966 9.04183 133.61 6.16488C133.767 6.0079 133.864 5.85091 133.947 5.71683C134.081 5.49988 134.178 5.3429 134.432 5.3429C136.487 4.52091 138.953 3.69893 141.419 3.69893H142.241C143.474 3.69893 143.885 4.52091 143.063 5.3429C141.83 6.57587 140.597 8.21984 139.775 9.45282C138.542 11.0968 137.309 13.1517 136.076 15.2067C138.131 14.7957 139.364 14.7957 141.008 14.7957H142.241C142.241 15.0012 142.139 15.2067 142.036 15.4122C141.933 15.6177 141.83 15.8232 141.83 16.0287C141.127 17.787 139.822 17.7399 138.43 17.6897C138.195 17.6812 137.958 17.6727 137.72 17.6727H136.487C135.665 17.2617 134.843 18.0837 134.432 18.9056L129.501 27.5365C129.09 28.1529 128.781 28.8722 128.473 29.5914C128.165 30.3106 127.857 31.0299 127.446 31.6464C126.624 32.4684 125.802 33.2904 125.391 34.1123C125.137 34.3663 125.04 34.6204 124.906 34.9714C124.823 35.1883 124.726 35.4423 124.569 35.7563L123.336 39.4552C122.925 40.6882 122.514 42.3322 122.514 43.5652C122.514 44.3871 123.336 45.2091 124.158 44.7981C124.98 44.7981 125.802 44.3871 126.213 43.9761C127.857 42.7432 129.09 41.5102 130.323 39.8662C131.145 39.4552 131.145 38.2223 131.145 37.4003C131.145 36.9893 131.144 36.1673 131.555 35.3453C133.199 30.8244 136.076 27.1255 140.597 25.0705C143.474 23.8375 146.351 23.0156 149.228 24.2485C149.639 24.454 149.947 24.7623 150.256 25.0705C150.564 25.3788 150.872 25.687 151.283 25.8925C153.749 25.0705 157.037 24.6595 160.325 24.2485C160.325 24.6595 160.325 25.0705 159.914 25.4815C159.092 27.1255 158.27 28.3585 157.037 30.0024C155.393 32.0574 153.749 34.1123 152.516 36.1673C151.283 37.8113 150.461 39.8662 149.639 41.9212C149.228 42.3322 149.228 43.1542 149.228 43.9761C151.283 44.3871 152.927 43.5652 154.16 42.3322C155.599 41.3047 156.934 40.1745 158.27 39.0442L158.27 39.0442C159.606 37.914 160.941 36.7838 162.38 35.7563C162.585 35.5508 162.791 35.4481 162.996 35.3453C163.202 35.2426 163.407 35.1398 163.613 34.9343V34.1123C162.791 30.0024 164.846 25.4815 168.956 23.8375C170.6 23.0156 171.833 22.6046 173.477 22.6046ZM69.6342 23.9284C69.6948 23.8755 69.7817 23.8375 69.9067 23.8375L69.9066 23.8376L69.6342 23.9284ZM142.039 5.76851C142.108 5.6205 142.175 5.47629 142.241 5.3429C141.419 5.75389 141.008 6.57587 140.597 7.39786C141.286 7.39786 141.686 6.53258 142.039 5.76851ZM128.43 27.9186C128.77 27.2702 129.09 26.6612 129.09 25.8925C128.268 27.1255 127.857 27.9475 127.446 29.1804H127.857C128.011 28.7162 128.224 28.3102 128.43 27.9186ZM100.731 27.9475L100.32 27.5365C100.133 27.8176 99.9453 28.0773 99.7627 28.3303C99.1447 29.187 98.5824 29.9663 98.2651 31.2354H98.6761C99.0871 30.6189 99.3954 30.1052 99.7036 29.5914C100.012 29.0777 100.32 28.5639 100.731 27.9475ZM31.9794 16.5026C31.0813 17.3242 30.2415 18.0926 29.6295 19.3166C30.8624 18.0836 32.0954 16.8507 33.3284 16.0287L32.9174 15.6177C32.6025 15.9326 32.2875 16.2208 31.9794 16.5026L31.9794 16.5026L31.9794 16.5026ZM38.6713 10.8913C38.5685 11.0968 38.4658 11.3023 38.2603 11.5078C37.8493 12.3298 37.4383 13.1517 36.6163 13.9737C35.9998 14.3847 35.4861 14.8985 34.9724 15.4122C34.4586 15.9259 33.9449 16.4397 33.3284 16.8507L33.7394 17.2617C34.1668 16.8342 34.5943 16.5055 35.0046 16.19C35.7779 15.5955 36.4903 15.0478 37.0273 13.9737L41.1372 9.86381C40.7262 9.86381 40.7262 9.45282 40.7262 9.45282C40.3153 9.45282 39.4933 9.86381 39.0823 10.2748C38.8768 10.4803 38.774 10.6858 38.6713 10.8913ZM5.38093 42.7432L7.84688 43.9761C7.84688 43.7022 7.98388 43.5652 8.25788 43.5652L5.79192 42.3322C5.38093 42.3322 5.38093 42.7432 5.38093 42.7432ZM27.1635 32.0574L23.4646 38.2223C25.1085 36.5783 26.3415 34.5233 27.5745 32.4684C27.5745 32.0574 27.1635 32.0574 27.1635 32.0574ZM58.3708 39.4271C58.9606 38.1539 59.6113 36.7496 60.4539 35.3453C60.9148 34.577 61.4332 33.8088 61.9661 33.019C62.8586 31.6964 63.7918 30.3135 64.5638 28.7694C64.9748 27.9475 65.3858 27.1255 64.5638 26.3035C63.7418 25.4815 62.9198 25.8925 62.0978 26.3035L61.2758 27.1255C60.859 27.5423 60.4421 27.9475 60.0312 28.3468C58.0114 30.3097 56.1355 32.1327 55.111 34.5233C54.7 35.5508 54.289 36.4755 53.878 37.4003C53.467 38.325 53.056 39.2497 52.645 40.2772H53.056V41.5102C53.056 42.7432 53.878 43.5652 55.111 43.5652C55.933 43.5652 56.7549 43.5652 57.1659 43.1542C57.5769 42.7432 57.5769 41.9212 57.5769 41.5102V41.0992C57.8372 40.5787 58.0974 40.017 58.3707 39.4271L58.3708 39.4271ZM90.4563 39.4552L87.5793 42.3322C87.9488 41.9627 88.4013 41.6763 88.8996 41.3609C89.5098 40.9746 90.1885 40.545 90.8673 39.8662C90.4563 39.8662 90.4563 39.4552 90.4563 39.4552ZM94.1552 31.6464C94.5662 31.6464 94.5662 32.0574 94.5662 32.4684C94.5662 31.6464 94.5662 31.2354 94.1552 30.4134C93.3332 30.8244 92.9222 32.4684 93.7442 34.1123V31.6464H94.1552ZM144.296 37.4003C145.015 36.1673 145.735 34.9343 146.351 33.7013C146.721 32.9624 147.173 32.2235 147.671 31.4099C148.282 30.4134 148.96 29.305 149.639 27.9475C150.05 27.5365 150.461 26.7145 149.639 25.8925C148.817 25.0705 147.995 25.0705 147.173 25.4815C146.968 25.687 146.762 25.7897 146.557 25.8925C146.351 25.9952 146.146 26.098 145.94 26.3035C145.41 26.9395 144.853 27.5756 144.289 28.2187L144.289 28.219C142.668 30.0691 140.995 31.9776 139.775 34.1123C139.364 35.1398 139.056 36.0646 138.748 36.9893C138.44 37.914 138.131 38.8387 137.72 39.8662H138.131V41.5102C138.131 43.1542 138.953 43.5652 140.186 43.5652C141.419 43.5652 141.83 43.1542 142.241 41.5102V41.0992C142.858 39.8662 143.577 38.6333 144.296 37.4003ZM163.613 44.7981C164.846 44.7981 166.49 43.1542 166.49 42.3322C166.49 41.0992 166.49 39.8662 165.668 39.0442C165.257 37.8113 164.846 36.9893 164.024 35.7563C163.422 36.358 162.82 36.7395 162.057 37.2232C161.778 37.4003 161.477 37.591 161.147 37.8113C161.507 37.9915 161.868 38.0927 162.193 38.1841C162.611 38.3013 162.971 38.4025 163.202 38.6333C163.202 38.8387 163.305 39.0442 163.407 39.2497C163.51 39.4552 163.613 39.6607 163.613 39.8662C163.613 39.8662 163.202 40.2772 162.791 40.2772H161.558C159.914 40.2772 159.092 41.9212 159.914 43.1542C160.325 43.9762 162.38 44.7981 163.613 44.7981ZM171.011 30.0024C171.833 29.5914 172.655 29.1804 173.066 28.3585C173.271 28.153 173.477 27.8447 173.682 27.5365C173.888 27.2282 174.093 26.92 174.299 26.7145C173.888 26.3035 173.888 25.8925 173.888 25.4815C173.477 24.6595 172.655 23.8375 172.244 23.8375C171.833 23.4265 170.6 24.2485 170.6 24.6595C170.497 25.0705 170.369 25.4815 170.24 25.8925C169.855 27.1255 169.47 28.3584 169.778 29.5914C169.778 30.4134 170.189 30.4134 171.011 30.0024ZM222.425 9.4114C224.891 6.94545 227.768 6.12347 230.645 5.30148C232.289 4.89049 233.933 5.71247 232.7 6.94545C232.289 7.76741 231.467 8.58936 230.645 9.41132L230.645 9.4114C230.029 9.82239 229.412 10.1306 228.796 10.4389C228.179 10.7471 227.563 11.0554 226.946 11.4664C223.247 13.5213 219.548 15.9873 216.671 19.2752C216.547 19.3996 216.385 19.524 216.208 19.6598L216.208 19.6599C215.8 19.9728 215.314 20.3461 215.027 20.9192C214.205 21.9467 213.281 22.9741 212.356 24.0016C211.431 25.0291 210.507 26.0566 209.685 27.0841C209.274 27.7006 208.863 28.2143 208.452 28.728C208.041 29.2418 207.63 29.7555 207.219 30.372C206.808 30.9885 206.499 31.6049 206.191 32.2214C205.883 32.8379 205.575 33.4544 205.164 34.0709C205.164 34.2764 205.061 34.3792 204.958 34.4819C204.856 34.5843 204.753 34.6866 204.753 34.8905C204.753 34.6858 204.856 34.4811 204.958 34.2764C205.061 34.0709 205.164 33.8654 205.164 33.6599H204.753C204.753 34.0709 204.65 34.3792 204.547 34.6874C204.444 34.9957 204.342 35.3039 204.342 35.7149C202.864 36.6015 202.449 38.1257 202.027 39.6762C201.862 40.2818 201.696 40.8915 201.465 41.4688H201.876C201.585 42.0511 201.345 42.5819 201.12 43.0794C200.711 43.9863 200.352 44.7825 199.821 45.5787V44.3457C198.177 45.1677 196.944 45.5787 195.711 45.9897H195.3C194.478 46.4007 190.779 44.7567 190.368 44.3457C189.957 43.1128 190.368 42.2908 190.779 41.4688C191.19 40.4413 191.704 39.5166 192.217 38.5918C192.731 37.6671 193.245 36.7424 193.656 35.7149C194.478 34.0709 194.889 32.427 195.3 30.783C195.505 29.139 195.814 27.3923 196.122 25.6456C196.43 23.8989 196.738 22.1522 196.944 20.5082V13.5213C196.944 12.4938 197.047 11.5691 197.149 10.6444C197.252 9.71965 197.355 8.79491 197.355 7.76743L196.914 7.93698C191.763 9.91548 187.4 11.5913 184.203 15.9873C183.917 16.5604 183.43 16.9337 183.023 17.2465C182.846 17.3824 182.684 17.5068 182.559 17.6312C181.326 18.8642 180.093 18.4532 179.271 16.8093C179.271 16.3983 178.86 15.9873 178.449 15.5763C179.271 14.3433 180.915 13.1103 182.559 11.8774C182.97 11.4664 183.381 11.2609 183.792 11.0554C184.203 10.8499 184.614 10.6444 185.025 10.2334C186.629 8.62958 188.733 8.02713 190.752 7.44915C191.32 7.28656 191.882 7.12591 192.423 6.94545C194.067 6.12347 195.711 5.30148 197.355 4.89049C198.999 4.4795 200.643 4.06851 202.287 4.06851C202.684 4.06851 203.123 4.02594 203.577 3.9819C204.535 3.8891 205.56 3.78978 206.397 4.06851C208.041 4.4795 208.041 4.89049 207.63 6.12347C207.219 8.58942 206.808 11.0554 206.808 13.5213C206.397 17.2203 205.986 20.5082 205.164 24.2071L205.164 24.2074C204.781 26.1215 204.398 28.0356 204.347 29.9497C204.757 29.1315 205.269 28.3133 205.78 27.4951C206.294 26.6731 206.808 25.8511 207.219 25.0291C207.63 24.6181 207.938 24.2071 208.246 23.7961C208.554 23.3851 208.863 22.9741 209.274 22.5631C209.89 21.7412 210.609 20.9192 211.329 20.0972C212.048 19.2752 212.767 18.4532 213.383 17.6312C215.193 15.2188 217.666 13.2489 219.991 11.3969C220.835 10.7247 221.659 10.068 222.425 9.4114ZM182.148 15.9873C181.737 15.9873 181.737 15.5763 181.737 15.5763C183.308 13.6909 185.36 12.0458 187.341 10.4573C187.951 9.9681 188.554 9.48425 189.135 9.00041V8.58942H188.724C187.459 9.60174 186.037 10.4582 184.556 11.3508C183.632 11.9077 182.685 12.4787 181.737 13.1103C180.915 13.5213 180.915 15.1653 181.326 15.9873C181.737 16.3983 182.148 16.3983 182.148 16.3983C182.354 16.1928 182.662 15.9873 182.97 15.7818C183.278 15.5763 183.587 15.3708 183.792 15.1653C183.381 15.1653 182.559 15.5763 182.148 15.9873ZM198.999 32.427C198.177 34.0709 197.355 36.1259 196.944 38.1808C197.766 36.1259 198.588 34.0709 199.41 32.427H198.999ZM199.123 21.8032C198.841 23.2635 198.552 24.7628 198.177 26.2621C198.474 25.0726 198.825 23.937 199.172 22.8162L199.172 22.8157L199.172 22.8156C199.783 20.8384 200.38 18.9075 200.643 16.8093H200.232C199.785 18.3743 199.459 20.061 199.123 21.8032ZM203.52 27.906C203.109 29.55 202.698 31.194 202.287 33.2489C202.975 31.8718 203.375 30.2062 203.729 28.7354C203.797 28.4505 203.864 28.1729 203.931 27.906H203.52ZM224.069 10.2335L224.069 10.2334C224.36 10.2334 224.445 10.0279 224.615 9.61687C224.686 9.44664 224.771 9.24115 224.891 9.00041L224.48 8.58942C224.275 8.58942 224.172 8.69217 224.069 8.79491C223.967 8.89766 223.864 9.00041 223.658 9.00041C222.425 10.6444 220.781 11.8774 219.137 13.1103C216.26 15.5763 213.794 18.4532 211.329 21.3302C211.329 21.7412 210.918 22.5631 210.918 22.5631C211.466 23.1111 211.1 23.4765 210.796 23.7809C210.644 23.9331 210.507 24.0701 210.507 24.2071H210.096C210.37 23.9331 210.507 23.6591 210.507 23.3851H210.096C209.999 23.5792 209.902 23.7961 209.799 24.0252C209.468 24.7664 209.08 25.6341 208.452 26.2621H209.685C209.479 26.4676 209.376 26.6731 209.274 26.8786C209.171 27.0841 209.068 27.2896 208.863 27.4951C208.863 27.2211 208.726 26.9471 208.452 26.6731C207.219 29.1389 205.986 31.1938 204.753 33.2486L204.753 33.2489H205.164C205.411 32.8776 205.621 32.469 205.839 32.0456C206.345 31.063 206.892 30.0007 208.041 29.139C208.657 28.5226 209.068 27.7006 209.479 26.8787L209.479 26.8786C209.89 26.0566 210.301 25.2346 210.918 24.6181L215.849 18.4532V17.6312C216.386 16.8257 217.099 16.1956 217.872 15.5117C218.282 15.1488 218.71 14.7708 219.137 14.3433C220.781 12.6994 222.425 11.4664 224.069 10.2335ZM224.891 10.2334C225.302 9.00041 227.768 7.35644 229.412 7.35644C227.768 8.17843 226.535 9.00041 224.891 10.2334ZM349.011 22.5633C348.189 22.1523 347.367 22.1523 346.545 22.1523C345.312 22.1523 344.079 22.5633 342.846 22.9743C339.147 24.2073 337.092 28.7282 337.914 32.4271C337.914 32.8381 337.914 33.2491 337.503 33.6601C336.27 34.6876 334.934 35.7151 333.598 36.7426C332.263 37.7701 330.927 38.7975 329.694 39.825C328.05 41.4689 325.995 41.8799 323.94 42.2909C323.529 42.2909 323.118 42.2909 322.707 41.8799C321.063 39.825 321.474 37.359 323.94 36.537C327.639 35.3041 330.516 33.2491 333.393 30.7831C334.626 29.5502 335.448 28.7282 335.448 27.0842C335.859 25.8512 334.626 23.7963 333.393 23.3853C330.653 22.3578 327.913 22.7574 325.173 23.157C324.625 23.2369 324.077 23.3168 323.529 23.3853C321.063 23.7963 318.186 24.6183 316.131 26.2622C315.72 26.6732 315.309 26.6732 314.898 26.6732C315.104 26.2622 315.207 25.8512 315.309 25.4402C315.412 25.0292 315.515 24.6183 315.72 24.2073C315.72 22.9743 315.309 22.5633 314.076 22.1523C311.508 21.8312 309.44 23.0154 307.483 24.1368C306.935 24.4507 306.396 24.7596 305.857 25.0293C305.603 25.0293 305.506 25.3432 305.372 25.7771L305.371 25.7775C305.289 26.0456 305.192 26.3594 305.035 26.6732C305.035 26.6732 305.446 26.6732 305.446 27.0842C305.806 26.904 306.166 26.8028 306.492 26.7114C306.909 26.5942 307.27 26.493 307.501 26.2622C308.323 25.8512 308.734 26.2622 308.734 27.0842V28.3172C308.323 29.1392 307.809 30.0639 307.295 30.9886C306.781 31.9134 306.268 32.8381 305.857 33.6601C305.857 33.9141 305.7 34.0111 305.483 34.1452C305.349 34.2281 305.192 34.3251 305.035 34.4821C304.624 34.8931 304.11 35.2013 303.596 35.5095C303.082 35.8178 302.569 36.126 302.158 36.537C300.514 38.181 298.459 39.825 296.815 41.0579C296.584 41.2887 296.224 41.3899 295.806 41.5071C295.481 41.5985 295.12 41.6997 294.76 41.8799C294.76 41.0579 294.76 40.236 295.171 39.825C295.582 38.592 295.993 37.359 296.815 36.126C297.842 34.2766 298.973 32.4271 300.103 30.5776C301.233 28.7282 302.363 26.8787 303.391 25.0293C303.802 24.6183 303.802 23.7963 303.802 23.3853C303.391 22.9743 302.569 22.5633 302.158 22.9743C301.13 23.1797 300.001 23.3852 298.871 23.5906L298.87 23.5908L298.869 23.5908C297.739 23.7963 296.609 24.0018 295.582 24.2073C295.084 24.2073 294.737 24.5087 294.358 24.8377C294.111 25.0521 293.851 25.2781 293.527 25.4402V25.8512H294.76C293.863 27.6443 292.967 29.383 292.051 31.0871C292.007 30.9072 291.883 30.7831 291.883 30.7831H291.472L287.773 38.181H287.979C287.642 38.7295 287.3 39.2772 286.951 39.825C286.951 39.825 286.951 39.414 286.54 39.414C285.307 41.0579 283.663 42.2909 281.197 42.2909C281.197 41.4689 281.197 41.0579 281.608 40.236C282.43 37.77 283.663 35.3041 284.896 33.2491C285.307 32.4271 285.821 31.6051 286.335 30.7831C286.848 29.9611 287.362 29.1392 287.773 28.3172C288.595 27.0842 289.006 25.8512 289.417 24.6183C289.828 23.7963 289.417 23.3853 288.595 23.7963C287.362 23.7963 286.129 24.2073 285.307 24.6183C284.28 24.8238 283.252 25.132 282.225 25.4402C281.197 25.7485 280.17 26.0567 279.142 26.2622V26.6732C279.348 26.6732 279.553 26.776 279.759 26.8787C279.964 26.9815 280.17 27.0842 280.375 27.0842C280.375 27.4952 280.375 27.9062 279.964 28.3172C279.452 29.3408 279.02 30.3645 278.593 31.3758L278.593 31.3766C277.649 33.6131 276.73 35.789 275.032 37.77C274.3 38.6852 273.568 39.5188 272.836 40.3436C272.084 40.924 271.506 41.5018 270.974 42.034C270.409 42.5991 269.895 43.1129 269.278 43.5239C268.73 44.0038 268.181 44.3808 267.633 44.6701C267.24 44.5279 266.812 44.2314 266.812 43.9349V43.9346C266.812 42.7017 266.812 41.4689 267.223 40.6469C267.634 39.825 267.954 38.9573 268.274 38.0897C268.913 36.3544 269.552 34.6191 270.922 33.2491C271.951 31.9633 272.658 30.5165 273.345 29.1103L273.345 29.11C273.756 28.2689 274.16 27.4423 274.621 26.6732C274.95 26.126 275.278 25.5497 275.614 24.9598C276.54 23.3342 277.525 21.6051 278.731 20.0973C278.937 19.8919 279.142 19.7891 279.348 19.6864C279.553 19.5836 279.759 19.4809 279.964 19.2754H283.252C284.485 19.2754 285.718 18.0424 286.129 16.3984C284.074 16.3984 282.43 16.3984 280.375 16.8094C281.608 14.7545 282.841 13.1105 284.074 11.4665C284.369 11.024 284.717 10.5815 285.08 10.1199C285.728 9.29553 286.424 8.41052 286.951 7.3566C287.362 6.53461 287.362 5.71263 286.129 5.71263C284.485 5.71263 282.841 5.71263 281.197 6.53461C278.731 4.89064 277.498 4.89064 276.676 6.53461C275.443 9.00056 273.799 11.4665 272.155 13.9325C271.744 14.3435 271.333 14.7545 270.922 14.7545H265.99C265.579 14.7545 265.168 14.7545 265.168 15.1654C264.963 15.5765 264.757 15.8847 264.552 16.193C264.346 16.5012 264.141 16.8094 263.935 17.2204H269.278C268.987 17.8028 268.747 18.3336 268.523 18.8311C268.114 19.738 267.754 20.5341 267.223 21.3303C265.99 23.3853 264.757 25.4402 263.524 27.9062C262.702 29.1392 261.983 30.3721 261.264 31.6051C260.545 32.8381 259.826 34.0711 259.004 35.3041C258.584 35.808 258.129 36.3119 257.644 36.8052C257.681 36.7209 257.723 36.6317 257.771 36.537C257.703 36.6715 257.636 36.784 257.571 36.8798C255.695 38.7718 253.366 40.5006 250.784 41.4689C250.613 41.4689 250.443 41.5394 250.244 41.6221C249.962 41.7389 249.621 41.8799 249.14 41.8799C249.297 41.566 249.394 41.3119 249.477 41.095C249.611 40.744 249.708 40.49 249.962 40.236C252.839 36.126 255.716 32.0161 258.593 27.4952C259.004 26.6732 259.415 25.4402 259.004 24.6183C258.593 23.7963 257.36 23.3853 256.538 23.3853C255.224 23.3853 254.078 23.7213 252.885 24.0711C252.212 24.2684 251.525 24.4701 250.784 24.6183C249.14 25.0292 247.496 25.4402 245.852 26.6732C245.441 27.0842 245.03 27.0842 244.619 27.0842C244.799 26.7238 244.9 26.3634 244.992 26.0377C245.109 25.6204 245.21 25.26 245.441 25.0293C245.852 23.7963 245.03 22.9743 243.797 22.5633C240.819 22.2324 238.374 23.2333 235.819 24.2794C235.2 24.5328 234.574 24.7888 233.933 25.0293C233.679 25.0293 233.582 25.1862 233.448 25.4032C233.365 25.5373 233.268 25.6943 233.111 25.8512V26.6732H233.522C233.933 26.4677 234.241 26.365 234.549 26.2622C234.858 26.1595 235.166 26.0567 235.577 25.8512C236.399 25.4402 237.221 25.8512 236.81 26.6732C236.81 26.9272 236.653 27.1812 236.436 27.5323C236.302 27.7492 236.145 28.0032 235.988 28.3172C235.782 28.7282 235.474 29.0364 235.166 29.3447C234.858 29.6529 234.549 29.9612 234.344 30.3721C232.972 33.117 230.74 35.289 228.605 37.3664L228.605 37.3665L228.604 37.3672C228.182 37.778 227.764 38.185 227.357 38.592C225.302 40.6469 222.836 41.8799 220.37 42.7019C217.904 43.5239 217.493 43.5239 216.671 41.0579C216.26 39.414 216.671 38.592 218.315 37.77L220.781 36.537C224.069 35.3041 226.946 33.2491 229.001 30.7831C230.234 29.5502 231.056 27.9062 230.645 26.6732C230.234 25.0292 228.59 23.7963 226.535 23.7963H224.891C223.247 23.7963 221.603 23.7963 220.37 24.6183C219.137 25.0292 217.904 26.2622 216.671 27.4952C213.383 30.7831 210.917 34.4821 210.506 39.414C210.506 41.0579 210.917 42.7019 212.15 43.9349C213.383 45.1679 215.438 45.9898 217.493 45.5788C220.781 44.7569 223.658 43.9349 226.124 41.8799L227.357 40.6469C227.357 41.1285 227.216 41.4689 227.099 41.751C227.017 41.9504 226.946 42.1207 226.946 42.2909C226.124 43.5239 226.946 44.7569 228.59 44.7569C229.823 44.7569 231.467 44.3459 232.7 43.9349C233.111 43.9349 234.344 43.1129 233.933 42.7019C233.933 41.4689 234.344 40.6469 235.166 39.414L240.098 32.0161C240.509 31.1941 241.331 30.3721 242.153 29.9612C242.577 29.7489 242.974 29.5366 243.358 29.3315L243.359 29.3312C244.461 28.7419 245.454 28.211 246.674 27.9062C247.265 27.6106 247.856 27.7402 248.294 27.8363C248.466 27.8738 248.613 27.9062 248.729 27.9062C248.729 28.7282 248.729 29.5502 248.318 29.9612C247.29 31.6052 246.16 33.352 245.03 35.0988C243.899 36.8454 242.769 38.5921 241.742 40.236C240.509 41.8799 240.509 44.3459 242.975 44.7569H245.852C247.097 44.4456 248.578 43.6629 249.937 42.9443L249.937 42.9442C250.373 42.714 250.796 42.4904 251.195 42.2909C253.661 41.0579 255.716 39.825 256.949 37.77C256.949 37.5645 257.051 37.4618 257.205 37.3076C257.309 37.2039 257.436 37.077 257.571 36.8798L257.644 36.8052C257.36 37.4537 257.36 37.8173 257.36 38.181C256.949 40.6469 257.771 43.5239 259.415 44.3459C262.154 45.3732 264.893 46.1152 267.633 44.6701C267.785 44.725 267.931 44.7569 268.045 44.7569C268.867 44.3459 269.689 43.9349 270.1 43.5239C270.922 42.4965 271.744 41.5718 272.566 40.6471L272.836 40.3436C272.882 40.3077 272.929 40.2718 272.977 40.236C272.566 42.7019 273.388 44.3459 275.443 44.7569C276.676 45.1679 278.32 45.1679 279.553 44.7569C280.798 44.4456 282.279 43.6629 283.638 42.9443L283.64 42.9434C284.075 42.7135 284.498 42.4901 284.896 42.2909C284.896 44.7569 287.362 46.4008 289.417 46.4008C292.294 46.4008 294.76 44.7569 297.226 42.7019C298.459 41.4689 299.692 40.236 301.336 39.003L301.335 39.0038C300.513 40.6475 299.692 42.2912 298.87 44.3459C298.459 45.1679 299.281 46.8118 300.103 46.4008C301.336 46.4008 302.98 45.9898 304.213 45.5788C304.487 45.5788 304.761 45.2135 305.035 44.8482C305.172 44.6655 305.309 44.4829 305.446 44.3459C305.651 43.9349 305.754 43.4211 305.857 42.9074C305.959 42.3937 306.062 41.8799 306.268 41.4689C306.679 40.6469 307.09 39.9276 307.501 39.2083C307.912 38.4891 308.323 37.7699 308.734 36.948C308.939 36.3315 309.247 35.8178 309.556 35.304C309.864 34.7903 310.172 34.2766 310.378 33.6601C311.559 31.6902 313.874 31.231 315.874 30.8343L316.131 30.7831L316.542 31.1941C316.542 32.0161 316.542 33.2491 315.72 34.0711C314.487 36.126 314.076 37.77 314.076 39.825C314.076 41.4689 314.487 43.1129 315.309 44.3459C316.542 45.5788 318.186 46.4008 320.241 45.9898C321.269 45.7843 322.194 45.5788 323.118 45.3734C324.043 45.1679 324.968 44.9624 325.995 44.7569C326.406 44.7569 326.817 44.3459 327.228 43.9349C328.05 43.1129 329.283 42.2909 330.516 41.4689C330.105 42.7019 330.516 43.5239 331.338 44.3459C334.215 46.4008 337.503 46.8118 341.202 46.4008C342.846 45.9898 344.49 45.1679 345.723 43.1129V44.3459C346.956 42.7019 346.956 41.0579 346.134 39.414C344.901 36.948 343.668 34.4821 342.435 32.4271C342.64 32.2216 342.949 32.0161 343.257 31.8106C343.565 31.6051 343.873 31.3996 344.079 31.1941C345.723 29.9612 346.956 28.7282 348.189 27.4952C351.477 24.6183 351.066 22.9743 349.011 22.5633ZM287.979 38.181H288.184L288.595 37.77C289.211 36.7425 289.725 35.715 290.239 34.6876C290.753 33.6601 291.266 32.6326 291.883 31.6051C292.068 31.4199 292.086 31.2347 292.051 31.0871C290.752 33.5024 289.414 35.8483 287.979 38.181ZM273.799 22.1523C272.977 24.2073 271.744 26.2622 270.511 28.3172H270.1L273.799 22.1523ZM219.137 34.0711C219.137 33.8656 219.24 33.7628 219.343 33.6601C219.446 33.5573 219.548 33.4546 219.548 33.2491C220.165 32.6326 220.679 31.9134 221.192 31.1941C221.706 30.4749 222.22 29.7557 222.836 29.1392C223.658 27.9062 224.891 27.0842 226.535 26.2622C227.357 25.8512 228.179 25.8512 229.001 25.8512V28.7282C227.357 32.0161 224.48 33.6601 221.192 35.3041C220.781 35.5095 220.268 35.715 219.754 35.9204L219.754 35.9205L219.754 35.9206C219.24 36.1261 218.726 36.3316 218.315 36.537L217.904 36.126L217.904 36.1259C218.315 35.3039 218.726 34.482 219.137 34.0711ZM214.205 31.6051L212.972 35.3041C212.972 35.3041 212.561 35.3041 212.561 34.8931C212.686 34.6442 212.81 34.3578 212.946 34.0451L212.946 34.0448C213.259 33.3244 213.632 32.4648 214.205 31.6051ZM212.972 39.825C213.383 38.181 214.205 36.948 215.027 35.715H215.438C215.027 36.3315 214.616 37.0507 214.205 37.7699L214.205 37.7701C213.794 38.4893 213.383 39.2085 212.972 39.825ZM296.404 27.0842C295.993 27.9062 295.582 28.8309 295.171 29.7557C294.76 30.6804 294.349 31.6051 293.938 32.4271C293.938 32.4271 293.527 32.4271 293.527 32.0161C293.938 31.1941 294.452 30.3721 294.965 29.5502C295.479 28.7282 295.993 27.9062 296.404 27.0842ZM294.76 36.537L293.527 41.4689C293.253 40.099 293.71 39.0943 294.166 38.0897C294.395 37.5873 294.623 37.085 294.76 36.537ZM323.529 34.0711C323.735 33.8656 323.838 33.6601 323.94 33.4546C324.043 33.2491 324.146 33.0436 324.351 32.8381C325.173 31.6051 325.995 30.3721 327.228 29.5502C328.461 28.3172 329.694 27.0842 330.927 26.2622C331.749 25.8512 332.571 25.8512 333.393 25.8512C333.393 26.6732 333.393 27.9062 332.982 28.7282C331.338 32.0161 328.461 33.6601 325.584 35.3041C325.173 35.5096 324.659 35.7151 324.146 35.9206C323.632 36.126 323.118 36.3315 322.707 36.537L322.296 36.126C322.707 35.3041 323.118 34.4821 323.529 34.0711ZM316.953 35.3041C317.364 34.0711 317.775 33.2491 318.597 32.0161H319.008C318.684 32.5024 318.424 32.9886 318.177 33.4497L318.177 33.45L318.177 33.4503C317.798 34.1581 317.451 34.8064 316.953 35.3041ZM317.364 39.825C317.775 38.181 318.597 36.948 319.419 35.715H319.83C319.419 36.3315 319.008 37.0508 318.597 37.77L318.597 37.7711C318.186 38.49 317.775 39.2088 317.364 39.825ZM321.063 36.537C321.474 35.9205 321.783 35.304 322.091 34.6875C322.399 34.071 322.707 33.4546 323.118 32.8381C323.118 32.8381 323.529 32.8381 323.529 33.2491C322.707 34.4821 321.885 35.715 321.063 36.537ZM340.38 41.8799C339.147 43.5239 336.681 43.9349 335.037 42.2909C334.626 41.8799 334.215 40.6469 334.626 40.236C334.626 39.9894 335.07 39.7428 335.514 39.4962C335.81 39.3318 336.106 39.1674 336.27 39.003H337.092C337.366 39.003 337.503 38.866 337.503 38.592L337.914 38.181V37.77C337.914 37.359 337.503 36.948 337.503 36.948C337.249 36.694 336.995 36.597 336.644 36.4629C336.427 36.38 336.173 36.283 335.859 36.126C336.461 35.5243 337.062 35.1428 337.825 34.6591L337.826 34.6588C338.105 34.4818 338.406 34.2912 338.736 34.0711C339.558 35.3041 339.969 36.126 340.38 37.359C341.202 39.003 341.202 40.6469 340.38 41.8799ZM346.545 28.3172L345.723 29.1392C345.312 29.1392 344.901 29.5502 344.901 29.5502C344.079 29.5502 344.079 29.1392 344.079 28.7282V28.3172L345.312 24.6183C345.723 23.7963 346.545 23.7963 347.367 24.2073C348.189 25.4402 348.189 27.0842 346.545 28.3172ZM111.006 18.0834C111.417 19.7274 113.883 21.3714 115.116 21.3714C117.582 21.3714 119.226 19.7274 119.637 17.6724C119.806 17.3342 119.766 16.9265 119.604 16.5064C119.615 16.4838 119.626 16.4615 119.637 16.4395H119.577C119.336 15.8592 118.87 15.2614 118.404 14.7955C116.76 13.5625 114.705 13.5625 113.061 14.7955C111.828 15.2065 110.595 17.2615 111.006 18.0834ZM119.577 16.4395H119.226C118.815 17.2615 118.404 18.0834 118.404 19.3164H118.815C118.815 18.5164 119.204 17.3272 119.604 16.5064C119.595 16.4841 119.586 16.4618 119.577 16.4395Z" fill="white"/>
</svg>
