<?xml version="1.0" encoding="UTF-8"?>
<svg width="440px" height="104px" viewBox="0 0 440 104" version="1.1" xmlns="http://www.w3.org/2000/svg" xmlns:xlink="http://www.w3.org/1999/xlink">
    <title>logo</title>
    <defs>
        <linearGradient x1="50%" y1="0.289558748%" x2="50%" y2="95.8200369%" id="linearGradient-1">
            <stop stop-color="#A2A2A2" offset="0%"></stop>
            <stop stop-color="#F6F6F6" offset="100%"></stop>
        </linearGradient>
        <path d="M226.469974,0 C236.46695,0 244.629619,8.32516704 244.629619,18.5211581 L244.629619,22.169265 C244.629619,22.9175947 244.079327,23.4788419 243.345604,23.4788419 L232.431474,23.4788419 C231.69775,23.4788419 231.147458,22.9175947 231.147458,22.169265 L231.147458,19.363029 C231.147458,15.1536748 228.304281,11.3184855 222.342782,11.3184855 C216.748144,11.3184855 213.538105,14.0311804 213.538105,21.233853 C213.538105,38.5389755 244.629619,35.3585746 244.629619,61.5501114 C244.629619,76.2360802 237.200673,84 226.469974,84 L218.490736,84 C208.493759,84 200.331091,75.674833 200.331091,65.4788419 L200.331091,61.830735 C200.331091,61.0824053 200.881383,60.5211581 201.615106,60.5211581 L212.529236,60.5211581 C213.262959,60.5211581 213.813251,61.0824053 213.813251,61.830735 L213.813251,65.5723831 C213.813251,68.4721604 216.197851,72.7750557 222.342782,72.7750557 C228.487712,72.7750557 231.422604,69.3140312 231.422604,64.4498886 L231.330889,62.766147 C231.330889,47.0512249 200.239375,47.8930958 200.239375,22.4498886 C200.239375,7.76391982 207.668321,0 218.39902,0 L226.469974,0 Z M281.139803,0 C291.403946,0 299.690595,8.22246941 299.690595,18.407119 L299.690595,18.407119 L299.690595,65.592881 C299.690595,75.7775306 291.403946,84 281.139803,84 L281.139803,84 L272.570655,84 C262.306511,84 254.019863,75.7775306 254.019863,65.592881 L254.019863,65.592881 L254.019863,18.407119 C254.019863,8.22246941 262.306511,0 272.570655,0 L272.570655,0 Z M41.0721403,1.28571429 C41.906158,1.28571429 42.4621699,2.0327654 42.2768326,2.8731979 L42.2768326,2.8731979 L40.2381226,11.4642857 C40.145454,12.024574 39.5894421,12.3980996 39.0334303,12.3980996 L39.0334303,12.3980996 L15.402928,12.3980996 C14.661579,12.3980996 14.1055671,12.9583879 14.1055671,13.7054391 L14.1055671,13.7054391 L14.1055671,33.7824377 C14.1055671,34.5294889 14.661579,35.0897772 15.402928,35.0897772 L15.402928,35.0897772 L33.1953062,35.0897772 C34.029324,35.0897772 34.5853358,35.8368283 34.3999985,36.6772608 L34.3999985,36.6772608 L32.3612885,45.2683486 C32.1759512,45.828637 31.712608,46.2021625 31.1565962,46.2021625 L31.1565962,46.2021625 L15.402928,46.2021625 C14.661579,46.2021625 14.1055671,46.7624509 14.1055671,47.509502 L14.1055671,47.509502 L14.1055671,81.4069463 C14.1055671,82.1539974 13.5495553,82.7142857 12.8082062,82.7142857 L12.8082062,82.7142857 L1.7806385,82.7142857 C1.03928941,82.7142857 0.483277592,82.1539974 0.483277592,81.4069463 L0.483277592,81.4069463 L0.483277592,2.59305374 C0.483277592,1.84600262 1.03928941,1.28571429 1.7806385,1.28571429 L1.7806385,1.28571429 Z M192.972918,1.28571429 C193.710545,1.28571429 194.263765,1.84536082 194.263765,2.59155621 L194.263765,2.59155621 L194.263765,11.1728031 C194.263765,11.9189985 193.710545,12.4786451 192.972918,12.4786451 L192.972918,12.4786451 L171.12071,12.4786451 C170.383082,12.4786451 169.829862,13.0382916 169.829862,13.784487 L169.829862,13.784487 L169.829862,33.7452135 C169.829862,34.4914089 170.383082,35.0510555 171.12071,35.0510555 L171.12071,35.0510555 L189.284781,35.0510555 C190.022409,35.0510555 190.575629,35.610702 190.575629,36.3568974 L190.575629,36.3568974 L190.575629,44.9381443 C190.575629,45.6843397 190.022409,46.2439863 189.284781,46.2439863 L189.284781,46.2439863 L171.12071,46.2439863 C170.383082,46.2439863 169.829862,46.8036328 169.829862,47.5498282 L169.829862,47.5498282 L169.829862,70.215513 C169.829862,70.9617084 170.383082,71.5213549 171.12071,71.5213549 L171.12071,71.5213549 L192.972918,71.5213549 C193.710545,71.5213549 194.263765,72.0810015 194.263765,72.8271969 L194.263765,72.8271969 L194.263765,81.4084438 C194.263765,82.1546392 193.710545,82.7142857 192.972918,82.7142857 L192.972918,82.7142857 L157.566808,82.7142857 C156.829181,82.7142857 156.275961,82.1546392 156.275961,81.4084438 L156.275961,81.4084438 L156.275961,2.68483063 C156.275961,2.03190967 156.829181,1.47226313 157.566808,1.28571429 L157.566808,1.28571429 Z M110.908375,45.6408545 C111.172987,44.2149533 113.025275,44.2149533 113.289888,45.6408545 L113.289888,45.6408545 L119.111365,81.1933244 C119.287774,81.9538051 118.670344,82.7142857 117.964711,82.7142857 L117.964711,82.7142857 L106.233552,82.7142857 C105.527918,82.7142857 104.910489,81.9538051 105.086897,81.1933244 L105.086897,81.1933244 Z M65.640782,1.28571429 C66.2022641,1.28571429 66.7637462,1.75262123 66.8573266,2.31290957 L66.8573266,2.31290957 L85.3862373,81.1268021 C85.573398,81.9672346 85.0119159,82.7142857 84.1696927,82.7142857 L84.1696927,82.7142857 L73.5951123,82.7142857 C73.0336302,82.7142857 72.472148,82.2473788 72.3785677,81.6870904 L72.3785677,81.6870904 L69.1968355,67.9600262 C69.1032552,67.3063565 68.541773,66.9328309 67.9802909,66.9328309 L67.9802909,66.9328309 L52.0716302,66.9328309 C51.510148,66.9328309 50.9486659,67.3997379 50.8550855,67.9600262 L50.8550855,67.9600262 L47.6733534,81.6870904 C47.579773,82.3407602 47.0182909,82.7142857 46.4568087,82.7142857 L46.4568087,82.7142857 L35.8822284,82.7142857 C35.0400051,82.7142857 34.478523,81.9672346 34.6656837,81.1268021 L34.6656837,81.1268021 L53.3817552,2.31290957 C53.4753355,1.75262123 54.0368177,1.37909567 54.5982998,1.28571429 L54.5982998,1.28571429 Z M370.519519,1.28571429 C371.26536,1.28571429 371.824741,1.84536082 371.824741,2.59155621 L371.824741,2.59155621 L371.824741,81.2218949 C371.824741,81.9680903 371.26536,82.5277369 370.519519,82.5277369 L370.519519,82.5277369 L359.425129,82.5277369 C358.679287,82.5277369 358.119906,81.9680903 358.119906,81.2218949 L358.119906,81.2218949 L358.119906,41.8600884 C358.119906,41.113893 357.094375,40.9273441 356.907914,41.6735395 L356.907914,41.6735395 L345.999985,81.5949926 C345.906755,82.1546392 345.347374,82.5277369 344.787993,82.5277369 L344.787993,82.5277369 L336.117587,82.5277369 C335.558206,82.5277369 335.092055,82.1546392 334.905595,81.5949926 L334.905595,81.5949926 L323.997665,41.6735395 C323.811205,41.0206186 322.785673,41.113893 322.785673,41.8600884 L322.785673,41.8600884 L322.785673,81.4084438 C322.785673,82.1546392 322.226292,82.7142857 321.480451,82.7142857 L321.480451,82.7142857 L310.386061,82.7142857 C309.64022,82.7142857 309.080839,82.1546392 309.080839,81.4084438 L309.080839,81.4084438 L309.080839,2.68483063 C309.080839,1.93863525 309.64022,1.37898871 310.386061,1.37898871 L310.386061,1.37898871 L323.997665,1.37898871 C324.557046,1.37898871 325.023197,1.7520864 325.209657,2.31173294 L325.209657,2.31173294 L339.287413,57.0638193 C339.567103,58.3696613 341.338476,58.3696613 341.711397,57.0638193 L341.711397,57.0638193 L355.789152,2.31173294 C355.975613,1.7520864 356.441763,1.28571429 356.907914,1.28571429 L356.907914,1.28571429 Z M419.19243,1.28571429 C419.930057,1.28571429 420.483278,1.84536082 420.483278,2.59155621 L420.483278,2.59155621 L420.483278,11.1728031 C420.483278,11.9189985 419.930057,12.4786451 419.19243,12.4786451 L419.19243,12.4786451 L397.340222,12.4786451 C396.602594,12.4786451 396.049374,13.0382916 396.049374,13.784487 L396.049374,13.784487 L396.049374,33.7452135 C396.049374,34.4914089 396.602594,35.0510555 397.340222,35.0510555 L397.340222,35.0510555 L415.504293,35.0510555 C416.241921,35.0510555 416.795141,35.610702 416.795141,36.3568974 L416.795141,36.3568974 L416.795141,44.9381443 C416.795141,45.6843397 416.241921,46.2439863 415.504293,46.2439863 L415.504293,46.2439863 L397.340222,46.2439863 C396.602594,46.2439863 396.049374,46.8036328 396.049374,47.5498282 L396.049374,47.5498282 L396.049374,70.215513 C396.049374,70.9617084 396.602594,71.5213549 397.340222,71.5213549 L397.340222,71.5213549 L419.19243,71.5213549 C419.930057,71.5213549 420.483278,72.0810015 420.483278,72.8271969 L420.483278,72.8271969 L420.483278,81.4084438 C420.483278,82.1546392 419.930057,82.7142857 419.19243,82.7142857 L419.19243,82.7142857 L383.78632,82.7142857 C383.048693,82.7142857 382.495473,82.1546392 382.495473,81.4084438 L382.495473,81.4084438 L382.495473,2.68483063 C382.495473,2.03190967 383.048693,1.47226313 383.78632,1.28571429 L383.78632,1.28571429 Z M276.808146,11.4927697 C270.498993,11.4927697 267.768166,15.1368187 267.768166,20.0889878 L267.768166,20.0889878 L267.768166,63.8175751 C267.768166,68.7697442 270.498993,72.320356 276.808146,72.320356 C283.023132,72.320356 285.848125,68.7697442 285.848125,63.8175751 L285.848125,63.8175751 L285.848125,20.0889878 C285.848125,15.1368187 283.023132,11.4927697 276.808146,11.4927697 Z M60.681023,30.6074705 C60.5874427,29.9538008 59.6516391,29.9538008 59.4644784,30.6074705 L59.4644784,30.6074705 L53.8496569,55.1667759 C53.7560766,55.5403014 54.0368177,55.913827 54.4111391,55.913827 L54.4111391,55.913827 L65.640782,55.913827 C66.1086837,55.913827 66.3894248,55.5403014 66.2958445,55.1667759 L66.2958445,55.1667759 Z M103.866414,1.28571429 C104.592652,1.28571429 105.13733,2.02249225 105.04655,2.75927021 L105.04655,2.75927021 L96.604041,51.2024213 C96.331702,52.58388 94.4253291,52.6759772 94.2437698,51.2945185 L94.2437698,51.2945185 L82.8963117,2.85136746 C82.7147524,2.02249225 83.2594303,1.28571429 84.0764473,1.28571429 L84.0764473,1.28571429 Z M141.829132,1.28571429 C142.646149,1.28571429 143.190827,2.02249225 143.009268,2.85136746 L131.66181,51.2945185 C131.48025,52.6759772 129.573878,52.58388 129.301539,51.2024213 L120.85903,2.75927021 C120.76825,2.02249225 121.312928,1.28571429 122.039165,1.28571429 L141.829132,1.28571429 Z" id="path-2"></path>
        <filter x="-3.6%" y="-17.9%" width="107.1%" height="135.7%" filterUnits="objectBoundingBox" id="filter-3">
            <feOffset dx="0" dy="0" in="SourceAlpha" result="shadowOffsetOuter1"></feOffset>
            <feGaussianBlur stdDeviation="5" in="shadowOffsetOuter1" result="shadowBlurOuter1"></feGaussianBlur>
            <feColorMatrix values="0 0 0 0 0   0 0 0 0 0   0 0 0 0 0  0 0 0 0.723120629 0" type="matrix" in="shadowBlurOuter1"></feColorMatrix>
        </filter>
        <filter x="-2.9%" y="-14.3%" width="105.7%" height="128.6%" filterUnits="objectBoundingBox" id="filter-4">
            <feGaussianBlur stdDeviation="1.5" in="SourceAlpha" result="shadowBlurInner1"></feGaussianBlur>
            <feOffset dx="0" dy="1" in="shadowBlurInner1" result="shadowOffsetInner1"></feOffset>
            <feComposite in="shadowOffsetInner1" in2="SourceAlpha" operator="arithmetic" k2="-1" k3="1" result="shadowInnerInner1"></feComposite>
            <feColorMatrix values="0 0 0 0 1   0 0 0 0 1   0 0 0 0 1  0 0 0 0.5 0" type="matrix" in="shadowInnerInner1"></feColorMatrix>
        </filter>
    </defs>
    <g id="Page-1" stroke="none" stroke-width="1" fill="none" fill-rule="evenodd">
        <g id="fawesome" transform="translate(-597.000000, -685.000000)">
            <g id="top-section" transform="translate(-145.000000, -57.000000)">
                <g id="logo" transform="translate(751.516722, 752.000000)">
                    <use fill="black" fill-opacity="1" filter="url(#filter-3)" xlink:href="#path-2"></use>
                    <use fill="url(#linearGradient-1)" fill-rule="evenodd" xlink:href="#path-2"></use>
                    <use fill="black" fill-opacity="1" filter="url(#filter-4)" xlink:href="#path-2"></use>
                </g>
            </g>
        </g>
    </g>
</svg>