<svg width="1646" height="152" viewBox="0 0 1646 152" fill="none" xmlns="http://www.w3.org/2000/svg">
<path fill-rule="evenodd" clip-rule="evenodd" d="M0 137.53C74.88 81.3301 366.79 87.8901 594.08 113.72C1032.36 163.53 1373.17 146.28 1552.02 98.4001C1593.45 87.3101 1621.94 74.9901 1645.78 61.0001V68.5701C1518.51 145.67 1133.89 181.34 594.08 119.99C366.79 94.1601 71.05 92.0501 0 143.24V137.53Z" fill="url(#paint0_linear_13_100)"/>
<path opacity="0.3" fill-rule="evenodd" clip-rule="evenodd" d="M311 94.798C403.825 96.2769 504.025 103.486 594.08 113.72C1032.36 163.53 1373.17 146.28 1552.02 98.4002C1593.45 87.3102 1621.94 74.9901 1645.78 61.0001C1291.64 -77.0734 95.5 61.0002 311 94.798Z" fill="url(#paint1_linear_13_100)"/>
<defs>
<linearGradient id="paint0_linear_13_100" x1="0" y1="106.068" x2="1645.78" y2="106.068" gradientUnits="userSpaceOnUse">
<stop offset="0.085" stop-color="#2F64C5" stop-opacity="0"/>
<stop offset="0.35" stop-color="#1E2D89"/>
<stop offset="0.5" stop-color="#6321B1"/>
<stop offset="0.65" stop-color="#1E2D89"/>
<stop offset="0.94" stop-color="#2F64C5" stop-opacity="0"/>
</linearGradient>
<linearGradient id="paint1_linear_13_100" x1="823" y1="144" x2="823" y2="-9.99999" gradientUnits="userSpaceOnUse">
<stop/>
<stop offset="1" stop-opacity="0"/>
</linearGradient>
</defs>
</svg>
