<svg width="209" height="57" viewBox="0 0 209 57" fill="none" xmlns="http://www.w3.org/2000/svg">
<path fill-rule="evenodd" clip-rule="evenodd" d="M62.3344 14.3276C62.3344 4.53706 52.0663 0 39.8878 0C26.993 0 15.0534 5.73102 10.5163 14.5664C9.32238 16.9543 8.60601 19.3422 8.60601 22.2077C8.60601 24.5956 9.32238 26.7448 10.5163 28.6551C12.4267 31.5206 15.7698 33.1922 20.7844 33.1922C26.7542 33.1922 31.5301 29.8491 31.5301 24.1181C31.5301 23.8793 31.5301 22.6853 29.8586 22.6853C28.4258 22.6853 27.9482 23.8793 27.9482 24.3569C28.187 28.8939 25.5603 32.4758 20.7844 32.4758C15.2922 32.4758 13.1431 27.6999 13.1431 22.9241C13.1431 13.1336 20.5456 6.4474 28.4258 3.58189C32.4853 2.14913 35.5896 1.67155 39.8878 1.67155C48.7232 1.67155 55.887 5.01465 55.887 14.0888C55.887 21.7301 49.4396 28.1775 41.7982 28.6551L42.037 27.6999L42.2758 26.9836C42.3383 26.7782 42.4008 26.5726 42.4633 26.3666C44.0743 21.0648 45.7349 15.5996 48.7232 11.462C48.962 11.2233 49.4396 10.7457 49.6783 10.2681L49.2008 9.7905L48.962 10.0293C48.4844 10.2681 47.5292 10.9845 47.2904 11.2233C41.7982 15.5215 38.4551 22.6853 35.112 29.8491L34.6344 31.043C34.6344 31.043 34.3956 31.2818 34.3956 31.5206L33.918 32.7146L33.2017 34.1474L32.7241 35.1025L32.2465 36.0577C27.7094 46.087 22.6948 54.9223 12.4267 54.9223C12.0685 54.9223 11.77 54.8626 11.4715 54.8029C11.173 54.7432 10.8745 54.6835 10.5163 54.6835C6.45687 53.9671 4.30774 51.3404 4.30774 47.5197C4.30774 47.1254 4.38011 46.5863 4.44517 46.1016C4.49828 45.7059 4.54653 45.3465 4.54653 45.1318C4.54653 44.1767 3.83015 43.2215 2.3974 43.2215C0.725848 43.2215 0.00947 44.6542 0.00947 46.5646C-0.229323 52.2956 4.06894 55.6387 10.5163 56.1163H12.6655C27.9482 56.1163 37.2611 44.6542 41.3206 30.5655C43.2309 30.3267 46.0965 29.8491 47.2904 29.3715C54.2154 27.4612 62.3344 22.6853 62.3344 14.3276ZM201.55 32.4761L201.073 33.4312C200.911 33.7551 200.752 34.0758 200.596 34.3911C199.37 36.866 198.311 39.0044 197.252 39.6398L197.142 39.943C196.242 42.4144 195.58 44.2326 195.58 45.6097C195.58 47.2812 196.297 47.7588 197.491 47.7588C198.446 47.7588 199.401 47.2812 200.356 46.5648C201.55 45.3709 202.983 43.9381 204.177 42.2666L204.416 41.789L205.371 42.7442C204.177 44.6545 202.505 46.8036 200.356 48.2364C198.923 49.1916 197.491 49.9079 195.58 49.9079C192.954 49.9079 191.043 48.2364 191.043 45.1321C191.043 44.1769 191.282 42.9829 191.521 42.0278L191.76 41.5502L191.521 41.789C190.088 43.9381 186.984 46.5648 184.118 46.8036H183.88C181.73 46.8036 180.775 45.3709 180.775 43.6993C180.775 42.5054 181.253 41.0726 181.73 39.8786C182.043 39.2533 182.356 38.5825 182.708 37.8264C183.163 36.8503 183.684 35.7321 184.357 34.3864C184.557 33.9862 184.764 33.5794 184.97 33.1748C185.991 31.1651 186.984 29.2117 186.984 28.4166C186.984 27.939 186.745 27.7002 186.267 27.7002C184.118 27.7002 181.73 30.8045 179.342 36.058L179.104 36.5355L174.805 46.326H169.313L170.985 42.5054C168.836 44.8933 166.925 46.8036 164.299 46.8036C162.149 46.8036 161.672 45.3709 161.672 43.6993C161.672 43.4605 161.732 43.162 161.791 42.8635C161.851 42.5651 161.911 42.2666 161.911 42.0278V41.789C159.761 44.6545 156.657 46.8036 154.508 46.8036C152.12 46.8036 151.165 45.3709 151.165 43.4605C151.165 42.5054 151.404 41.3114 152.12 39.8786C152.836 38.2071 153.792 36.2967 154.747 34.3864L155.224 33.67L156.18 31.7597C155.98 31.8095 155.791 31.8594 155.611 31.907C154.925 32.0878 154.359 32.2373 153.792 32.2373C153.075 32.2373 152.598 31.9985 152.12 31.7597C152.12 33.1924 151.643 35.3416 150.449 37.7295C148.061 43.2217 144.24 46.5648 139.225 46.5648C135.166 46.5648 133.494 44.1769 133.255 41.5502V41.3114V40.595C130.629 44.1769 128.241 46.5648 125.137 46.5648C122.749 46.5648 121.793 45.3709 121.793 43.6993C121.793 43.0625 122.006 42.4258 122.218 41.789C122.324 41.4706 122.43 41.1522 122.51 40.8338L122.749 40.595L127.524 30.3269C128.002 29.6106 128.002 28.8942 128.002 28.6554C128.002 27.939 127.763 27.7002 127.286 27.7002C125.375 27.7002 123.226 30.0881 121.077 34.6252L120.838 35.1028L115.824 46.326H110.331L117.495 30.0881C117.734 29.3718 117.973 28.6554 117.973 28.4166C117.973 27.939 117.734 27.7002 117.256 27.7002C116.062 27.7002 113.197 30.0881 111.048 34.6252L110.809 35.1028L105.794 46.326H101.018L102.69 42.5054C100.541 45.1321 98.6305 46.5648 96.4814 46.5648C94.3323 46.5648 93.3771 45.1321 93.3771 43.4605V42.2666C91.9443 44.1769 89.3176 46.8036 86.4521 46.8036C83.5866 46.8036 82.3926 45.1321 82.3926 42.5054C82.6314 39.4011 84.303 35.5804 86.9297 31.9985C85.7357 32.7149 84.5418 33.1924 83.3478 33.1924C81.915 33.1924 81.4375 32.4761 81.4375 31.5209C81.4375 30.9614 81.6833 30.4018 81.8869 29.9383C82.0309 29.6106 82.1538 29.3308 82.1538 29.133C82.1538 28.8942 82.1538 28.8942 81.9151 28.8942C81.4375 28.8942 79.5271 30.8045 77.8556 34.3864L77.6168 34.864L72.3633 46.5648H67.1099L68.7815 42.7442C66.6323 45.1321 64.0056 46.8036 62.0953 46.8036C59.9461 46.8036 59.2297 45.6097 59.2297 43.6993C59.2297 43.6993 59.4685 42.9829 59.4685 42.7442C58.0358 44.4157 55.6479 46.8036 52.5436 46.8036C49.678 46.8036 48.4841 45.1321 48.4841 42.5054C48.4841 39.1623 50.3944 35.3416 53.2599 31.5209C55.8867 28.1778 60.6625 24.8347 65.6772 24.8347C69.0202 24.8347 71.647 25.3123 71.4082 26.2675L65.9159 38.6847C65.827 38.9069 65.7216 39.1622 65.6089 39.4353C65.1159 40.6291 64.4832 42.1611 64.4832 42.7442C64.4832 43.2217 64.722 43.4605 65.1996 43.4605C66.8711 43.4605 69.9754 39.1623 71.8858 34.864L72.1245 34.6252L76.184 25.3123H80.9599L79.5271 28.6554C81.1987 26.745 83.5866 24.8347 85.4969 24.8347C86.4521 24.8347 86.9297 25.3123 86.9297 26.0287C86.9297 27.0389 86.2319 28.2235 85.6798 29.1609C85.3184 29.7746 85.0194 30.2823 85.0194 30.5657C85.0194 30.8045 85.2581 31.0433 85.4969 31.0433C86.2133 31.0433 87.4073 30.3269 89.3176 28.8942C91.9443 26.745 95.5262 25.0735 98.8693 25.0735C102.212 25.0735 104.839 25.5511 104.6 26.5062L99.1081 38.9235C99.0192 39.2791 98.8311 39.767 98.6298 40.2888C98.2905 41.1686 97.9142 42.1446 97.9142 42.7442C97.9142 43.2217 98.153 43.4605 98.6305 43.4605C100.541 43.4605 103.406 39.1623 105.317 34.6252L105.556 34.3864L109.615 25.0735H114.63L113.197 28.6554C115.346 26.2675 117.734 24.8347 120.122 24.8347C122.032 24.8347 122.987 25.7899 122.987 27.4614V28.6554C125.375 26.2675 128.002 24.8347 130.629 24.8347C132.3 24.8347 133.494 26.0287 133.494 27.7002C133.494 29.133 133.017 30.5657 132.062 32.7149L131.823 33.1924L128.241 40.595C128.002 41.0726 127.524 42.2666 127.524 42.7442C127.524 43.2217 127.763 43.4605 128.241 43.4605C129.492 43.4605 131.288 41.4587 133.313 39.2027C133.608 38.8744 133.907 38.5407 134.211 38.2071C134.927 35.5804 135.882 33.1924 137.315 31.0433C139.464 27.7002 142.568 25.0735 147.105 25.0735C150.449 25.0735 152.598 26.9838 152.836 30.3269C153.075 30.5657 153.553 31.0433 154.508 31.0433C156.657 31.0433 158.09 29.3718 158.806 27.939V27.7002L159.761 25.3123H165.254L160.478 35.5804L158.09 40.595C158.01 40.8338 157.904 41.0992 157.798 41.3645C157.586 41.8952 157.374 42.4258 157.374 42.7442C157.374 43.2217 157.612 43.4605 158.09 43.4605C160.239 43.4605 163.582 38.4459 165.015 35.3416V35.1028L169.313 25.0735H174.805L170.268 35.3416C170.268 35.3416 167.88 41.0726 167.403 41.5502C167.164 42.0278 167.164 42.5054 167.164 42.7442C167.164 43.2217 167.403 43.4605 167.88 43.4605C170.03 43.4605 173.134 38.2071 174.805 34.864L175.044 34.6252L179.342 24.8347H184.357L182.924 28.1778C184.835 26.0287 187.223 24.5959 189.611 24.5959C191.76 24.5959 192.954 26.0287 192.954 27.7002C192.954 29.6106 191.282 33.1924 190.088 35.3416C189.372 37.0131 188.417 39.1623 187.7 40.595C186.984 41.789 186.984 42.2666 186.984 42.7442C186.984 43.2217 187.223 43.4605 187.7 43.4605C189.611 43.4605 193.192 38.9235 195.342 34.1476L195.58 33.67L198.685 26.745H196.058L196.536 25.3123H199.162L201.311 20.5364L202.983 17.4321H208.236L204.893 25.0735H208.475L207.759 26.745H204.177C204.081 26.9361 203.871 27.4327 203.577 28.1279C203.136 29.171 202.505 30.6611 201.789 32.2373L201.55 32.4761ZM55.1703 43.4605C57.0806 43.4605 59.9461 40.1174 62.3341 34.6252L62.5728 34.3864L65.9159 26.745C63.2892 26.745 60.6625 28.6554 58.7522 31.2821C55.8867 34.864 53.7375 39.6398 53.7375 42.2666C53.9763 43.2217 54.4539 43.4605 55.1703 43.4605ZM88.6012 43.4605C90.7504 43.4605 93.1383 40.1174 95.765 34.6252L96.0038 34.3864L99.3469 26.745C96.7202 26.745 94.0935 28.6554 92.1831 31.2821C89.3176 34.864 87.1685 39.6398 87.1685 42.2666C87.4073 43.2217 87.8849 43.4605 88.6012 43.4605ZM139.464 44.8933C140.419 44.8933 141.374 44.4157 142.568 42.7442C145.434 38.4459 148.061 31.5209 148.299 28.4166C148.299 27.4614 147.822 26.5062 146.867 26.5062C145.911 26.5062 144.956 27.2226 143.524 29.133C140.419 33.4312 138.27 39.6398 138.031 42.2666C137.793 43.9381 138.27 44.8933 139.464 44.8933Z" fill="white"/>
</svg>
