<svg width="100" height="100" viewBox="0 0 100 100" fill="none" xmlns="http://www.w3.org/2000/svg">
<g clip-path="url(#clip0_89_5)">
<rect width="100" height="100" fill=""/>
<rect width="100" height="100" rx="30" fill="url(#paint0_linear_89_5)"/>
<rect x="2" y="2" width="96" height="96" rx="28" stroke="url(#paint1_linear_89_5)" stroke-opacity="0.12" stroke-width="4"/>
<path d="M49.9093 53.7157C49.6936 54.43 49.406 55.1443 49.2621 55.7157C48.3273 55.43 47.4644 55.1443 46.6015 55.0014C43.869 54.5728 41.5679 56.2871 41.2803 59.0728C41.1365 60.0728 41.2084 61.1443 41.4241 62.1443C41.9275 64.0728 43.3656 65.2871 45.3791 65.3586C46.0982 65.3586 46.8891 65.2157 47.6082 65.0728C47.8959 65.0014 47.9678 64.8586 47.9678 64.5728C47.9678 63.6443 47.9678 62.6443 47.9678 61.6443C47.2487 61.6443 46.5296 61.6443 45.7386 61.6443C45.9543 60.93 46.1701 60.3586 46.3858 59.7157C46.3858 59.6443 46.5296 59.5728 46.6015 59.5728C47.8959 59.5728 49.1902 59.5728 50.4846 59.5728C50.4846 59.7157 50.4846 59.8586 50.4846 59.93C50.4846 61.93 50.4846 63.93 50.4846 66.0014C50.4846 66.1443 50.4127 66.3586 50.2689 66.43C47.7521 67.5728 45.1633 67.93 42.5027 66.93C40.2016 66.0728 38.9792 64.2871 38.5478 62.0014C38.2601 60.43 38.332 58.93 38.8354 57.43C39.7702 54.6443 42.2151 52.93 45.1633 52.7871C46.8172 52.7157 48.3992 53.0014 49.9093 53.7157Z" fill="#FF0000"/>
<path d="M54.7991 53.0015C57.7473 53.0015 60.6956 53.0015 63.6438 53.0015C63.4281 53.6443 63.2124 54.2872 62.9967 54.8586C62.9248 54.93 62.709 55.0015 62.5652 55.0015C60.9832 55.0015 59.4731 55.0015 57.8912 55.0015C57.7473 55.0015 57.5316 55.0015 57.3159 55.0015C57.3159 56.2872 57.3159 57.5729 57.3159 58.8586C57.4597 58.8586 57.6754 58.8586 57.8192 58.8586C59.3293 58.8586 60.8394 58.8586 62.3495 58.8586C62.7809 58.8586 62.8528 59.0015 62.8528 59.3586C62.8528 59.7158 62.8528 60.1443 62.8528 60.5015C62.8528 60.7872 62.7809 60.93 62.4214 60.93C60.8394 60.93 59.3293 60.93 57.7473 60.93C57.3159 60.93 57.244 61.0729 57.244 61.43C57.244 62.5015 57.244 63.5729 57.244 64.5729C57.244 65.0015 57.3878 65.1443 57.8192 65.1443C59.5451 65.1443 61.2709 65.1443 62.9967 65.1443C63.1405 65.1443 63.3562 65.1443 63.5719 65.1443C63.5719 65.8586 63.5719 66.5015 63.5719 67.1443C60.6237 67.1443 57.6754 67.1443 54.7272 67.1443C54.7991 62.5015 54.7991 57.7872 54.7991 53.0015Z" fill="#FF0000"/>
<path d="M88.7399 55.3585C87.6612 55.2157 86.5826 55.0014 85.504 54.93C85.0725 54.8585 84.6411 55.0014 84.2815 55.1442C83.0591 55.5728 82.8434 56.93 83.7782 57.7871C84.0658 58.0014 84.3534 58.2157 84.6411 58.3585C85.3602 58.7157 86.0074 59.0728 86.7264 59.5014C87.1579 59.7871 87.5893 60.0728 88.0208 60.3585C90.3938 62.1442 89.7466 65.3585 87.5893 66.6442C86.2231 67.5014 84.6411 67.6442 83.131 67.43C82.2681 67.2871 81.4052 67.0014 80.6142 66.7871C80.4704 66.7157 80.3266 66.6442 80.1108 66.5728C80.3266 65.8585 80.5423 65.2157 80.758 64.5728C81.4771 64.7871 82.1962 65.0728 82.9872 65.2157C83.7782 65.3585 84.5692 65.43 85.3602 65.2157C86.0793 65.0014 86.6545 64.5728 86.7983 63.7871C86.9422 63.0014 86.5826 62.43 85.9354 62.0014C85.3602 61.6442 84.7849 61.3585 84.2096 61.0014C83.5625 60.5728 82.8434 60.2157 82.1962 59.7871C81.0457 58.93 80.3266 57.7871 80.5423 56.3585C80.758 54.7157 81.7647 53.7157 83.2748 53.1442C85.0006 52.5728 86.7983 52.7871 88.5242 53.1442C88.5961 53.1442 88.7399 53.3585 88.7399 53.43C88.7399 54.0728 88.7399 54.7871 88.7399 55.3585Z" fill="#FF0000"/>
<path d="M35.5995 58.0728C35.0961 55.7871 33.8737 54.0728 31.5726 53.2157C30.5659 52.8585 29.5592 52.7871 28.5524 52.7871C25.8199 52.93 23.8784 54.2157 22.8717 56.7157C22.0088 58.93 22.0088 61.1443 22.7998 63.3585C23.5188 65.2871 24.957 66.6443 26.9705 67.1443C27.8334 67.3585 28.7682 67.43 29.703 67.3585C31.5007 67.2871 32.9389 66.5728 34.0894 65.1443C35.3119 63.6443 35.7433 61.93 35.8152 60.0014C35.7433 59.43 35.7433 58.7157 35.5995 58.0728ZM32.6512 62.8585C32.076 64.5014 30.7097 65.3585 28.912 65.2871C27.1862 65.2871 25.8918 64.3585 25.3885 62.6443C25.1008 61.7871 25.0289 60.93 24.8851 60.0728C24.957 60.0728 24.957 60.0728 25.0289 60.0728C25.0289 59.0728 25.1727 58.0728 25.5323 57.0728C26.1795 55.5728 27.4019 54.8585 29.1277 54.8585C30.7816 54.8585 32.0041 55.6443 32.5793 57.1443C33.2984 59.0728 33.2984 61.0014 32.6512 62.8585Z" fill="#FF0000"/>
<path d="M20.8582 67.0015C20.1391 65.7158 19.3481 64.43 18.629 63.1443C18.1976 62.43 17.7661 61.7872 16.9032 61.3586C17.119 61.2158 17.2628 61.2158 17.3347 61.1443C19.9234 59.7872 20.4267 56.2158 18.2695 54.2872C17.3347 53.3586 16.1841 53.0015 14.9617 53.0015C13.3797 52.93 11.8696 53.0015 10.2876 53.0015C10.2157 53.0015 10.1438 53.0015 10 53.0729C10 53.2872 10 53.43 10 53.5729C10 57.8586 10 62.1443 10 66.43C10 67.3586 10 67.3586 10.9348 67.3586C11.5101 67.3586 12.0134 67.3586 12.5887 67.3586C12.5887 65.43 12.5887 63.6443 12.5887 61.7872C12.8763 61.7872 13.164 61.7872 13.3797 61.7872C14.3864 61.7158 15.1055 62.1443 15.6089 63.0015C15.6808 63.1443 15.8246 63.2872 15.8965 63.5015C16.6156 64.7158 17.2628 65.93 17.9819 67.1443C18.0538 67.2872 18.1976 67.43 18.2695 67.43C19.1324 67.43 20.0672 67.43 21.002 67.43C20.9301 67.1443 20.8582 67.0729 20.8582 67.0015ZM15.7527 59.2872C15.4651 59.43 15.1774 59.5015 14.9617 59.5015C14.1707 59.5015 13.3797 59.5015 12.5168 59.5015C12.5168 58.0015 12.5168 56.5015 12.5168 55.0015C13.6673 55.0015 14.746 54.7872 15.8246 55.2872C16.6156 55.6443 16.9751 56.3586 16.9751 57.2872C16.9751 58.2158 16.6156 58.93 15.7527 59.2872Z" fill="#FF0000"/>
<path d="M78.3131 66.8586C77.666 65.7158 77.0188 64.5729 76.3716 63.5015C75.8683 62.6443 75.4368 61.7872 74.4301 61.3586C74.6458 61.2158 74.7896 61.1443 74.9334 61.0729C77.5222 59.6443 77.9536 56.0729 75.6525 54.1443C74.7177 53.3586 73.6391 53.0729 72.4166 53.0015C70.9066 52.93 69.3246 53.0015 67.8145 53.0015C67.7426 53.0015 67.5988 53.0015 67.455 53.0015C67.455 53.2158 67.455 53.3586 67.455 53.5015C67.455 57.93 67.455 62.2872 67.455 66.7158C67.455 66.8586 67.455 66.93 67.455 67.0729C67.455 67.1443 67.5988 67.2872 67.6707 67.2872C68.4617 67.2872 69.1808 67.2872 69.9718 67.2872C69.9718 67.0729 69.9718 66.8586 69.9718 66.7158C69.9718 65.1443 69.9718 63.6443 69.9718 62.0729C69.9718 61.93 70.1156 61.7158 70.1875 61.7158C71.5537 61.6443 72.2009 61.5729 73.0638 62.93C73.2076 63.1443 73.2795 63.2872 73.4234 63.5015C74.0705 64.6443 74.7177 65.7872 75.4368 67.0015C75.5087 67.1443 75.6525 67.2872 75.7244 67.2872C76.6593 67.2872 77.5222 67.2872 78.457 67.2872C78.3851 67.0729 78.3851 67.0015 78.3131 66.8586ZM72.7043 59.5015C72.4166 59.5729 72.129 59.5729 71.9133 59.5729C71.338 59.5729 70.7627 59.5729 70.1156 59.5729C70.1156 58.0729 70.1156 56.7158 70.1156 55.2872C70.1156 55.2158 70.2594 55.0015 70.3313 55.0015C71.1223 55.0015 71.9852 55.0015 72.7762 55.0729C73.9267 55.2872 74.5739 56.1443 74.5739 57.2158C74.502 58.5015 73.8548 59.2872 72.7043 59.5015Z" fill="#FF0000"/>
<path d="M37.5504 36.3496C37.6411 35.7191 37.7318 34.9985 37.9131 34.3679C38.5479 31.9358 39.7268 29.9541 42.0845 28.9633C44.4423 27.9724 46.6187 28.5129 48.8857 29.774C48.2509 30.1343 47.6162 30.4045 47.0721 30.6747C44.533 32.116 42.4473 34.0977 41.087 36.8C39.8175 39.142 39.6361 41.6642 40.2709 44.1863C40.2709 44.3665 40.2709 44.4566 40.2709 44.6367C39.0013 43.1054 38.1852 41.3039 37.7318 39.3222C37.6411 38.8718 37.5504 38.4214 37.4597 37.971C37.5504 37.4305 37.5504 36.8901 37.5504 36.3496Z" fill="#FF0000"/>
<path d="M50.6994 25.0901C51.3341 25.1802 51.9689 25.2702 52.6037 25.4504C54.4173 25.9008 56.0496 26.7115 57.2285 28.1527C59.0422 30.3146 59.1328 34.1879 57.3192 36.2597C57.2285 36.0795 57.1378 35.8993 57.0471 35.7192C55.3242 32.2963 52.8757 29.684 49.2484 28.1527C47.072 27.2519 44.8957 27.2519 42.7193 27.7924C42.5379 27.7924 42.4472 27.8825 42.2659 27.8825C43.8075 26.5313 45.5304 25.6305 47.5255 25.2702C47.9789 25.1802 48.4323 25.0901 48.8857 25C49.5205 25.0901 50.0646 25.0901 50.6994 25.0901Z" fill="#FF0000"/>
<path d="M42.2658 38.1512C42.8099 39.052 43.2633 39.9528 43.8074 40.7635C45.8025 43.646 48.3416 45.7177 51.7875 46.6185C53.5105 47.0689 55.2335 46.8887 56.9564 46.5284C57.0471 46.5284 57.1378 46.5284 57.2285 46.4384C57.2285 46.5284 57.2285 46.5284 57.1378 46.6185C53.5105 49.501 47.8882 50.0414 44.0795 47.6994C40.4522 45.4475 40.2708 41.4841 42.0845 38.3314C42.1752 38.2413 42.2658 38.1512 42.2658 38.1512Z" fill="#FF0000"/>
<path d="M59.4049 29.5939C59.4049 29.6839 59.4956 29.774 59.4956 29.8641C62.1254 33.4672 62.7601 37.4306 61.0372 41.5741C60.1303 43.736 58.498 45.3574 56.0496 45.7177C54.1453 45.9879 52.4223 45.5375 50.6993 44.4566C51.1528 44.1864 51.6062 44.0062 51.9689 43.8261C54.6894 42.3848 56.9564 40.4031 58.4074 37.6107C59.7676 35.1787 59.949 32.5664 59.3142 29.8641C59.3142 29.774 59.3142 29.6839 59.2235 29.5939C59.3142 29.6839 59.3142 29.6839 59.4049 29.5939Z" fill="#FF0000"/>
</g>
<defs>
<linearGradient id="paint0_linear_89_5" x1="50" y1="0" x2="50" y2="100" gradientUnits="userSpaceOnUse">
<stop stop-color="#272C7D"/>
<stop offset="1" stop-color="#12143C"/>
</linearGradient>
<linearGradient id="paint1_linear_89_5" x1="50" y1="0" x2="50" y2="100" gradientUnits="userSpaceOnUse">
<stop stop-color="white"/>
<stop offset="1" stop-color="#202369"/>
</linearGradient>
<clipPath id="clip0_89_5">
<rect width="100" height="100" fill="white"/>
</clipPath>
</defs>
</svg>
