<svg width="100" height="100" viewBox="0 0 100 100" fill="none" xmlns="http://www.w3.org/2000/svg">
<g clip-path="url(#clip0_89_5)">
<rect width="100" height="100" fill=""/>
<rect width="100" height="100" rx="30" fill="url(#paint0_linear_89_5)"/>
<rect x="2" y="2" width="96" height="96" rx="28" stroke="url(#paint1_linear_89_5)" stroke-opacity="0.12" stroke-width="4"/>
<path fill-rule="evenodd" clip-rule="evenodd" d="M15.1321 44.3692C18.15 44.4615 18.3821 46.123 18.3821 46.5384V46.5845C18.3821 46.6307 18.3821 46.6307 18.3821 46.6307V47.9692H15.5964V47.0922C15.5964 46.4461 14.8535 46.3999 14.8535 46.3999C14.25 46.3538 14.1571 46.7692 14.1571 46.7692C13.8321 47.4153 14.3892 47.923 14.3892 47.923C14.6678 48.2461 16.1071 48.9384 16.1071 48.9384C16.5714 49.0768 17.3142 49.5845 17.3142 49.5845C18.7535 50.4615 18.6142 52.0768 18.6607 52.123V53.1845C18.475 55.5845 15.4107 55.723 14.9 55.723H14.8071C11.2785 55.723 11.0928 53.5999 11.0464 53.2768V51.9384H14.0178V52.7692C14.0178 53.5076 14.7607 53.5538 14.7607 53.5538C15.55 53.5538 15.6428 52.8153 15.6428 52.8153C15.7821 52.0768 14.9 51.5692 14.9 51.5692C14.0642 51.1538 12.6714 50.4153 12.6714 50.4153C11.975 49.9538 11.6964 49.5845 11.6964 49.5845C11.325 49.0768 11.2785 48.3845 11.2321 48.1076V48.0615V47.1845C11.2321 46.123 11.5107 45.7538 11.5571 45.7076V45.6615C12.3464 44.4615 14.4821 44.3692 14.4821 44.3692H15.1321ZM51.3464 44.3692C51.4857 44.3692 51.5321 44.3692 51.5321 44.3692C55.0142 44.4615 54.7821 46.6307 54.7821 46.6307V47.9692H51.9964V47.0922C51.9964 46.4461 51.2535 46.3999 51.2535 46.3999C50.65 46.3999 50.5107 46.8153 50.5107 46.8153C50.2321 47.3692 50.65 47.8307 50.7428 47.9692C51.0214 48.2922 52.4607 48.9845 52.4607 48.9845C52.9714 49.0768 53.7142 49.5384 53.7142 49.5384C55.1071 50.4153 55.0142 52.0307 55.0142 52.0307V53.0922C54.875 55.6307 51.4392 55.6768 51.2071 55.6307C47.6321 55.6307 47.4464 53.4153 47.4464 53.1845V51.8922H50.4178V52.7692C50.4178 53.5076 51.1607 53.5538 51.1607 53.5538C51.95 53.5538 52.0428 52.8153 52.0428 52.8153C52.1821 52.0768 51.3 51.5692 51.3 51.5692C50.4642 51.1538 49.0714 50.4153 49.0714 50.4153C48.4214 49.9538 48.1428 49.5384 48.1428 49.5384C47.6785 48.9384 47.6785 47.9692 47.6785 47.9692V47.0922C47.6785 45.9384 48.0035 45.6153 48.0035 45.6153C48.6535 44.4615 50.5107 44.323 51.2535 44.323L51.3464 44.3692ZM61.3285 44.7384V52.6768C61.3285 53.4615 62.025 53.5076 62.1642 53.5076H62.2107C62.9071 53.5076 62.9535 52.8615 62.9535 52.6768V52.6307H63.0464V44.7384H65.9714V52.7692C65.9714 55.4461 62.7214 55.5845 62.3035 55.6307H62.2571C57.9857 55.6307 58.3107 52.6307 58.3107 52.6307V44.7384H61.3285ZM85.3785 44.323C85.8892 44.323 87.9785 44.4615 88.5821 45.7999C88.5821 45.7999 88.9071 46.2153 88.8142 47.923H86.0285V47.0461C86.0285 46.9538 85.9821 46.3538 85.2857 46.3538C85.2857 46.3538 84.5428 46.3999 84.5428 46.9999V52.8153C84.5428 52.8615 84.5428 53.5538 85.3321 53.5538C85.3321 53.5538 86.0285 53.5076 86.0285 52.723V51.0615H85.2857V49.4461H88.8607V52.723C88.8607 52.8153 88.8142 53.6922 88.7214 53.9692C88.7214 53.9692 88.5821 54.4768 88.1178 54.8461C88.0714 54.8922 87.5142 55.3999 85.8428 55.5845C85.7964 55.5845 81.8035 55.8615 81.7571 52.9999V47.4615C81.7571 47.4615 81.7571 47.3692 81.7571 47.2307V47.1384C81.7571 46.3538 82.0821 44.3692 85.3321 44.3692L85.3785 44.323ZM44.0571 44.7384L44.3821 55.3076H41.5964L41.5035 47.3692H41.3642L39.925 55.3076H37.0464L35.5607 47.3692H35.375L35.3285 55.3076H32.5892L32.8214 44.7384H37.4642L38.3464 50.5076H38.5785L39.5071 44.6922H44.0571V44.7384ZM27.7607 44.7384L29.5714 55.2615H26.6464L25.5785 47.0922H25.3464L24.2785 55.2615H21.3071L23.1642 44.7384H27.7607ZM73.075 44.7384L75.9071 51.1999H76.0464L75.8607 44.7384H78.6928V55.3076H75.3964L72.4714 48.8461H72.2857L72.425 55.3076H69.6857V44.7384H73.075Z" fill="white"/>
</g>
<defs>
<linearGradient id="paint0_linear_89_5" x1="50" y1="0" x2="50" y2="100" gradientUnits="userSpaceOnUse">
<stop stop-color="#272C7D"/>
<stop offset="1" stop-color="#12143C"/>
</linearGradient>
<linearGradient id="paint1_linear_89_5" x1="50" y1="0" x2="50" y2="100" gradientUnits="userSpaceOnUse">
<stop stop-color="white"/>
<stop offset="1" stop-color="#202369"/>
</linearGradient>
<clipPath id="clip0_89_5">
<rect width="100" height="100" fill="white"/>
</clipPath>
</defs>
</svg>
