<svg width="58" height="39" viewBox="0 0 58 39" fill="none" xmlns="http://www.w3.org/2000/svg">
<path fill-rule="evenodd" clip-rule="evenodd" d="M52.3901 32.58V7.45002C52.3901 3.42002 49.1201 0.150024 45.0901 0.150024H12.6301C8.61011 0.150024 5.33008 3.42002 5.33008 7.45002V32.58H1.47C0.799988 32.58 0.25 33.13 0.25 33.8C0.25 36.29 2.27002 38.31 4.76001 38.31H52.96C55.45 38.31 57.47 36.29 57.47 33.8C57.47 33.12 56.92 32.58 56.25 32.58H52.3901ZM48.8201 32.58V7.45002C48.8201 5.40002 47.1501 3.73002 45.1001 3.73002H12.6401C10.5901 3.73002 8.9201 5.40002 8.9201 7.45002V32.58H48.8201Z" fill="white"/>
</svg>
