<svg width="100" height="100" viewBox="0 0 100 100" fill="none" xmlns="http://www.w3.org/2000/svg">
<g clip-path="url(#clip0_89_5)">
<rect width="100" height="100" fill=""/>
<rect width="100" height="100" rx="30" fill="url(#paint0_linear_89_5)"/>
<rect x="2" y="2" width="96" height="96" rx="28" stroke="url(#paint1_linear_89_5)" stroke-opacity="0.12" stroke-width="4"/>
<path d="M83.7826 46.938C83.7826 45.6428 82.6565 44.4285 81.2891 44.4285H73.487C72.2 44.4285 70.9935 45.6428 70.9935 46.938V54.0618C70.9935 55.357 72.1196 56.5713 73.487 56.5713H81.2891C82.6565 56.5713 83.7826 55.357 83.7826 54.0618V46.938ZM87 46.938V54.1428C87 56.8142 84.587 58.9999 81.6913 58.9999H73.8891C70.9935 58.9999 68.5804 56.8142 68.5804 54.0618V46.857C68.5804 44.1047 70.9131 41.9189 73.8891 41.9189H81.6913C84.6674 41.9999 87 44.1047 87 46.938ZM62.0652 58.9999H65.2826V41.9999H62.0652V58.9999ZM45.2543 53.2523L54.263 49.9332C58.1239 48.4761 58.9282 45.8047 58.9282 41.9999H41.5543V44.3475H56.0326C55.8717 45.9666 54.7457 47.0189 53.5391 47.5047L44.6913 50.8237C40.6696 52.2809 40.4282 54.7094 40.4282 58.9999H58.9282V56.6523H43.3239C43.2435 54.7094 43.8065 53.8189 45.2543 53.2523ZM33.913 58.9999H37.1304V41.9999H33.913V58.9999ZM27.9608 41.9999H30.6957V48.0713C30.6957 48.9618 30.2935 49.6904 29.8109 50.4189L25.6283 57.2189C24.1 59.7285 19.4348 59.6475 17.9065 57.2189L13.7239 50.257C13.4022 49.6904 13 48.8809 13 47.9904V41.9999H15.7348V48.3142C15.7348 48.3951 15.8152 48.638 15.8152 48.638L20.1587 55.8428C20.8022 56.8142 22.8935 56.8142 23.5369 55.8428L27.7196 48.7999C27.8 48.638 27.8804 48.3951 27.8804 48.2332C27.9609 48.2332 27.9608 41.9999 27.9608 41.9999Z" fill="white"/>
</g>
<defs>
<linearGradient id="paint0_linear_89_5" x1="50" y1="0" x2="50" y2="100" gradientUnits="userSpaceOnUse">
<stop stop-color="#272C7D"/>
<stop offset="1" stop-color="#12143C"/>
</linearGradient>
<linearGradient id="paint1_linear_89_5" x1="50" y1="0" x2="50" y2="100" gradientUnits="userSpaceOnUse">
<stop stop-color="white"/>
<stop offset="1" stop-color="#202369"/>
</linearGradient>
<clipPath id="clip0_89_5">
<rect width="100" height="100" fill="white"/>
</clipPath>
</defs>
</svg>
