<svg width="241" height="75" viewBox="0 0 241 75" fill="none" xmlns="http://www.w3.org/2000/svg">
<path fill-rule="evenodd" clip-rule="evenodd" d="M23.8218 9.00998C23.8218 9.91933 24.558 10.6493 25.4611 10.6493C26.3705 10.6493 27.1066 9.91933 27.1066 9.00998C27.1066 8.10063 26.3705 7.37067 25.4611 7.37067C24.558 7.37067 23.8218 8.10063 23.8218 9.00998ZM23.5534 6.06356C24.4627 6.06356 25.1927 5.32742 25.1927 4.42426C25.1927 3.51491 24.4627 2.77877 23.5534 2.77877C22.644 2.77877 21.9141 3.51491 21.9141 4.42426C21.9141 5.32742 22.644 6.06356 23.5534 6.06356ZM25.7321 13.6743C25.7321 14.5836 26.4682 15.3136 27.3714 15.3136C28.2807 15.3136 29.0169 14.5836 29.0169 13.6743C29.0169 12.7649 28.2807 12.035 27.3714 12.035C26.4682 12.035 25.7321 12.7649 25.7321 13.6743ZM30.509 12.2941C30.509 13.2035 31.2451 13.9335 32.1483 13.9335C33.0576 13.9335 33.7937 13.2035 33.7937 12.2941C33.7937 11.3848 33.0576 10.6548 32.1483 10.6548C31.2451 10.6548 30.509 11.3848 30.509 12.2941ZM29.5223 7.36758C29.5223 8.27693 30.2584 9.00688 31.1616 9.00688C32.0709 9.00688 32.8071 8.27693 32.8071 7.36758C32.8071 6.45823 32.0709 5.72828 31.1616 5.72828C30.2584 5.72828 29.5223 6.45823 29.5223 7.36758ZM30.225 3.93556C31.1344 3.93556 31.8643 3.19942 31.8643 2.29626C31.8643 1.38691 31.1344 0.650772 30.225 0.650772C29.3157 0.650772 28.5857 1.38691 28.5857 2.29626C28.5857 3.19942 29.3157 3.93556 30.225 3.93556ZM37.0841 3.28479C37.9935 3.28479 38.7234 2.54865 38.7234 1.64549C38.7234 0.73614 37.9935 0 37.0841 0C36.1748 0 35.4386 0.73614 35.4386 1.64549C35.4386 2.54865 36.1748 3.28479 37.0841 3.28479ZM37.0841 8.34312C37.9935 8.34312 38.7234 7.60698 38.7234 6.70382C38.7234 5.79447 37.9935 5.05833 37.0841 5.05833C36.1748 5.05833 35.4386 5.79447 35.4386 6.70382C35.4386 7.60698 36.1748 8.34312 37.0841 8.34312ZM37.0841 13.4565C37.9935 13.4565 38.7234 12.7204 38.7234 11.8172C38.7234 10.9079 37.9935 10.1717 37.0841 10.1717C36.1748 10.1717 35.4386 10.9079 35.4386 11.8172C35.4386 12.7204 36.1748 13.4565 37.0841 13.4565ZM43.9902 3.98567C44.8996 3.98567 45.6295 3.24953 45.6295 2.34637C45.6295 1.43702 44.8996 0.700879 43.9902 0.700879C43.0809 0.700879 42.3509 1.43702 42.3509 2.34637C42.3509 3.24953 43.0809 3.98567 43.9902 3.98567ZM42.98 8.96668C43.8894 8.96668 44.6193 8.23053 44.6193 7.32737C44.6193 6.41802 43.8894 5.68188 42.98 5.68188C42.0707 5.68188 41.3407 6.41802 41.3407 7.32737C41.3407 8.23053 42.0707 8.96668 42.98 8.96668ZM42.0249 13.8939C42.9343 13.8939 43.6642 13.1577 43.6642 12.2546C43.6642 11.3452 42.9343 10.6091 42.0249 10.6091C41.1156 10.6091 40.3856 11.3452 40.3856 12.2546C40.3856 13.1577 41.1156 13.8939 42.0249 13.8939ZM50.6458 5.98995C51.5551 5.98995 52.2913 5.25381 52.2913 4.35065C52.2913 3.4413 51.5551 2.70516 50.6458 2.70516C49.7364 2.70516 49.0065 3.4413 49.0065 4.35065C49.0065 5.25381 49.7364 5.98995 50.6458 5.98995ZM48.6805 10.6524C49.5898 10.6524 50.3198 9.91623 50.3198 9.01307C50.3198 8.10372 49.5898 7.36758 48.6805 7.36758C47.7711 7.36758 47.0412 8.10372 47.0412 9.01307C47.0412 9.91623 47.7711 10.6524 48.6805 10.6524ZM45.1433 13.7547C45.1433 14.664 45.8794 15.394 46.7826 15.394C47.6919 15.394 48.4281 14.664 48.4281 13.7547C48.4281 12.8453 47.6919 12.1154 46.7826 12.1154C45.8794 12.1154 45.1433 12.8453 45.1433 13.7547ZM56.7656 9.3001C57.675 9.3001 58.4049 8.56396 58.4049 7.65461C58.4049 6.75145 57.675 6.01531 56.7656 6.01531C55.8563 6.01531 55.1263 6.75145 55.1263 7.65461C55.1263 8.56396 55.8563 9.3001 56.7656 9.3001ZM54.0011 13.4918C54.9104 13.4918 55.6404 12.7556 55.6404 11.8525C55.6404 10.9431 54.9104 10.207 54.0011 10.207C53.0917 10.207 52.3618 10.9431 52.3618 11.8525C52.3618 12.7556 53.0917 13.4918 54.0011 13.4918ZM49.5403 16.0417C49.5403 16.951 50.2765 17.681 51.1796 17.681C52.089 17.681 52.8251 16.951 52.8251 16.0417C52.8251 15.1323 52.089 14.4024 51.1796 14.4024C50.2765 14.4024 49.5403 15.1323 49.5403 16.0417ZM62.2038 10.4631C61.2944 10.4631 60.5645 11.1992 60.5645 12.1024C60.5645 13.0117 61.2944 13.7479 62.2038 13.7479C63.1131 13.7479 63.8431 13.0117 63.8431 12.1024C63.8431 11.1992 63.1131 10.4631 62.2038 10.4631ZM56.9673 15.655C56.9673 16.5644 57.7034 17.2943 58.6066 17.2943C59.516 17.2943 60.2521 16.5644 60.2521 15.655C60.2521 14.7457 59.516 14.0157 58.6066 14.0157C57.7034 14.0157 56.9673 14.7457 56.9673 15.655ZM54.9785 17.5275C54.0691 17.5275 53.3392 18.2637 53.3392 19.1668C53.3392 20.0762 54.0691 20.8123 54.9785 20.8123C55.8878 20.8123 56.6178 20.0762 56.6178 19.1668C56.6178 18.2637 55.8878 17.5275 54.9785 17.5275ZM23.0523 17.7304C23.9617 17.7304 24.6916 16.9943 24.6916 16.0911C24.6916 15.1818 23.9617 14.4457 23.0523 14.4457C22.143 14.4457 21.413 15.1818 21.413 16.0911C21.413 16.9943 22.143 17.7304 23.0523 17.7304ZM19.1489 17.5937C18.2396 17.5937 17.5096 18.3299 17.5096 19.233C17.5096 20.1424 18.2396 20.8785 19.1489 20.8785C20.0583 20.8785 20.7882 20.1424 20.7882 19.233C20.7882 18.3299 20.0583 17.5937 19.1489 17.5937ZM7.60513 19.0462C8.51447 19.0462 9.24443 18.3101 9.24443 17.4069C9.24443 16.4976 8.51447 15.7614 7.60513 15.7614C6.69578 15.7614 5.96582 16.4976 5.96582 17.4069C5.96582 18.3101 6.69578 19.0462 7.60513 19.0462ZM16.0027 24.6836C16.912 24.6836 17.642 23.9474 17.642 23.0443C17.642 22.1349 16.912 21.3988 16.0027 21.3988C15.0933 21.3988 14.3634 22.1349 14.3634 23.0443C14.3634 23.9474 15.0933 24.6836 16.0027 24.6836ZM15.2962 27.4382C15.2962 26.5289 14.5601 25.7989 13.6569 25.7989C12.7476 25.7989 12.0114 26.5289 12.0114 27.4382C12.0114 28.3476 12.7476 29.0775 13.6569 29.0775C14.5601 29.0775 15.2962 28.3476 15.2962 27.4382ZM3.28479 37.1163C3.28479 36.2069 2.54865 35.477 1.64549 35.477C0.73614 35.477 0 36.2069 0 37.1163C0 38.0256 0.73614 38.7556 1.64549 38.7556C2.54865 38.7556 3.28479 38.0256 3.28479 37.1163ZM4.32033 25.1964C5.22968 25.1964 5.95964 24.4602 5.95964 23.5571C5.95964 22.6477 5.22968 21.9116 4.32033 21.9116C3.41099 21.9116 2.68103 22.6477 2.68103 23.5571C2.68103 24.4602 3.41099 25.1964 4.32033 25.1964ZM9.00255 23.854C8.0932 23.854 7.36325 24.5902 7.36325 25.4933C7.36325 26.4027 8.0932 27.1388 9.00255 27.1388C9.9119 27.1388 10.6419 26.4027 10.6419 25.4933C10.6419 24.5902 9.9119 23.854 9.00255 23.854ZM11.8042 21.8491C12.7136 21.8491 13.4435 21.113 13.4435 20.2098C13.4435 19.3005 12.7136 18.5643 11.8042 18.5643C10.8949 18.5643 10.1649 19.3005 10.1649 20.2098C10.1649 21.113 10.8949 21.8491 11.8042 21.8491ZM15.5783 17.2919C16.4877 17.2919 17.2176 16.5557 17.2176 15.6526C17.2176 14.7432 16.4877 14.0071 15.5783 14.0071C14.669 14.0071 13.939 14.7432 13.939 15.6526C13.939 16.5557 14.669 17.2919 15.5783 17.2919ZM12.0114 13.6743C12.9208 13.6743 13.6507 12.9381 13.6507 12.035C13.6507 11.1256 12.9208 10.3895 12.0114 10.3895C11.1021 10.3895 10.3721 11.1256 10.3721 12.035C10.3721 12.9381 11.1021 13.6743 12.0114 13.6743ZM17.3673 9.27412C18.2767 9.27412 19.0066 8.53798 19.0066 7.63482C19.0066 6.72547 18.2767 5.98933 17.3673 5.98933C16.458 5.98933 15.728 6.72547 15.728 7.63482C15.728 8.53798 16.458 9.27412 17.3673 9.27412ZM20.2018 13.5023C21.1111 13.5023 21.8411 12.7661 21.8411 11.863C21.8411 10.9536 21.1111 10.2175 20.2018 10.2175C19.2924 10.2175 18.5625 10.9536 18.5625 11.863C18.5625 12.7661 19.2924 13.5023 20.2018 13.5023ZM25.4636 63.5802C24.5543 63.5802 23.8243 64.3163 23.8243 65.2195C23.8243 66.1288 24.5543 66.865 25.4636 66.865C26.373 66.865 27.1029 66.1288 27.1029 65.2195C27.1029 64.3163 26.373 63.5802 25.4636 63.5802ZM23.5534 68.169C22.644 68.169 21.9141 68.9051 21.9141 69.8083C21.9141 70.7176 22.644 71.4538 23.5534 71.4538C24.4627 71.4538 25.1927 70.7176 25.1927 69.8083C25.1927 68.9051 24.4627 68.169 23.5534 68.169ZM27.3745 58.9159C26.4651 58.9159 25.7352 59.652 25.7352 60.5614C25.7352 61.4646 26.4651 62.2007 27.3745 62.2007C28.2838 62.2007 29.0138 61.4646 29.0138 60.5614C29.0138 59.652 28.2838 58.9159 27.3745 58.9159ZM32.1507 60.296C31.2414 60.296 30.5114 61.0322 30.5114 61.9353C30.5114 62.8447 31.2414 63.5808 32.1507 63.5808C33.0601 63.5808 33.79 62.8447 33.79 61.9353C33.79 61.0322 33.0601 60.296 32.1507 60.296ZM31.1647 65.2226C30.2553 65.2226 29.5254 65.9587 29.5254 66.8619C29.5254 67.7712 30.2553 68.5074 31.1647 68.5074C32.074 68.5074 32.804 67.7712 32.804 66.8619C32.804 65.9587 32.074 65.2226 31.1647 65.2226ZM30.225 70.297C29.3157 70.297 28.5857 71.0331 28.5857 71.9363C28.5857 72.8456 29.3157 73.5818 30.225 73.5818C31.1344 73.5818 31.8643 72.8456 31.8643 71.9363C31.8643 71.0331 31.1344 70.297 30.225 70.297ZM37.0841 70.9478C36.1748 70.9478 35.4386 71.6839 35.4386 72.5871C35.4386 73.4964 36.1748 74.2326 37.0841 74.2326C37.9935 74.2326 38.7234 73.4964 38.7234 72.5871C38.7234 71.6839 37.9935 70.9478 37.0841 70.9478ZM37.0841 65.8894C36.1748 65.8894 35.4386 66.6256 35.4386 67.5287C35.4386 68.4381 36.1748 69.1742 37.0841 69.1742C37.9935 69.1742 38.7234 68.4381 38.7234 67.5287C38.7234 66.6256 37.9935 65.8894 37.0841 65.8894ZM37.0841 60.7761C36.1748 60.7761 35.4386 61.5122 35.4386 62.4154C35.4386 63.3247 36.1748 64.0608 37.0841 64.0608C37.9935 64.0608 38.7234 63.3247 38.7234 62.4154C38.7234 61.5122 37.9935 60.7761 37.0841 60.7761ZM43.9902 70.2469C43.0809 70.2469 42.3509 70.983 42.3509 71.8862C42.3509 72.7955 43.0809 73.5317 43.9902 73.5317C44.8996 73.5317 45.6295 72.7955 45.6295 71.8862C45.6295 70.983 44.8996 70.2469 43.9902 70.2469ZM44.6224 66.9083C44.6224 65.9989 43.8863 65.269 42.9831 65.269C42.0738 65.269 41.3376 65.9989 41.3376 66.9083C41.3376 67.8176 42.0738 68.5476 42.9831 68.5476C43.8863 68.5476 44.6224 67.8176 44.6224 66.9083ZM43.6673 61.9811C43.6673 61.0717 42.9312 60.3418 42.028 60.3418C41.1186 60.3418 40.3825 61.0717 40.3825 61.9811C40.3825 62.8904 41.1186 63.6204 42.028 63.6204C42.9312 63.6204 43.6673 62.8904 43.6673 61.9811ZM50.6458 68.2426C49.7364 68.2426 49.0065 68.9787 49.0065 69.8819C49.0065 70.7913 49.7364 71.5274 50.6458 71.5274C51.5551 71.5274 52.2913 70.7913 52.2913 69.8819C52.2913 68.9787 51.5551 68.2426 50.6458 68.2426ZM50.3229 65.2226C50.3229 64.3132 49.5867 63.5833 48.6836 63.5833C47.7742 63.5833 47.0381 64.3132 47.0381 65.2226C47.0381 66.1319 47.7742 66.8619 48.6836 66.8619C49.5867 66.8619 50.3229 66.1319 50.3229 65.2226ZM48.4281 60.4779C48.4281 59.5685 47.6919 58.8386 46.7888 58.8386C45.8794 58.8386 45.1433 59.5685 45.1433 60.4779C45.1433 61.3872 45.8794 62.1172 46.7888 62.1172C47.6919 62.1172 48.4281 61.3872 48.4281 60.4779ZM56.7656 64.9325C55.8563 64.9325 55.1263 65.6686 55.1263 66.5718C55.1263 67.4811 55.8563 68.2172 56.7656 68.2172C57.675 68.2172 58.4049 67.4811 58.4049 66.5718C58.4049 65.6686 57.675 64.9325 56.7656 64.9325ZM55.6435 62.3826C55.6435 61.4732 54.9073 60.7433 54.0042 60.7433C53.0948 60.7433 52.3587 61.4732 52.3587 62.3826C52.3587 63.2919 53.0948 64.0219 54.0042 64.0219C54.9073 64.0219 55.6435 63.2919 55.6435 62.3826ZM51.1821 56.5485C50.2728 56.5485 49.5428 57.2846 49.5428 58.1878C49.5428 59.0972 50.2728 59.8333 51.1821 59.8333C52.0915 59.8333 52.8214 59.0972 52.8214 58.1878C52.8214 57.2846 52.0915 56.5485 51.1821 56.5485ZM62.2038 60.4853C61.2944 60.4853 60.5645 61.2214 60.5645 62.1246C60.5645 63.034 61.2944 63.7701 62.2038 63.7701C63.1131 63.7701 63.8431 63.034 63.8431 62.1246C63.8431 61.2214 63.1131 60.4853 62.2038 60.4853ZM58.6097 56.9351C57.7003 56.9351 56.9704 57.6713 56.9704 58.5744C56.9704 59.4838 57.7003 60.2199 58.6097 60.2199C59.519 60.2199 60.249 59.4838 60.249 58.5744C60.249 57.6713 59.519 56.9351 58.6097 56.9351ZM54.9785 53.4202C54.0691 53.4202 53.3392 54.1564 53.3392 55.0595C53.3392 55.9689 54.0691 56.705 54.9785 56.705C55.8878 56.705 56.6178 55.9689 56.6178 55.0595C56.6178 54.1564 55.8878 53.4202 54.9785 53.4202ZM24.6947 58.1445C24.6947 57.2352 23.9586 56.5052 23.0554 56.5052C22.146 56.5052 21.4099 57.2352 21.4099 58.1445C21.4099 59.0539 22.146 59.7838 23.0554 59.7838C23.9586 59.7838 24.6947 59.0539 24.6947 58.1445ZM19.1489 56.6388C20.0583 56.6388 20.7882 55.9027 20.7882 54.9995C20.7882 54.0902 20.0583 53.354 19.1489 53.354C18.2396 53.354 17.5096 54.0902 17.5096 54.9995C17.5096 55.9027 18.2396 56.6388 19.1489 56.6388ZM7.60513 55.1863C6.69578 55.1863 5.96582 55.9225 5.96582 56.8256C5.96582 57.735 6.69578 58.4711 7.60513 58.4711C8.51447 58.4711 9.24443 57.735 9.24443 56.8256C9.24443 55.9225 8.51447 55.1863 7.60513 55.1863ZM14.3609 51.1908C14.3609 52.1001 15.097 52.8301 16.0002 52.8301C16.9096 52.8301 17.6457 52.1001 17.6457 51.1908C17.6457 50.2814 16.9096 49.5515 16.0002 49.5515C15.097 49.5515 14.3609 50.2814 14.3609 51.1908ZM15.2962 46.7943C15.2962 45.885 14.5601 45.155 13.6569 45.155C12.7476 45.155 12.0114 45.885 12.0114 46.7943C12.0114 47.7037 12.7476 48.4337 13.6569 48.4337C14.5601 48.4337 15.2962 47.7037 15.2962 46.7943ZM5.62188 31.2278C5.62188 32.1371 6.35802 32.8671 7.26118 32.8671C8.17053 32.8671 8.90667 32.1371 8.90667 31.2278C8.90667 30.3184 8.17053 29.5885 7.26118 29.5885C6.35802 29.5885 5.62188 30.3184 5.62188 31.2278ZM12.2131 30.5721C11.3038 30.5721 10.5738 31.3082 10.5738 32.2114C10.5738 33.1207 11.3038 33.8568 12.2131 33.8568C13.1225 33.8568 13.8524 33.1207 13.8524 32.2114C13.8524 31.3082 13.1225 30.5721 12.2131 30.5721ZM2.26842 31.8365C3.17777 31.8365 3.91391 31.1003 3.91391 30.1972C3.91391 29.2878 3.17777 28.5517 2.26842 28.5517C1.35907 28.5517 0.629121 29.2878 0.629121 30.1972C0.629121 31.1003 1.35907 31.8365 2.26842 31.8365ZM4.32033 49.0362C3.41099 49.0362 2.68103 49.7723 2.68103 50.6755C2.68103 51.5848 3.41099 52.321 4.32033 52.321C5.22968 52.321 5.95964 51.5848 5.95964 50.6755C5.95964 49.7723 5.22968 49.0362 4.32033 49.0362ZM9.00255 50.3785C9.9119 50.3785 10.6419 49.6424 10.6419 48.7392C10.6419 47.8299 9.9119 47.0938 9.00255 47.0938C8.0932 47.0938 7.36325 47.8299 7.36325 48.7392C7.36325 49.6424 8.0932 50.3785 9.00255 50.3785ZM11.8042 55.6676C12.7136 55.6676 13.4435 54.9315 13.4435 54.0283C13.4435 53.119 12.7136 52.3828 11.8042 52.3828C10.8949 52.3828 10.1649 53.119 10.1649 54.0283C10.1649 54.9315 10.8949 55.6676 11.8042 55.6676ZM17.2207 58.5825C17.2207 57.6731 16.4846 56.9432 15.5814 56.9432C14.6721 56.9432 13.9359 57.6731 13.9359 58.5825C13.9359 59.4918 14.6721 60.2218 15.5814 60.2218C16.4846 60.2218 17.2207 59.4918 17.2207 58.5825ZM12.0114 60.5583C11.1021 60.5583 10.3721 61.2944 10.3721 62.1976C10.3721 63.107 11.1021 63.8431 12.0114 63.8431C12.9208 63.8431 13.6507 63.107 13.6507 62.1976C13.6507 61.2944 12.9208 60.5583 12.0114 60.5583ZM17.3673 64.9584C16.458 64.9584 15.728 65.6946 15.728 66.5977C15.728 67.5071 16.458 68.2432 17.3673 68.2432C18.2767 68.2432 19.0066 67.5071 19.0066 66.5977C19.0066 65.6946 18.2767 64.9584 17.3673 64.9584ZM20.2018 60.7303C19.2924 60.7303 18.5625 61.4664 18.5625 62.3696C18.5625 63.2789 19.2924 64.0151 20.2018 64.0151C21.1111 64.0151 21.8411 63.2789 21.8411 62.3696C21.8411 61.4664 21.1111 60.7303 20.2018 60.7303ZM11.7399 38.7587C12.6492 38.7587 13.3792 38.0225 13.3792 37.1194C13.3792 36.21 12.6492 35.4739 11.7399 35.4739C10.8305 35.4739 10.0944 36.21 10.0944 37.1194C10.0944 38.0225 10.8305 38.7587 11.7399 38.7587ZM5.05833 37.1163C5.05833 38.0256 5.79447 38.7556 6.69763 38.7556C7.60698 38.7556 8.34312 38.0256 8.34312 37.1163C8.34312 36.2069 7.60698 35.477 6.69763 35.477C5.79447 35.477 5.05833 36.2069 5.05833 37.1163ZM7.26427 44.6472C8.17362 44.6472 8.90358 43.911 8.90358 43.0079C8.90358 42.0985 8.17362 41.3624 7.26427 41.3624C6.35493 41.3624 5.62497 42.0985 5.62497 43.0079C5.62497 43.911 6.35493 44.6472 7.26427 44.6472ZM12.2131 43.6605C13.1225 43.6605 13.8524 42.9244 13.8524 42.0212C13.8524 41.1118 13.1225 40.3757 12.2131 40.3757C11.3038 40.3757 10.5738 41.1118 10.5738 42.0212C10.5738 42.9244 11.3038 43.6605 12.2131 43.6605ZM3.91082 44.0385C3.91082 43.1291 3.17468 42.3992 2.26533 42.3992C1.36217 42.3992 0.626028 43.1291 0.626028 44.0385C0.626028 44.9478 1.36217 45.6778 2.26533 45.6778C3.17468 45.6778 3.91082 44.9478 3.91082 44.0385ZM38.0349 30.59C40.0268 30.59 41.796 31.4622 42.9281 32.9345L45.8108 29.5755C43.8745 27.664 41.1527 26.4887 38.0349 26.4887C31.4715 26.4887 27.2031 31.1344 27.2031 36.9554C27.2031 42.492 31.0137 47.4965 37.6823 47.4965C40.8557 47.4965 43.3054 46.7232 45.984 43.8962L43.126 40.9764C41.6785 42.4487 40.0392 43.3271 38.0349 43.3271C34.2119 43.3271 31.8427 40.4753 31.8427 36.9554C31.8427 33.4418 34.4037 30.59 38.0349 30.59ZM58.953 47.0758H63.4379V26.8351H58.953V47.0758ZM171.013 47.0758H175.498V26.8351H171.013V47.0758ZM114.869 38.9344H124.377V34.9815H114.869V30.7873H125.676V26.8406H114.869H111.194H110.384V47.0814H111.312H114.869H125.793V43.1285H114.869V38.9344ZM90.3689 39.3927L81.263 27.3114L80.9042 26.8413H76.7781V47.0758H81.263V34.3078L90.3689 46.2407L91.006 47.0758H94.8537V26.8413H90.3689V39.3927ZM148.959 43.1205H144.981V30.8906H148.959C152.058 30.8906 154.57 33.6249 154.57 37.0025C154.57 40.38 152.058 43.1205 148.959 43.1205ZM148.841 26.8388H144.981H143.793H140.496V47.0795H143.793H144.981H148.841C154.582 47.0795 159.24 42.5452 159.24 36.9592C159.24 31.367 154.582 26.8388 148.841 26.8388ZM202.954 42.1313C201.71 42.9541 200.269 43.3252 198.753 43.3252C194.93 43.3252 192.561 40.4734 192.561 36.9598C192.561 33.4399 195.122 30.5881 198.753 30.5881C200.739 30.5881 202.347 31.4851 203.795 32.7533L206.622 29.3386C204.686 27.4333 201.865 26.4868 198.753 26.4868C192.19 26.4868 187.922 31.1387 187.922 36.9598C187.922 42.4901 191.732 47.5008 198.401 47.5008C201.574 47.5008 204.55 46.6038 207.228 44.2902V37.0835H202.954V42.1313ZM240.231 26.8388H236.148H235.746L230.444 35.4621L225.137 26.8388H224.772H220.652H220.287V47.0795H224.772V34.1631L230.401 42.6936L236.148 34.1012V47.0795H240.633V26.8388H240.231Z" fill="white"/>
</svg>
