<svg width="100" height="100" viewBox="0 0 100 100" fill="none" xmlns="http://www.w3.org/2000/svg">
<g clip-path="url(#clip0_89_5)">
<rect width="100" height="100" fill=""/>
<rect width="100" height="100" rx="30" fill="url(#paint0_linear_89_5)"/>
<rect x="2" y="2" width="96" height="96" rx="28" stroke="url(#paint1_linear_89_5)" stroke-opacity="0.12" stroke-width="4"/>
<path fill-rule="evenodd" clip-rule="evenodd" d="M27.0761 37.8938C27.6392 37.8938 28.2827 38.0562 28.6044 38.4625C29.1674 39.0312 29.3283 40.1688 28.9261 40.9C28.8457 41.225 28.524 41.4687 28.2022 41.6312C27.8805 41.875 27.6392 41.875 27.237 41.9562C27.0761 42.0375 26.9153 42.0375 26.7544 41.9562C25.8696 41.7937 25.0653 40.9812 25.0653 39.925C25.0653 39.5187 25.1457 39.1125 25.387 38.7062C25.7087 38.1375 26.1914 37.8938 26.8348 37.8125H27.0761V37.8938ZM47.9892 47.5625H47.1044C45.737 47.8875 44.6913 48.8625 44.2087 50.2437C44.0479 50.7312 43.9675 51.1375 43.887 51.7063C43.8066 52.0313 43.7261 52.275 44.0479 52.275H50.9653C51.0457 52.275 51.2066 52.275 51.287 52.1938C51.3674 52.1125 51.287 51.625 51.287 51.4625C51.2066 50.8937 51.1261 50.325 50.8044 49.7562C50.4022 48.4562 49.2761 47.5625 47.9892 47.5625ZM73.487 45.3688C73.5675 45.3688 73.7283 45.3687 73.8087 45.45C73.9696 45.45 74.0501 45.9375 74.1305 46.0188L75.0152 48.2125C76.2218 51.3813 77.5087 54.7125 78.6348 57.8813L79.037 57.475L79.5196 56.0938L80.9674 52.1125L82.6566 47.4L83.3805 45.3688H86.6783C86.5174 45.6125 86.1957 46.6688 86.1153 46.9938L84.9892 49.7562L81.45 58.3687L80.2435 61.375C80.1631 61.5375 79.9218 62.1875 79.8413 62.2688C79.6805 62.35 79.6001 62.35 79.5196 62.35H77.6696C77.5892 62.35 77.5087 62.35 77.4283 62.2688C77.3479 62.1875 77.187 61.7 77.1066 61.5375L76.1414 59.2625L72.2 49.1875L71.074 46.5062C70.9935 46.2625 70.7522 45.6125 70.5913 45.45L69.8675 47.8875H65.2827V62.2688H62.3066V47.9688H57.2392V45.6937C57.2392 45.6125 57.2392 45.5312 57.3196 45.45C57.4 45.3687 57.6413 45.3688 57.8826 45.3688H73.487ZM20.3196 37C20.6414 37 21.124 37.0813 21.6066 37C22.0892 37.0813 22.5718 37.1625 22.974 37.325C23.0544 37.4063 23.2957 37.4875 23.3761 37.5687C23.4566 37.7312 23.3761 37.975 23.2957 38.1375L22.8935 39.6C22.8131 39.7625 22.8131 40.0875 22.6522 40.1688C22.5718 40.25 22.4109 40.1687 22.25 40.0875L21.687 39.925C21.5261 39.8437 21.2848 39.8438 21.124 39.8438H20.9631C20.1587 39.8438 19.5957 39.925 19.1131 40.575C18.7109 41.0625 18.6305 41.7125 18.6305 42.2812L18.55 42.7687V45.45H21.9283L22.4109 45.5312H22.974L22.4109 47.4C22.1696 47.9688 22.1696 47.9688 21.8479 47.9688H18.8718V62.1875C18.8718 62.5125 18.7913 62.5938 18.4696 62.5938H16.0566C15.9761 62.5938 15.8153 62.5937 15.7348 62.5125C15.574 62.4312 15.6544 61.9437 15.6544 61.7V48.1312H13.8044C13.4827 48.1312 13.4022 48.1312 13.4022 47.725V45.45H15.7348V45.0437L15.6544 44.475L15.7348 43.9062L15.8153 41.6312L15.8957 41.3063C16.0566 40.1688 16.4587 39.1125 17.3435 38.3813C17.6653 38.0563 17.9066 37.8125 18.3892 37.65C18.7914 37.4063 19.4348 37.1625 19.9174 37.1625C19.6761 37 19.9174 37 20.3196 37ZM39.4631 44.9625C39.4631 44.9625 39.5435 44.9625 39.8653 45.125C40.2675 45.125 40.8305 45.2063 41.2326 45.3688C41.3131 45.45 41.5544 45.5312 41.6348 45.6937C41.7152 45.775 41.5544 46.1812 41.474 46.2625L41.1522 46.8313L40.8305 47.5625C40.75 47.6438 40.5892 48.1312 40.5088 48.1312C40.4283 48.2125 40.187 48.1313 40.1066 48.05C39.7044 47.8875 39.3826 47.8063 38.9805 47.8063H38.5783L38.1761 47.8875C37.2913 48.05 36.5675 48.6188 35.8435 49.1875C35.6827 49.2688 35.1196 49.7562 35.0392 49.9187C34.9588 50 34.9587 50.1625 34.9587 50.2437V60.725C34.9587 61.2938 34.9588 61.7813 34.8783 62.35H32.0631C31.9827 62.35 31.9022 62.35 31.8218 62.2688C31.6609 62.1875 31.7413 61.7 31.7413 61.4563L31.6619 48.2125L31.5805 46.0188C31.5805 45.9375 31.5805 45.775 31.6609 45.6937C31.7414 45.6125 32.1435 45.6125 32.224 45.6125H33.8327C33.9131 45.6125 34.1544 45.6125 34.2348 45.6937C34.3153 45.775 34.3957 46.1 34.3957 46.1813C34.3957 46.5063 34.5566 47.3188 34.5566 47.6438L35.7631 46.5062C36.9696 45.3687 38.0153 44.9625 39.4631 44.9625ZM28.3631 45.3688C28.524 45.3688 28.6848 45.3687 28.6848 45.45C28.7653 45.5312 28.7653 45.6938 28.7653 45.775V62.1875C28.7653 62.2688 28.7653 62.4312 28.6848 62.5125C28.6044 62.5937 28.4435 62.5938 28.3631 62.5938H25.8696C25.7892 62.5938 25.6283 62.5937 25.5479 62.5125C25.387 62.4312 25.4674 61.9437 25.4674 61.7L25.387 45.8562C25.387 45.775 25.387 45.6125 25.4674 45.5312C25.5479 45.5312 25.5479 45.5312 25.6283 45.45H28.3631V45.3688ZM47.1848 44.9625L48.1501 45.0437C49.2761 45.0437 50.6435 45.3688 51.5283 46.0188C53.2175 47.075 54.1022 48.9438 54.5848 50.8938C54.6653 51.4625 54.8261 52.1125 54.8261 52.6L54.9066 53.3313V54.225C54.9066 54.6313 54.8261 54.6313 54.5044 54.6313H44.3696C44.2892 54.6313 44.2088 54.6312 44.1283 54.7125C43.9675 54.7937 44.0479 55.0375 44.0479 55.1187C44.0479 55.6062 44.1283 55.9312 44.2087 56.3375C44.5305 57.7187 45.4153 59.0187 46.7022 59.6687C48.0696 60.4 49.7587 60.4 51.287 59.9937C51.85 59.8312 52.3327 59.6688 52.8153 59.425C52.8957 59.425 53.2175 59.1812 53.3783 59.2625C53.4588 59.2625 53.5392 59.5875 53.6196 59.6687L54.1827 60.8875C54.2631 61.05 54.424 61.375 54.3435 61.4563C54.2631 61.5375 54.1826 61.5375 54.1022 61.6187L53.5392 61.9438C52.574 62.4313 50.6435 62.9187 49.5175 62.9187L48.9544 63L48.6326 62.9187H48.2305C48.0696 62.9187 47.9892 62.9187 47.8283 62.8375L47.5066 62.7563C47.024 62.675 46.7022 62.5937 46.3001 62.4312C45.4957 62.1875 45.0131 61.9438 44.45 61.5375C41.7957 59.8313 40.9109 56.5812 40.9109 53.6562C40.9109 51.2188 41.7153 48.4563 43.4849 46.8313C44.3696 46.0188 45.3348 45.45 46.5414 45.2063L47.1848 44.9625Z" fill="#E57E1F"/>
</g>
<defs>
<linearGradient id="paint0_linear_89_5" x1="50" y1="0" x2="50" y2="100" gradientUnits="userSpaceOnUse">
<stop stop-color="#272C7D"/>
<stop offset="1" stop-color="#12143C"/>
</linearGradient>
<linearGradient id="paint1_linear_89_5" x1="50" y1="0" x2="50" y2="100" gradientUnits="userSpaceOnUse">
<stop stop-color="white"/>
<stop offset="1" stop-color="#202369"/>
</linearGradient>
<clipPath id="clip0_89_5">
<rect width="100" height="100" fill="white"/>
</clipPath>
</defs>
</svg>
