<svg width="52" height="38" viewBox="0 0 52 38" fill="none" xmlns="http://www.w3.org/2000/svg">
<path fill-rule="evenodd" clip-rule="evenodd" d="M9.54009 37.16C14.8801 37.57 20.2701 37.78 25.6501 37.78H25.6601C31.1901 37.78 36.7201 37.56 42.2101 37.12C46.8001 36.75 50.4801 33.35 50.9601 29.03C51.6801 22.53 51.6801 15.88 50.9601 9.26002C50.4701 4.83002 46.7001 1.42002 41.9901 1.14002C31.3001 0.52002 20.4601 0.51002 9.76009 1.12002C4.8601 1.40002 0.970096 5.15002 0.73009 9.84002C0.400088 16.07 0.410098 22.33 0.73009 28.46C0.970096 33.05 4.76009 36.79 9.54009 37.16ZM10.0001 5.41002C15.1901 5.12002 20.4201 4.97002 25.6501 4.97002V4.96002C31.0301 4.96002 36.4001 5.12002 41.7401 5.43002C44.3501 5.59002 46.4301 7.39002 46.6901 9.73002C47.3801 16.04 47.3801 22.37 46.6901 28.56C46.4401 30.84 44.4101 32.65 41.8701 32.85C31.2601 33.69 20.4901 33.71 9.8801 32.88C7.2401 32.67 5.1501 30.67 5.0201 28.23C4.70011 22.25 4.70011 16.14 5.0201 10.06C5.1501 7.56002 7.2901 5.56002 10.0001 5.41002ZM25.99 31.2C27.64 31.2 28.98 29.86 28.98 28.21C28.98 26.56 27.64 25.22 25.99 25.22C24.34 25.22 23 26.56 23 28.21C23 29.86 24.34 31.2 25.99 31.2Z" fill="white"/>
</svg>
