<svg width="100" height="100" viewBox="0 0 100 100" fill="none" xmlns="http://www.w3.org/2000/svg">
<g clip-path="url(#clip0_89_5)">
<rect width="100" height="100" fill=""/>
<rect width="100" height="100" rx="30" fill="url(#paint0_linear_89_5)"/>
<rect x="2" y="2" width="96" height="96" rx="28" stroke="url(#paint1_linear_89_5)" stroke-opacity="0.12" stroke-width="4"/>
<path d="M89.5 50.1C89.5 50.2 89.4 50.3 89.4 50.5C89.3 54.1 88.1 57.2 85.8 59.9C84.5 61.4 83 62.5 81.3 63.4C81.2 63.5 81 63.5 80.9 63.6C80.5 63.7 80.2 63.5 80.2 63.1C80.2 62.1 80.2 61.1 80.2 60.1C80.2 59.8 80.4 59.6 80.6 59.4C81.9 58.5 83 57.5 83.9 56.2C84.9 54.7 85.4 53 85.6 51.2C85.8 48.4 85.2 45.9 83.5 43.7C82.7 42.7 81.8 41.8 80.7 41.1C80.3 40.9 80.2 40.6 80.2 40.1C80.2 39.2 80.2 38.3 80.2 37.4C80.2 36.7 80.6 36.4 81.2 36.8C82.1 37.3 83 37.8 83.8 38.5C86.6 40.7 88.4 43.5 89.1 47C89.3 47.9 89.3 48.8 89.4 49.7C89.4 49.9 89.5 50 89.5 50.2C89.5 50 89.5 50 89.5 50.1Z" fill="#92CBFF"/>
<path d="M57 49.8C57 48.3 57 46.9 57 45.4C57 44.7 57.1 44.5 57.9 44.5C58.6 44.5 59.3 44.5 60 44.5C60.7 44.5 60.9 44.6 60.9 45.4C60.9 46.3 60.9 47.2 60.9 48.1C60.9 49.7 60.9 51.3 60.9 53C60.9 53.3 60.9 53.6 60.9 53.9C61 54.5 61.3 55 62 55.2C62.8 55.5 63.6 55.4 64.3 55.1C64.8 54.9 65 54.5 65 54C65 51.2 65 48.5 65 45.7C65 45.6 65 45.5 65 45.4C65.1 44.8 65.2 44.6 65.8 44.6C66.5 44.6 67.2 44.6 67.9 44.6C68.7 44.6 68.8 44.7 68.8 45.5C68.8 47.4 68.8 49.4 68.8 51.3C68.8 52.2 68.8 53.2 68.8 54.1C68.8 54.6 69.1 54.9 69.5 55.1C70.3 55.5 71.1 55.5 71.9 55.2C72.8 54.9 73 54.1 73 53.2C73 50.7 73 48.1 73 45.6C73 45.4 73 45.3 73 45.1C73 44.8 73.2 44.6 73.5 44.6C74.4 44.6 75.4 44.6 76.3 44.6C76.6 44.6 76.7 44.8 76.8 45C77 45.1 77 45.2 77 45.4C77 48.2 77 51 77 53.7C77 55.1 76.6 56.4 75.5 57.4C74.8 58 73.9 58.3 73 58.5C71.5 58.8 69.9 58.8 68.5 58.1C68.1 57.9 67.7 57.7 67.3 57.5C67.1 57.4 67 57.4 66.8 57.5C65.6 58.3 64.2 58.7 62.8 58.7C61.3 58.7 59.9 58.4 58.7 57.4C57.7 56.6 57.2 55.5 57.1 54.3C57 52.8 57.1 51.3 57 49.8Z" fill="#92CBFF"/>
<path d="M16.8 58.6C14.9 58.6 13.1 58.3 11.4 57.7C11.2 57.6 11 57.5 10.8 57.4C10.5 57.2 10.3 56.9 10.3 56.6C10.3 55.9 10.3 55.2 10.3 54.5C10.3 54 10.6 53.8 11 53.9C12 54.2 13.1 54.5 14.1 54.8C15.5 55.1 17 55.3 18.4 54.9C19 54.8 19.5 54.5 19.8 54C20.3 53.3 20.1 52.3 19.3 51.7C18.6 51.1 17.8 50.8 17 50.5C15.7 50.1 14.5 49.7 13.3 49C12.1 48.3 11.1 47.4 10.8 46.1C10.1 43.1 11.4 40.4 14.7 39.5C16.1 39.1 17.5 39.1 18.9 39.2C20 39.3 21.1 39.5 22.2 39.8C22.8 40 23 40.3 23 40.9C23 41.5 23 42 23 42.6C23 43.1 22.7 43.3 22.2 43.2C21.1 43 19.9 42.8 18.7 42.6C17.9 42.5 17 42.5 16.1 42.8C15.5 43 15.1 43.3 15 44C14.9 44.7 15.1 45.2 15.7 45.6C16.3 46 17 46.3 17.6 46.5C18.7 46.9 19.7 47.2 20.8 47.7C21.9 48.1 22.8 48.7 23.5 49.7C24.1 50.5 24.3 51.4 24.3 52.4C24.3 53.1 24.3 53.8 24.1 54.5C23.7 56.1 22.6 57.2 21.1 57.8C19.8 58.4 18.3 58.6 16.8 58.6Z" fill="#92CBFF"/>
<path d="M30.5 45.1C30.7 45.1 30.8 45 30.9 45C32.1 44.3 33.4001 44 34.7001 44.1C35.4001 44.1 36.2 44.3 36.9 44.5C38.7 45.2 39.5001 46.6 39.7001 48.5C39.8001 49.2 39.8 49.9 39.8 50.7C39.8 53 39.8 55.4 39.8 57.7C39.8 58.3 39.6 58.5 39 58.5C38.2 58.5 37.4 58.5 36.6 58.5C35.8 58.5 35.7001 58.4 35.7001 57.6C35.7001 55 35.7001 52.4 35.7001 49.8C35.7001 49.5 35.7 49.2 35.6 48.9C35.5 48.3 35.2001 47.9 34.7001 47.7C33.5001 47.2 32.3001 47.3 31.2001 48C30.7001 48.3 30.5 48.7 30.5 49.3C30.5 52.1 30.5 54.9 30.5 57.7C30.5 58.4 30.3 58.6 29.6 58.6C28.7 58.6 27.9 58.6 27 58.6C26.5 58.6 26.3 58.4 26.3 57.9C26.3 51.9 26.3 46 26.3 40C26.3 39.5 26.5 39.2 27.1 39.2C28 39.2 28.9 39.2 29.8 39.2C30.3 39.2 30.5 39.4 30.5 40C30.5 41.6 30.5 43.2 30.5 44.9C30.5 44.8 30.5 44.9 30.5 45.1Z" fill="#92CBFF"/>
<path d="M54.7 50.2C54.7 49.5 54.7 48.9 54.6 48.2C54.4 46.5 53.5 45.3 51.8 44.6C50.8 44.2 49.7 44 48.7 44C47.9 44 47 44 46.2 44.1C45.5 44.2 44.7 44.4 44 44.6C43.5 44.7 43.3 45 43.3 45.5C43.3 46 43.3 46.6 43.3 47.1C43.3 47.6 43.6 47.8 44 47.7C44.6 47.6 45.2 47.5 45.8 47.4C46.8 47.2 47.8 47.1 48.8 47.3C50 47.5 50.8 48.4 50.7 49.6C50.7 50 50.6 50 50.3 49.9C48.9 49.6 47.6 49.5 46.2 49.7C45.4 49.8 44.6 50.1 43.8 50.5C42.3 51.4 41.6 52.8 41.7 54.6C41.8 56 42.4 57.2 43.6 57.9C44.6 58.5 45.7 58.8 46.8 58.8C47.8 58.8 48.8 58.9 49.8 58.7C51.2 58.5 52.6 58.2 53.9 57.9C54.4 57.8 54.5 57.5 54.5 57C54.5 55.7 54.5 54.5 54.5 53.2C54.7 52.3 54.7 51.2 54.7 50.2ZM50.8 55.1C50.8 55.3 50.7 55.4 50.5 55.5C49.4 55.8 48.4 55.9 47.3 55.7C46.4 55.6 45.9 55.1 45.8 54.3C45.7 53.6 45.9 52.9 46.6 52.6C47 52.4 47.5 52.2 48 52.2C48.8 52.1 49.7 52.2 50.5 52.4C50.8 52.5 50.9 52.6 50.9 52.9C50.9 53.2 50.9 53.6 50.9 54C50.8 54.4 50.8 54.8 50.8 55.1Z" fill="#92CBFF"/>
</g>
<defs>
<linearGradient id="paint0_linear_89_5" x1="50" y1="0" x2="50" y2="100" gradientUnits="userSpaceOnUse">
<stop stop-color="#272C7D"/>
<stop offset="1" stop-color="#12143C"/>
</linearGradient>
<linearGradient id="paint1_linear_89_5" x1="50" y1="0" x2="50" y2="100" gradientUnits="userSpaceOnUse">
<stop stop-color="white"/>
<stop offset="1" stop-color="#202369"/>
</linearGradient>
<clipPath id="clip0_89_5">
<rect width="100" height="100" fill="white"/>
</clipPath>
</defs>
</svg>
