<svg width="51" height="47" viewBox="0 0 51 47" fill="none" xmlns="http://www.w3.org/2000/svg">
<path fill-rule="evenodd" clip-rule="evenodd" d="M9.05 36.4901C14.4 36.9001 19.78 37.1101 25.16 37.1101V37.1201C30.7 37.1201 36.23 36.9001 41.72 36.4601C46.31 36.0901 49.99 32.6901 50.47 28.3701C51.19 21.8701 51.19 15.2201 50.47 8.60012C49.98 4.17012 46.21 0.760121 41.5 0.480121C30.8 -0.149879 19.96 -0.159879 9.27 0.450121C4.37 0.730121 0.49 4.48012 0.24 9.17012C-0.08 15.4001 -0.08 21.6601 0.24 27.7901C0.48 32.3801 4.27 36.1201 9.05 36.4901ZM9.51 4.73012C14.7 4.44012 19.93 4.29012 25.16 4.29012V4.28012C30.54 4.28012 35.91 4.44012 41.25 4.75012C43.86 4.91012 45.94 6.71012 46.2 9.05012C46.89 15.3601 46.89 21.6901 46.2 27.8801C45.95 30.1601 43.92 31.9701 41.38 32.1701C30.76 33.0101 20 33.0301 9.39 32.2001C6.75 31.9901 4.66 30.0001 4.53 27.5501C4.21 21.5701 4.21 15.4601 4.53 9.38012C4.66 6.89012 6.8 4.88012 9.51 4.73012ZM15.69 46.46H35.31C36.5 46.46 37.46 45.5 37.46 44.31C37.46 43.12 36.5 42.16 35.31 42.16H15.69C14.5 42.16 13.54 43.12 13.54 44.31C13.54 45.5 14.5 46.46 15.69 46.46Z" fill="white"/>
</svg>
