<svg width="100" height="100" viewBox="0 0 100 100" fill="none" xmlns="http://www.w3.org/2000/svg">
<g clip-path="url(#clip0_89_5)">
<rect width="100" height="100" fill=""/>
<rect width="100" height="100" rx="30" fill="url(#paint0_linear_89_5)"/>
<rect x="2" y="2" width="96" height="96" rx="28" stroke="url(#paint1_linear_89_5)" stroke-opacity="0.12" stroke-width="4"/>
<path fill-rule="evenodd" clip-rule="evenodd" d="M39.439 43.7759C34.579 43.7759 30.7422 47.6552 30.7422 52.569C30.7422 57.3966 34.579 61.3621 39.439 61.3621C44.299 61.3621 48.1358 57.4828 48.1358 52.569C48.1358 47.6552 44.299 43.7759 39.439 43.7759ZM39.8653 57.2242C38.2453 57.2242 37.0516 55.2414 37.0516 52.569C37.0516 49.9828 38.3306 47.9138 39.8653 47.9138C41.4853 47.9138 42.679 49.8966 42.679 52.569C42.5937 55.1552 41.3148 57.2242 39.8653 57.2242ZM23.4948 39.5518C27.5874 39.8966 30.6569 42.7414 30.6569 46.3621C30.6569 48.9483 29.1222 51.0173 26.9053 52.2242L32.8737 60.6724H26.3937L21.3632 53.6035H19.6579V60.6724H14.1158V39.5518H23.4948ZM55.2127 44.4656V50.9311L61.7779 44.4656H73.6295V54.7242C73.6295 57.0518 76.358 58 78.6601 55.069V44.4656H84.3727V61.0173H83.0937L80.3653 58.8621C80.3653 58.8621 78.1485 61.4483 74.8232 61.4483C71.498 61.4483 67.8316 59.8104 67.8316 55.2414V45.4138L60.7548 52.4828L69.3664 61.2759H62.0337L55.1274 54.4656V61.1035H49.4148V44.4656H55.2127ZM21.4485 50.7587L19.6579 50.8449L19.5727 43.0862H21.4485C23.4948 43.0862 25.1148 44.8104 25.1148 46.8793C25.1148 48.9483 23.4948 50.7587 21.4485 50.7587Z" fill="#8146FF"/>
</g>
<defs>
<linearGradient id="paint0_linear_89_5" x1="50" y1="0" x2="50" y2="100" gradientUnits="userSpaceOnUse">
<stop stop-color="#272C7D"/>
<stop offset="1" stop-color="#12143C"/>
</linearGradient>
<linearGradient id="paint1_linear_89_5" x1="50" y1="0" x2="50" y2="100" gradientUnits="userSpaceOnUse">
<stop stop-color="white"/>
<stop offset="1" stop-color="#202369"/>
</linearGradient>
<clipPath id="clip0_89_5">
<rect width="100" height="100" fill="white"/>
</clipPath>
</defs>
</svg>
